<svg width="306" height="189" viewBox="0 0 306 189" fill="none" xmlns="http://www.w3.org/2000/svg">
<path d="M300 188.744H0V81.4666C7.04446 81.9894 18.6074 86.5881 37.883 100.024C85.3634 133.121 86.5936 157.753 110.097 157.753C111.083 157.753 112.107 157.709 113.176 157.622C123.476 156.776 134.268 155.624 147.286 155.624C167.846 155.624 193.958 158.496 232.452 169.983C264.913 179.67 268 184.744 300 188.744Z" fill="url(#paint0_linear_942_2386)"/>
<path d="M306 188.744H0V96.9881C7.04446 97.4352 18.6074 101.369 37.883 112.861C85.3634 141.169 86.5936 162.237 110.097 162.237C111.083 162.237 112.107 162.199 113.176 162.125C123.476 161.401 134.268 160.416 147.286 160.416C167.846 160.416 193.958 162.873 232.452 172.698C264.913 180.983 271 185.744 306 188.744Z" fill="url(#paint1_linear_942_2386)"/>
<path d="M133.052 58.3418L131.764 64.3875L124.331 61.6442C124.331 61.6442 126.331 54.5045 124.497 51.9946L133.052 58.3418Z" fill="#FFCCB8"/>
<path d="M138.701 44.4312L138.887 49.8536C138.887 49.8536 141.52 53.9056 140.245 54.0927C138.968 54.2798 138.252 54.1619 138.252 54.1619C138.252 54.1619 138.243 54.9299 138.19 55.7531C138.182 55.8915 138.054 57.2133 137.874 57.6752C137.216 59.3659 131.628 60.3037 127.475 57.7498C124.671 56.0257 123.598 53.3712 123.386 52.8196C122.108 49.4805 122.183 44.1965 125.778 41.5929C129.363 38.9958 135.314 39.8893 138.701 44.4312Z" fill="#FFCCB8"/>
<path d="M73.1581 143.191C73.7442 145.055 78.4135 145.715 82.1271 147.242C83.273 147.713 84.5286 147.883 85.6716 148.362C85.8436 148.433 86.0148 148.502 86.2402 148.477C87.6122 148.329 88.1756 144.963 88.1756 144.963L82.5946 142.84C80.7528 142.805 79.2447 142.71 78.1888 142.627C75.4016 142.41 73.4318 142.096 73.1478 142.784C73.1047 142.888 73.1017 143.011 73.1581 143.191Z" fill="#3C2415"/>
<path d="M123.485 151.79C123.485 151.79 120.829 155.604 119.843 155.938C118.857 156.272 116.173 156.394 117.794 158.061C119.414 159.727 130.513 155.485 130.984 153.812C131.454 152.139 129.111 150.904 128.579 149.367L123.485 151.79Z" fill="#3C2415"/>
<path d="M95.5116 115.305C94.3549 118.401 82.5949 142.839 82.5949 142.839C83.1657 143.281 83.9917 143.825 85.0738 144.257C86.3034 144.748 87.4044 144.91 88.1765 144.963C90.543 141.247 92.8898 137.518 95.2375 133.791C98.9118 127.956 102.876 121.623 104.029 119.63L112.977 111.851C112.977 111.851 107.974 123.847 111.195 128.032C114.414 132.216 123.486 151.789 123.486 151.789C123.963 151.848 124.917 151.899 125.987 151.471C127.477 150.876 128.229 149.738 128.468 149.339C128.037 143.42 126.944 135.564 122.351 128.01C122.234 127.817 119.813 123.849 119.813 123.849C119.813 123.849 125.226 117.889 132.834 102.102L112.148 95.61C112.148 95.61 96.6693 112.209 95.5116 115.305Z" fill="#231F20"/>
<path d="M95.5124 115.305L95.4782 115.293C95.1905 116.064 94.2384 118.172 92.9733 120.898C91.0753 124.988 88.4732 130.469 86.345 134.928C85.2804 137.157 84.3346 139.131 83.6557 140.548C83.3159 141.256 83.0425 141.825 82.8546 142.217C82.6667 142.608 82.5624 142.823 82.5624 142.823L82.5498 142.851L82.5732 142.868C83.1459 143.312 83.9749 143.858 85.061 144.291C86.2955 144.784 87.3997 144.947 88.1738 144.999L88.1954 145.001L88.2071 144.982C90.5745 141.267 92.9212 137.538 95.2688 133.811C98.9435 127.976 102.907 121.644 104.06 119.649L104.029 119.63L104.053 119.658L113.001 111.879L112.978 111.851L112.944 111.838C112.944 111.839 112.227 113.556 111.511 115.918C110.795 118.28 110.077 121.288 110.077 123.872C110.077 125.535 110.374 127.024 111.165 128.054C111.967 129.096 113.139 131.104 114.442 133.526C116.396 137.16 118.649 141.73 120.413 145.391C121.296 147.222 122.054 148.825 122.594 149.97C122.864 150.543 123.079 151.002 123.225 151.317C123.3 151.474 123.355 151.596 123.394 151.679C123.433 151.761 123.453 151.804 123.453 151.805L123.461 151.823L123.481 151.825C123.644 151.846 123.862 151.865 124.12 151.865C124.625 151.865 125.287 151.791 126.001 151.505C127.502 150.905 128.258 149.761 128.5 149.358L128.506 149.348L128.505 149.337C128.074 143.415 126.98 135.552 122.383 127.991C122.265 127.798 119.844 123.83 119.844 123.83L119.813 123.848L119.84 123.874C119.843 123.871 125.258 117.908 132.867 102.118L132.885 102.08L112.136 95.5683L112.121 95.5854C112.121 95.5854 108.251 99.7357 104.237 104.273C102.229 106.542 100.186 108.907 98.5712 110.899C97.7647 111.895 97.0643 112.798 96.5293 113.549C95.9952 114.3 95.6257 114.899 95.4782 115.293L95.5124 115.305L95.5466 115.319C95.6886 114.939 96.0555 114.341 96.5896 113.592C98.4561 110.969 102.353 106.479 105.782 102.646C107.497 100.729 109.095 98.9758 110.264 97.702C110.849 97.0665 111.327 96.5491 111.657 96.1912C111.823 96.0118 111.952 95.8739 112.04 95.7792C112.128 95.6846 112.174 95.635 112.174 95.635L112.148 95.6098L112.136 95.6449L132.823 102.137L132.834 102.102L132.801 102.087C128.998 109.978 125.744 115.414 123.44 118.875C122.289 120.606 121.375 121.844 120.749 122.649C120.436 123.051 120.195 123.345 120.032 123.538C119.951 123.635 119.889 123.706 119.848 123.754C119.807 123.801 119.786 123.823 119.786 123.823L119.767 123.844L119.781 123.867C119.781 123.867 119.819 123.93 119.886 124.039C120.352 124.8 122.217 127.861 122.321 128.03C126.909 135.575 128.001 143.426 128.432 149.342L128.469 149.339L128.437 149.32C128.199 149.717 127.452 150.846 125.974 151.437C125.271 151.719 124.618 151.791 124.12 151.791C123.865 151.791 123.65 151.772 123.49 151.753L123.486 151.789L123.519 151.773C123.519 151.773 121.252 146.88 118.58 141.463C117.245 138.755 115.809 135.915 114.506 133.492C113.202 131.067 112.031 129.059 111.224 128.009C110.447 127.001 110.151 125.527 110.151 123.872C110.151 121.301 110.866 118.298 111.581 115.939C111.938 114.759 112.296 113.741 112.565 113.017C112.698 112.655 112.811 112.368 112.888 112.169C112.927 112.071 112.958 111.995 112.979 111.944C113 111.893 113.011 111.866 113.011 111.866L113.072 111.721L104 119.606L103.997 119.611C102.845 121.604 98.8814 127.937 95.2067 133.772C92.86 137.499 90.5133 141.227 88.1459 144.943L88.1765 144.963L88.1783 144.926C87.4104 144.874 86.3135 144.712 85.088 144.222C84.01 143.793 83.1864 143.251 82.6181 142.81L82.5957 142.84L82.628 142.856C82.628 142.856 85.5681 136.746 88.6539 130.249C90.195 127.001 91.7739 123.656 93.0398 120.93C94.3049 118.203 95.2562 116.095 95.5466 115.319L95.5124 115.305Z" fill="#231F20"/>
<path d="M124.37 64.9773C124.37 64.9773 121.969 65.787 120.918 66.5802C119.866 67.3734 112.648 74.6012 112.648 74.6012L99.5636 71.9358C99.5636 71.9358 97.3844 75.9053 98.284 77.1098C99.1846 78.3152 113.098 80.9898 114.203 81.0682C115.308 81.1475 120.107 76.4799 120.107 76.4799L124.37 64.9773Z" fill="#231F20"/>
<path d="M124.371 64.976L124.359 64.941C124.359 64.9419 123.758 65.144 123.026 65.4466C122.292 65.7492 121.427 66.1496 120.896 66.5501C120.762 66.6516 120.535 66.8508 120.237 67.1249C118.148 69.0412 112.623 74.5743 112.623 74.5743L112.649 74.6001L112.656 74.5641L99.5454 71.894L99.5325 71.9171C99.5325 71.918 99.158 72.6007 98.7825 73.4865C98.407 74.3731 98.0306 75.4609 98.0297 76.2821C98.0306 76.6198 98.0941 76.9159 98.2552 77.1309C98.3178 77.214 98.4282 77.2961 98.5819 77.3828C99.158 77.7085 100.352 78.096 101.842 78.4992C104.077 79.1044 106.97 79.742 109.403 80.2347C110.621 80.481 111.721 80.6914 112.568 80.8436C113.415 80.9949 114.003 81.09 114.201 81.1038C114.212 81.1047 114.222 81.1047 114.232 81.1047C114.389 81.1047 114.592 81.03 114.834 80.9036C115.679 80.4607 117.002 79.3619 118.115 78.3737C119.23 77.3846 120.133 76.5063 120.133 76.5054L120.139 76.4998L124.433 64.917L124.359 64.941L124.371 64.976L124.337 64.9631L120.073 76.4666L120.108 76.4795L120.082 76.4528C120.082 76.4537 120.064 76.4712 120.029 76.5044C119.768 76.7563 118.584 77.8903 117.33 78.9614C116.704 79.4957 116.059 80.0151 115.505 80.4008C115.228 80.5927 114.974 80.7514 114.756 80.8612C114.539 80.9719 114.357 81.0318 114.232 81.0318C114.224 81.0318 114.214 81.0309 114.207 81.0309C114.072 81.0208 113.733 80.971 113.246 80.8879C111.539 80.5982 107.997 79.9071 104.784 79.158C103.179 78.7834 101.655 78.3949 100.484 78.0333C99.8988 77.8524 99.4018 77.679 99.0282 77.5175C98.8405 77.4382 98.6849 77.3607 98.5644 77.2878C98.4438 77.2149 98.3583 77.1466 98.3141 77.0876C98.1668 76.891 98.1033 76.6115 98.1033 76.2821C98.1033 75.4831 98.476 74.3971 98.8497 73.5151C99.0365 73.0741 99.2233 72.6829 99.3632 72.4033C99.4331 72.2631 99.492 72.1496 99.5325 72.073C99.573 71.9955 99.5969 71.9531 99.5969 71.9531L99.5647 71.9346L99.5574 71.9706L112.661 74.6398L112.675 74.6259C112.675 74.6259 112.703 74.5983 112.757 74.5448C113.154 74.1462 114.954 72.347 116.779 70.5552C117.69 69.6594 118.609 68.7653 119.36 68.0484C120.111 67.3315 120.698 66.7918 120.941 66.6091C121.46 66.2161 122.323 65.8156 123.053 65.5139C123.419 65.3636 123.752 65.2371 123.992 65.1495C124.113 65.1052 124.211 65.0711 124.278 65.048C124.345 65.0231 124.383 65.0111 124.383 65.0111L124.371 64.976L124.337 64.9631L124.371 64.976Z" fill="#231F20"/>
<path d="M159.579 89.7001C159.335 89.8631 159.089 90.0421 158.84 90.2393C157.985 90.916 157.316 91.647 156.791 92.3407C156.645 92.5325 156.51 92.7222 156.387 92.9066C150.767 88.6675 145.147 84.4284 139.528 80.1893L134.777 75.6028C134.777 75.6028 134.458 95.0123 133.948 97.3375C133.439 99.6627 132.646 102.865 132.646 102.865C132.646 102.865 132.117 102.868 131.216 102.832C127.262 102.671 116.148 101.761 111.081 96.5883L114.712 84.6767L125.893 63.8691C127.57 63.4705 130.209 63.0294 133.356 63.3544C135.718 64.5458 159.579 89.7001 159.579 89.7001Z" fill="#414042"/>
<path d="M132.62 102.865C132.597 102.865 132.559 102.865 132.505 102.865C132.481 102.864 132.454 102.864 132.425 102.864C132.188 102.861 131.774 102.854 131.216 102.832C131.318 102.311 131.408 101.791 131.482 101.271C131.879 98.5258 132.157 95.7316 132.386 92.9667C132.649 89.7782 132.528 86.6485 132.403 83.4527C132.307 80.9772 131.97 78.4881 131.984 76.0116C131.994 74.551 131.85 72.583 132.208 71.1812C133.509 72.0294 134.555 73.4879 135.771 74.4913C136.522 75.112 137.257 75.6593 137.959 76.3251C138.743 77.0705 139.584 77.7563 140.337 78.5154C140.761 78.9442 140.95 79.3657 141.001 79.4443C142.545 81.8579 153.595 87.7064 156.791 92.3407C156.646 92.5326 156.511 92.7224 156.388 92.9059C150.769 88.6668 145.148 84.4278 139.529 80.1887L134.779 75.6027C134.779 75.6027 134.46 95.0123 133.949 97.3368C133.749 98.2542 133.504 99.308 133.28 100.247C132.938 101.69 132.646 102.865 132.646 102.865C132.646 102.865 132.638 102.865 132.62 102.865Z" fill="#353537"/>
<path d="M125.469 65.0035C125.469 65.0035 114.607 84.7118 114.635 84.6578C114.663 84.6039 119.187 71.2011 122.925 65.8467C122.925 65.8467 124.821 63.7848 125.469 65.0035Z" fill="white"/>
<path d="M124.679 63.8268C124.679 63.8268 123.709 64.0768 123.549 64.7589C123.531 64.8323 123.472 65.0758 123.591 65.3091C123.777 65.6752 124.323 65.8592 124.945 65.7189C125.172 65.2672 125.4 64.8147 125.627 64.363L124.679 63.8268Z" fill="#BE1E2D"/>
<path d="M133.211 59.9852L124.289 62.1807C124.289 62.1807 124.327 65.4424 124.45 65.4729C124.573 65.5034 132.012 63.3813 133.004 63.4642C133.993 63.5471 133.211 59.9852 133.211 59.9852Z" fill="white"/>
<path d="M115.608 81.7205C115.439 82.2661 115.312 82.7008 115.249 82.9163C116.558 80.3008 118.172 77.7631 119.482 75.1486C121.014 71.9441 122.546 68.7396 124.078 65.5341C123.998 65.2095 123.917 64.8858 123.837 64.5612C123.119 65.5545 122.215 66.8908 121.266 68.5306C121.178 68.6841 120.883 69.1937 120.518 69.8743C117.648 75.2198 115.908 80.7531 115.608 81.7205Z" fill="#BE1E2D"/>
<path d="M99.4529 72.4158C99.4529 72.4158 99.7316 68.3775 98.9953 68.849C98.2589 69.3195 96.0049 71.4595 96.3592 71.875C96.7125 72.2897 93.9676 77.4583 93.9676 77.4583C93.9676 77.4583 96.102 78.888 98.1079 76.7039C99.4619 75.2292 99.4529 72.4158 99.4529 72.4158Z" fill="#FFCCB8"/>
<path d="M92.7484 70.8439C92.4781 71.3145 91.9971 71.3181 91.9123 71.7368C91.8606 71.9926 92.0346 72.0231 92.0256 72.3684C92.0123 72.8184 91.7151 72.8551 91.5795 73.3937C91.4644 73.8508 91.6402 73.9752 91.4733 74.2901C91.2779 74.6578 90.9557 74.6444 90.8728 74.8519C90.6613 75.3824 92.1988 76.923 93.3936 76.9346C95.8216 76.957 97.219 70.6704 97.2841 70.3653C94.0512 69.4814 93.0991 69.6129 92.9055 69.9645C92.7868 70.181 92.9769 70.4458 92.7484 70.8439Z" fill="#EFAC97"/>
<path d="M136.763 0.00387573L58.8537 133.908C58.8537 133.908 59.4225 134.822 60.9656 134.961L124.217 26.0323L126.534 22.0422C126.534 22.0422 138.246 -0.338776 136.763 0.00387573Z" fill="#A97C50"/>
<path d="M179.113 19.7421C178.651 24.8871 177.195 33.142 172.191 41.7807C169.689 46.0961 166.908 49.4658 164.456 51.9941C165.433 46.1317 164.181 43.3238 162.709 41.8506C160.279 39.4186 155.266 38.6404 150.989 37.7436C148.543 37.2305 146.337 36.6779 144.996 35.7547C143.643 34.8223 142.889 34.1457 142.889 34.1457C141.434 32.8532 140.942 31.9418 139.186 30.855C138.936 30.7007 138.658 30.5412 138.349 30.3776C132.172 27.1055 125.169 28.1711 120.052 29.6799L137.095 0.329445C137.095 0.329445 138.713 3.29166 148.633 10.4532C148.648 10.4638 148.664 10.4743 148.679 10.4849C153.405 13.8942 157.985 13.4497 162.57 13.1939C166.675 12.9631 170.786 12.8839 175.009 15.8554C177.022 17.2705 178.367 18.8031 179.113 19.7421Z" fill="#DD9933"/>
<path d="M96.9302 71.1584C96.9633 71.2659 96.9392 71.3456 96.9106 71.4039C96.6032 72.0301 94.2235 72.1654 93.2825 71.0634C93.0653 70.809 92.6096 70.2777 92.7588 69.982C93.1154 69.2715 96.6675 70.3207 96.9302 71.1584Z" fill="#FFCCB8"/>
<path d="M96.14 72.8576C96.1744 72.9674 96.1497 73.0498 96.1205 73.11C95.8069 73.7496 93.3628 73.8799 92.3909 72.7468C92.1673 72.4855 91.6973 71.9389 91.8493 71.6359C92.2142 70.9095 95.8661 71.9983 96.14 72.8576Z" fill="#FFCCB8"/>
<path d="M95.0784 74.426C95.1098 74.5143 95.0932 74.5781 95.0714 74.6245C94.8367 75.1212 92.8514 75.1431 92.0244 74.2152C91.8334 74.0009 91.433 73.5523 91.5464 73.3179C91.8186 72.7556 94.8271 73.7368 95.0784 74.426Z" fill="#FFCCB8"/>
<path d="M94.2216 75.6739C94.2458 75.7526 94.2276 75.8106 94.2069 75.8538C93.9817 76.3123 92.2431 76.4152 91.5563 75.6099C91.3984 75.4239 91.0662 75.0354 91.1749 74.8192C91.4372 74.2993 94.03 75.0614 94.2216 75.6739Z" fill="#FFCCB8"/>
<path d="M94.7971 76.6975L97.2217 72.5217C97.1702 73.282 96.9972 74.5189 96.4231 75.1829C95.9356 75.7453 95.2794 76.3103 94.7971 76.6975Z" fill="#E6B9A7"/>
<path d="M94.1476 77.197L97.2425 71.8668C97.2425 71.8668 97.2478 72.1326 97.2214 72.5215L94.7971 76.6981C94.4188 77.0017 94.1476 77.197 94.1476 77.197Z" fill="#987049"/>
<path d="M119.881 47.7971C119.995 48.7497 120.323 49.7332 120.545 50.6637C120.675 51.2085 120.827 51.7743 121.03 52.318C121.172 52.7026 121.339 53.0772 121.543 53.4242C122.427 54.9382 123.912 55.7505 125.32 56.6987C126.067 57.2026 127.039 57.7618 127.977 57.4325C127.804 55.9306 126.867 54.3337 126.252 52.9756C125.562 51.4483 124.453 49.332 125.678 47.7462C126.137 47.1517 127.105 46.9218 127.767 47.2931C128.46 47.6832 128.603 48.4214 128.627 49.1663C128.638 49.5586 128.483 50.6714 128.744 50.9908C128.925 51.2118 129.436 51.1886 129.688 51.2317C129.734 50.2769 129.665 49.4171 129.815 48.4789C129.861 48.1849 129.835 47.6744 129.941 47.4324C130.081 47.1152 130.614 46.882 130.869 46.7218C131.509 46.3195 131.818 45.9261 131.982 45.7836C132.482 45.3459 134.015 45.0255 138.475 45.4863C139.289 45.1559 139.979 44.789 140.429 44.0054C140.869 43.2396 141.058 42.3953 141.045 41.5167C141.033 40.7266 140.979 39.9851 140.59 39.2767C140.179 38.5296 139.229 37.5373 138.326 37.0941C138.162 37.0134 138 36.9505 137.843 36.9107C137.92 37.4113 138.207 37.8345 138.183 38.3584C137.592 37.9859 137.104 37.4676 136.474 37.1262C135.626 36.6653 134.726 36.4344 133.807 36.1603C132.435 35.7514 131.044 35.2619 129.61 35.221C127.968 35.1757 126.478 35.3923 125.069 36.2355C124.384 36.6455 123.871 37.1184 123.257 37.629C123.008 37.8368 122.793 38.228 122.552 38.3694C122.435 38.039 122.308 37.7218 122.152 37.3892C122.018 37.9937 121.761 38.4766 121.76 39.0999C121.286 38.9971 120.697 38.8546 120.214 39.0037C120.32 39.1684 120.415 39.353 120.551 39.49C120.612 39.5519 121.025 39.7652 121.041 39.8116C121.108 40.0116 120.094 40.9134 119.932 41.3554C119.635 42.1654 119.678 43.1368 119.708 43.9944C119.752 45.2586 119.73 46.5417 119.881 47.7971Z" fill="#414042"/>
<path d="M138.046 47.5006C137.483 46.9267 136.583 47.1604 135.866 47.148C135.509 47.1407 135.078 47.0932 134.738 46.997C134.488 46.9256 134.207 46.7747 133.943 46.7633C134.055 47.1841 134.877 47.6505 135.269 47.787C135.818 47.9772 136.413 47.7477 136.97 47.9297C137.154 47.9907 137.352 48.0982 137.494 48.2368C137.65 48.3919 137.642 48.579 137.835 48.3939C138.064 48.1747 138.053 47.7467 138.046 47.5006Z" fill="#231F20"/>
<path d="M135.689 49.405C135.709 50.0024 136.013 50.4768 136.367 50.4645C136.721 50.4522 136.991 49.9583 136.97 49.3609C136.95 48.7625 136.646 48.2881 136.293 48.3004C135.938 48.3127 135.668 48.8066 135.689 49.405Z" fill="#231F20"/>
<path d="M136.426 49.4028C136.431 49.5672 136.51 49.6969 136.602 49.6938C136.694 49.6907 136.763 49.5549 136.757 49.3905C136.752 49.2261 136.674 49.0954 136.581 49.0995C136.49 49.1016 136.421 49.2384 136.426 49.4028Z" fill="white"/>
<path d="M138.213 55.3561L135.894 55.3375L138.142 56.2413L138.213 55.3561Z" fill="white"/>
<path d="M127.391 57.5302C126.645 57.5302 125.911 57.0972 125.32 56.6992C123.913 55.7502 122.428 54.9378 121.544 53.4236C121.341 53.077 121.172 52.7031 121.03 52.3171C121.045 52.3182 121.059 52.3182 121.074 52.3182C121.21 52.3182 121.328 52.2909 121.409 52.2122C121.508 52.1181 121.518 51.8951 121.587 51.7705C121.825 52.0864 122.023 52.4418 122.327 52.7096L122.329 52.5762C122.34 52.8463 122.436 52.9523 122.578 52.9523C123.052 52.9523 124.035 51.7759 124.137 51.5091C124.426 50.7449 124.152 49.7357 124.25 48.919C124.393 47.7328 124.695 46.47 125.721 45.7254C126.114 45.44 126.478 45.2137 126.884 45.2137C127.052 45.2137 127.226 45.2531 127.414 45.3427C128.022 45.6346 128.592 46.506 129.197 46.6132C129.183 46.131 129.379 45.6653 129.445 45.1864C129.5 44.7961 129.47 44.3008 129.823 44.0482C130.053 43.8831 130.353 43.8263 130.682 43.8263C131.076 43.8263 131.511 43.9083 131.921 43.9903C132.331 44.0712 132.716 44.1532 133.007 44.1532C133.01 44.1532 133.014 44.1532 133.018 44.1532C134.08 44.1466 135.238 44.1794 136.287 44.0089C137.246 43.8547 138.532 43.6787 139.151 42.827C140.202 41.3783 139.187 39.2255 138.779 37.7604C138.672 37.5243 138.499 37.3133 138.327 37.0935C139.23 37.5374 140.179 38.5291 140.59 39.2769C140.98 39.9854 141.034 40.7256 141.046 41.5161C141.046 41.5434 141.046 41.5707 141.046 41.5981C141.046 42.4476 140.855 43.2621 140.43 44.0045C139.981 44.7884 139.289 45.1547 138.476 45.486C136.934 45.3263 135.742 45.2607 134.822 45.2607C133.08 45.2607 132.31 45.4969 131.983 45.7833C131.819 45.9266 131.51 46.3191 130.87 46.7214C130.614 46.8821 130.082 47.115 129.942 47.4321C129.836 47.6737 129.862 48.1843 129.815 48.4784C129.666 49.4165 129.734 50.277 129.689 51.2314C129.437 51.1877 128.925 51.2118 128.745 50.9898C128.623 50.8422 128.593 50.5219 128.593 50.1829C128.593 49.821 128.629 49.4362 128.629 49.2153C128.629 49.1967 128.628 49.1814 128.628 49.1661C128.605 48.4216 128.461 47.6825 127.767 47.2932C127.549 47.1708 127.297 47.1128 127.041 47.1128C126.522 47.1128 125.986 47.3479 125.679 47.7459C125.282 48.2608 125.13 48.8305 125.129 49.4176C125.128 50.6421 125.787 51.9432 126.252 52.9753C126.867 54.3332 127.805 55.9295 127.978 57.4328C127.783 57.5006 127.586 57.5302 127.391 57.5302Z" fill="#353537"/>
<path d="M136.351 38.8278C135.546 38.8278 133.818 38.008 133.432 37.8917C132.43 37.591 131.276 37.4779 130.235 37.3484C130.15 37.3385 130.031 37.3353 129.889 37.3353C129.765 37.3353 129.623 37.3375 129.471 37.3396C129.318 37.3429 129.155 37.3451 128.988 37.3451C128.102 37.3451 127.114 37.2727 127.11 36.7448C127.957 36.5221 128.775 36.4266 129.633 36.4266C129.978 36.4266 130.328 36.4419 130.69 36.4705C131.761 36.5561 132.87 36.8392 133.888 37.1783C134.814 37.4867 136.035 37.8225 136.763 38.4974C136.784 38.7356 136.619 38.8278 136.351 38.8278Z" fill="#717073"/>
<path d="M150.99 37.7444C148.543 37.2304 146.337 36.6774 144.995 35.7549C143.643 34.8224 142.888 34.1462 142.888 34.1462C141.434 32.853 140.943 31.9419 139.186 30.856C139.248 30.1572 139.426 29.5012 139.5 28.7961C139.789 26.0325 141.203 23.2613 142.489 20.793C143.472 18.9053 144.594 16.9209 145.879 15.2255C146.683 14.1648 148.933 12.3789 148.384 10.8783C148.478 10.735 148.56 10.593 148.634 10.4535C148.648 10.4636 148.663 10.4749 148.679 10.4862C151.975 12.8627 155.2 13.3667 158.406 13.3667C159.797 13.3667 161.183 13.2724 162.57 13.1945C162.488 13.5992 162.393 13.9725 162.314 14.2703C161.472 17.4173 160.392 20.4662 159.185 23.4913C157.526 27.6437 154.552 30.9427 152.464 34.8714C151.999 35.7461 151.603 36.891 150.99 37.7444Z" fill="#DA932A"/>
<path d="M179.882 80.9671L165.217 90.4487L167.646 94.739L194.18 80.0338C194.18 80.0338 198.538 71.4347 195.12 71.0366C191.703 70.6372 179.882 80.9671 179.882 80.9671Z" fill="#414042"/>
<path d="M159.648 89.7749C160.358 89.8946 161.185 91.082 161.642 91.6627C161.995 92.1129 162.237 92.587 162.466 93.1285C162.827 93.9832 163.116 94.7161 163.069 95.624C163.013 96.7027 162.866 97.4128 162.025 98.1272C161.249 98.784 159.565 99.6441 158.509 99.4158C157.464 99.1885 157.419 98.2664 158.085 97.6314C158.658 97.0844 158.963 97.1214 159.122 96.2765C159.442 94.5812 157.57 94.7889 157.432 93.3568C157.38 92.8099 156.73 92.6479 156.923 92.1216C157.271 91.1733 158.701 90.1588 159.648 89.7749Z" fill="#FFCCB8"/>
<path d="M189.538 49.5948L188.698 54.3185C188.698 54.3185 186.278 58.2742 186.946 59.1714C187.614 60.0672 189.006 59.9851 189.006 59.9851C189.006 59.9851 188.564 64.2273 189.984 65.2025C191.405 66.179 194.776 65.7068 194.776 65.7068L194.645 69.6061C194.645 69.6061 201.377 67.4513 201.4 67.2281C201.422 67.0048 200.717 62.5003 201.744 60.6132C202.772 58.7262 205.002 51.2922 204.299 48.738C203.597 46.1838 195.766 42.9558 194.517 43.6511C193.268 44.3479 189.461 45.6767 189.538 49.5948Z" fill="#EFA48E"/>
<path d="M162.108 158.992C160.058 159.748 158.43 159.772 157.264 159.621C155.377 159.375 153.887 158.563 152.853 159.459C152.711 159.58 152.186 160.073 152.165 160.739C152.091 163.066 158.241 165.447 162.423 165.941L166.253 166.343L167.907 161.104L162.108 158.992Z" fill="#3C2415"/>
<path d="M200.141 164.455C200.141 164.455 197.193 168.18 196.211 168.435C195.227 168.69 192.634 168.563 194.021 170.453C195.408 172.343 206.522 168.971 207.147 167.271C207.772 165.572 205.645 164.065 205.291 162.413L200.141 164.455Z" fill="#3C2415"/>
<path d="M162.345 158.741C162.389 158.995 162.676 160.476 164.003 161.379C165.365 162.308 166.772 161.913 166.999 161.845C171.521 157.137 174.525 152.814 176.429 149.753C180.163 143.744 181.606 139.44 187.145 130.385C188.662 127.904 189.965 125.918 190.816 124.65C190.533 129.585 190.633 136.577 192.421 144.615C194.381 153.419 197.617 160.11 200.141 164.455C202.057 163.787 203.232 163.057 205.146 162.39C204.435 158.841 203.447 153.594 202.47 147.142C201.722 142.201 201.347 139.731 201.338 138.32C201.279 130.125 204.338 127.277 205.34 118.105C205.74 114.445 205.647 111.28 205.439 108.86C198.553 107.678 191.665 106.495 184.778 105.313C177.301 123.122 169.822 140.931 162.345 158.741Z" fill="#231F20"/>
<path d="M162.344 158.741L162.308 158.748C162.355 159.005 162.641 160.496 163.983 161.41C164.695 161.896 165.421 162.023 165.985 162.023C166.511 162.023 166.899 161.913 167.009 161.88L167.018 161.877L167.025 161.87C171.549 157.16 174.556 152.835 176.46 149.773C180.196 143.759 181.638 139.457 187.175 130.404C188.693 127.924 189.997 125.939 190.846 124.671L190.815 124.65L190.778 124.648C190.706 125.915 190.659 127.317 190.659 128.837C190.659 133.244 191.056 138.644 192.386 144.624C194.347 153.432 197.584 160.125 200.11 164.474L200.125 164.5L200.154 164.49C202.073 163.821 203.248 163.091 205.158 162.424L205.189 162.414L205.183 162.383C204.472 158.835 203.483 153.588 202.506 147.138C201.758 142.196 201.384 139.725 201.375 138.32C201.373 138.242 201.373 138.165 201.373 138.088C201.373 134.083 202.126 131.365 203.001 128.508C203.879 125.65 204.88 122.656 205.376 118.11C205.578 116.268 205.654 114.552 205.654 112.992C205.655 111.45 205.58 110.061 205.476 108.857L205.473 108.829L205.445 108.824C198.558 107.642 191.672 106.46 184.785 105.278L184.757 105.273L184.745 105.299C177.268 123.109 169.789 140.918 162.31 158.727L162.306 158.737L162.308 158.748L162.344 158.741L162.378 158.756C169.856 140.946 177.335 123.137 184.812 105.328L184.779 105.314L184.772 105.35C191.66 106.532 198.546 107.714 205.433 108.896L205.44 108.86L205.402 108.863C205.507 110.066 205.582 111.453 205.582 112.992C205.582 114.55 205.504 116.263 205.304 118.102C204.809 122.64 203.809 125.628 202.931 128.487C202.054 131.345 201.301 134.075 201.301 138.088C201.301 138.165 201.301 138.242 201.301 138.32C201.311 139.737 201.686 142.207 202.434 147.149C203.412 153.6 204.4 158.849 205.11 162.397L205.146 162.39L205.134 162.356C203.215 163.025 202.041 163.755 200.13 164.421L200.142 164.455L200.173 164.437C197.65 160.094 194.415 153.407 192.458 144.608C191.128 138.634 190.733 133.239 190.733 128.837C190.733 127.319 190.78 125.918 190.852 124.653L190.859 124.519L190.784 124.63C189.935 125.899 188.632 127.884 187.113 130.366C181.573 139.424 180.13 143.729 176.397 149.734C174.496 152.793 171.492 157.114 166.973 161.819L167 161.845L166.989 161.81C166.881 161.842 166.5 161.95 165.985 161.95C165.431 161.95 164.722 161.826 164.023 161.35C162.71 160.455 162.425 158.986 162.38 158.734L162.344 158.741L162.378 158.756L162.344 158.741Z" fill="#231F20"/>
<path d="M205.354 109.679C205.354 109.679 204.848 109.763 203.977 109.864C200.165 110.305 189.388 111.067 183.88 106.49L185.87 93.6011L193.988 70.3461C197.43 68.0894 199.646 68.1073 201.086 68.6684C210.446 72.3187 205.828 106.338 205.354 109.679Z" fill="#414042"/>
<path d="M193.725 71.5836C193.725 71.5836 185.776 93.6527 185.795 93.5925C185.815 93.5323 188.475 78.9633 191.39 72.8465C191.39 72.8465 192.952 70.4214 193.725 71.5836Z" fill="white"/>
<path d="M186.359 90.4024C186.265 90.9923 186.197 91.4626 186.164 91.6943C187.093 88.7877 188.324 85.9125 189.252 83.004C190.32 79.4514 191.388 75.8988 192.457 72.3463C192.339 72.023 192.222 71.6997 192.104 71.3751C191.54 72.5136 190.84 74.0364 190.134 75.8798C190.069 76.0523 189.851 76.6253 189.585 77.3861C187.501 83.359 186.526 89.3547 186.359 90.4024Z" fill="#BE1E2D"/>
<path d="M193.152 69.0958L193.338 70.6854L193.512 72.1738L202.115 69.229C202.678 68.8692 202.964 68.1604 202.823 67.5034C202.669 66.7826 202.03 66.2762 201.315 66.3322C198.593 67.2529 195.872 68.1737 193.152 69.0958Z" fill="white"/>
<path d="M192.105 71.3757L192.458 72.3465C192.458 72.3465 193.3 72.7636 193.513 72.173C193.725 71.5837 193.31 70.447 193.31 70.447C193.31 70.447 192.394 70.1383 192.105 71.3757Z" fill="#BE1E2D"/>
<path d="M192.774 58.1403C192.735 58.1403 192.694 58.1377 192.652 58.1326L192.472 58.1147L190.737 53.9221L190.115 53.8569L191.832 58.0469L190.491 57.9061C189.794 57.8345 189.29 57.1577 189.37 56.4003L189.641 53.8044L194.331 54.2957L194.059 56.8928C194.011 57.3662 193.744 57.7616 193.382 57.9727C193.408 57.9573 193.434 57.9407 193.457 57.9253C192.92 56.6306 192.385 55.3346 191.849 54.0385L191.226 53.9733L192.929 58.1275C193 58.1198 193.089 58.1019 193.188 58.0648C193.197 58.0622 193.204 58.0597 193.212 58.0558C193.074 58.1108 192.927 58.1403 192.774 58.1403Z" fill="#DFA495"/>
<path d="M189.979 52.9317C190.259 52.7702 190.438 52.5922 190.802 52.5499C191.25 52.4973 191.752 52.6114 192.202 52.6588C192.691 52.71 193.165 52.7792 193.649 52.8651C193.91 52.9112 194.415 52.9304 194.622 53.0521C194.529 53.1648 194.448 53.5249 194.337 53.5812C194.176 53.6619 193.796 53.5454 193.61 53.5261C193.058 53.4672 192.503 53.512 191.942 53.5274C191.275 53.5441 190.599 53.5044 189.935 53.4019C189.958 53.2609 189.914 53.1226 189.979 52.9317Z" fill="#3C2415"/>
<path d="M189.641 53.8043L189.37 56.4013C189.29 57.158 189.794 57.8351 190.491 57.907L192.652 58.1339C193.349 58.2071 193.98 57.6505 194.059 56.8938L194.33 54.2967L189.641 53.8043ZM192.601 58.6252L190.44 58.3994C189.494 58.2994 188.809 57.3824 188.917 56.3539L189.24 53.2656L194.834 53.853L194.512 56.9412C194.404 57.9685 193.547 58.7252 192.601 58.6252Z" fill="#3C2415"/>
<path d="M194.444 55.1033L198.322 54.9753L198.305 54.4609L194.427 54.5888" fill="#3C2415"/>
<path d="M188.498 54.7997L188.952 54.9297C189.107 54.9735 189.269 54.8835 189.313 54.7272C189.358 54.5708 189.268 54.4083 189.112 54.3633L188.659 54.2345C188.503 54.1894 188.341 54.2807 188.298 54.437C188.253 54.5921 188.343 54.7559 188.498 54.7997Z" fill="#3C2415"/>
<path d="M192.473 58.1145L191.833 58.0473L190.115 53.8567L190.739 53.9226L192.473 58.1145Z" fill="#E1B8B4"/>
<path d="M192.472 58.1145L191.832 58.0475L192.472 58.1145Z" fill="#465459"/>
<path d="M192.928 58.1292L191.227 53.9746L191.85 54.0396C192.385 55.3352 192.921 56.6309 193.457 57.9266C193.434 57.9419 193.41 57.9584 193.382 57.9737C193.327 58.0056 193.272 58.0336 193.213 58.0565C193.204 58.0604 193.197 58.0629 193.188 58.0654C193.09 58.1024 193.001 58.1202 192.928 58.1292Z" fill="#E1B8B4"/>
<path d="M193.212 58.0576C193.27 58.0335 193.328 58.0068 193.382 57.975C193.333 58.003 193.277 58.0322 193.212 58.0576Z" fill="#465459"/>
<path d="M188.95 61.9749L191.104 62.1639L189.048 63.1085L188.95 61.9749Z" fill="white"/>
<path d="M191.798 50.2593C191.296 48.9517 188.346 49.7232 187.425 48.789C186.94 48.2952 186.985 47.4171 187.008 46.6306C187.101 43.5968 188.765 41.0199 191.705 40.7176C194.854 40.3935 198.644 40.5699 201.525 42.0033C203.765 43.1181 206.004 44.1986 205.401 47.2652C206.743 47.4663 207.765 47.3788 208.247 48.9544C208.702 50.4494 208.376 52.6721 208.084 54.2382C207.627 56.6975 205.652 58.4838 203.992 60.117C202.616 61.4697 201.398 63.122 199.773 64.1328C199.887 62.3902 200.58 61.0348 201.342 59.5521C201.869 58.5303 202.698 56.9054 202.404 55.6279C202.169 54.6103 200.157 53.9633 199.319 54.6527C198.466 55.353 198.792 56.8138 198.207 57.6344C196.742 57.5715 197.218 56.6702 197.361 55.3078C197.439 54.5569 197.798 53.3163 197.648 52.5764C197.406 51.3795 195.944 51.0499 194.953 50.8953C193.607 50.6861 192.383 50.2621 191.798 50.2593Z" fill="#3C2415"/>
<path d="M200.372 60.0714C200.046 60.0714 199.617 59.8519 199.342 59.804C199.466 59.816 199.586 59.824 199.703 59.824C200.177 59.824 200.574 59.6936 200.85 59.1788C201.199 58.5257 201.579 57.697 201.707 56.9587C201.776 56.5597 201.908 55.8294 201.658 55.4702C201.534 55.2933 201.318 55.1909 201.071 55.1536C201.356 55.1603 201.634 55.2241 201.87 55.3412C202.592 55.6977 202.057 56.984 201.892 57.6158C201.757 58.132 201.561 58.6441 201.286 59.1017C201.13 59.3611 200.85 59.9038 200.58 60.0302C200.519 60.0594 200.449 60.0714 200.372 60.0714ZM199.342 59.804C199.313 59.8014 199.285 59.7987 199.256 59.7961C199.281 59.7961 199.312 59.7987 199.342 59.804ZM199.62 55.7575C199.762 55.3718 200.324 55.1363 200.838 55.1363C200.917 55.1363 200.997 55.1417 201.071 55.1536C201.057 55.1536 201.042 55.1536 201.027 55.1536C200.509 55.1536 199.973 55.3452 199.62 55.7575Z" fill="#C48876"/>
<path d="M199.747 59.3696C199.661 59.3696 199.573 59.3577 199.488 59.3405C199.219 59.2796 199.077 59.1405 199.113 58.8439C199.182 58.2586 199.809 58.2109 200.192 57.9818C200.332 57.8984 200.367 57.7951 200.381 57.611C200.405 57.3064 200.161 57.2972 199.929 57.1925C199.859 57.1608 199.752 57.0919 199.69 57.0045C199.524 56.7714 199.634 56.2629 199.89 55.9702C200.092 55.7398 200.396 55.6299 200.689 55.6299C200.977 55.6299 201.254 55.7359 201.411 55.9385C201.508 56.0603 201.545 56.1914 201.558 56.2788C201.625 56.7198 201.46 57.035 201.331 57.4481C201.197 57.8759 201.022 58.2983 200.813 58.6916C200.624 59.0492 200.385 59.2293 200.015 59.3339C199.928 59.3577 199.838 59.3696 199.747 59.3696Z" fill="#C48876"/>
<path d="M189.79 111.831L188.079 128.216C188.017 128.801 188.44 129.326 189.025 129.387L218.617 132.492C219.2 132.553 219.722 132.128 219.783 131.543L221.494 115.159C221.552 114.602 221.17 114.099 220.63 114C220.602 113.994 220.576 113.991 220.548 113.988L190.957 110.883C190.373 110.821 189.85 111.246 189.79 111.831Z" fill="#8B5E3C"/>
<path d="M213.041 108.759L212.61 112.894L210.239 112.645L210.454 110.578L201.277 109.614L201.062 111.682L198.484 111.411L198.916 107.276L213.041 108.759Z" fill="#603913"/>
<path d="M209.664 112.898L213.582 113.31L213.631 112.844L209.714 112.433L209.664 112.898Z" fill="#3C2415"/>
<path d="M199.741 130.511L190.736 129.566L199.74 130.511C199.741 130.511 199.741 130.511 199.741 130.511Z" fill="#1D1A1B"/>
<path d="M199.74 130.511L190.736 129.566L190.662 129.558L189.025 129.387C188.643 129.347 188.331 129.11 188.177 128.787C188.164 128.761 188.153 128.733 188.141 128.705C188.098 128.588 188.072 128.462 188.072 128.332C188.072 128.293 188.074 128.255 188.078 128.216L189.79 111.832C189.846 111.284 190.306 110.877 190.845 110.877C190.881 110.877 190.92 110.879 190.956 110.883L209.67 112.847L209.664 112.898L213.582 113.31L213.588 113.258L220.547 113.988C220.575 113.991 220.603 113.994 220.628 114C220.593 114.004 220.557 114.008 220.519 114.011C219.572 113.915 218.639 113.883 217.706 113.883C216.326 113.883 214.951 113.952 213.546 113.982C212.082 114.013 211.065 113.998 209.659 114.293C207.771 114.688 205.857 114.982 203.966 115.361C200.456 116.063 196.329 117.882 195.429 121.772C194.86 124.238 195.014 126.572 196.71 128.513C197.533 129.456 198.59 130.06 199.741 130.511" fill="#724E32"/>
<path d="M213.582 113.31L209.664 112.898L209.67 112.847L213.588 113.258L213.582 113.31Z" fill="#311E11"/>
<path d="M197.936 111.668L201.854 112.079L201.903 111.614L197.985 111.202L197.936 111.668Z" fill="#3C2415"/>
<path d="M201.907 74.5275C201.907 74.5275 213.373 87.9428 213.507 89.2546C213.64 90.5656 208.952 106.831 208.952 106.831L204.489 106.6L205.635 91.0146C205.635 91.0146 194.953 79.6381 196.011 78.1995C197.068 76.7608 198.623 72.6848 201.907 74.5275Z" fill="#58595B"/>
<path d="M204.49 106.599C204.49 106.599 202.848 109.135 204.121 110.128C205.395 111.121 208.101 111.327 208.433 111.127C208.764 110.928 208.953 106.83 208.953 106.83L204.49 106.599Z" fill="#EFA48E"/>
<path d="M157.315 93.215C157.315 93.215 157.801 90.8123 159.507 92.5214C159.615 92.6309 160.182 93.143 160.451 94.0878C160.596 94.5902 160.871 95.55 160.341 96.1695C160.028 96.5345 159.555 96.6408 159.463 96.6612C159.07 96.7503 158.745 96.6805 158.585 96.6354C158.494 96.5989 157.261 96.0729 157.034 94.7974C156.898 94.0287 157.203 93.4179 157.315 93.215Z" fill="#EFA48E"/>
<path d="M165.219 90.4487L160.965 90.8032C160.965 90.8032 162.124 92.3979 162.176 92.5034C162.229 92.6079 163.167 95.116 163.06 95.7861C162.881 96.8974 166.999 93.5925 166.999 93.5925L165.219 90.4487Z" fill="#EFA48E"/>
<defs>
<linearGradient id="paint0_linear_942_2386" x1="-8.00001" y1="172.946" x2="140.235" y2="74.5446" gradientUnits="userSpaceOnUse">
<stop stop-color="#DD9933"/>
<stop offset="1" stop-color="#FFCE2C" stop-opacity="0.73"/>
</linearGradient>
<linearGradient id="paint1_linear_942_2386" x1="150" y1="188.744" x2="151.007" y2="94.2406" gradientUnits="userSpaceOnUse">
<stop stop-color="#DD9933"/>
<stop offset="1" stop-color="#FFD03F"/>
</linearGradient>
</defs>
</svg>
