<svg width="2695" height="175" viewBox="0 0 2695 175" fill="none" xmlns="http://www.w3.org/2000/svg">
<mask id="mask0_939_1458" style="mask-type:alpha" maskUnits="userSpaceOnUse" x="0" y="0" width="2695" height="175">
<rect width="2695" height="175" fill="#D9D9D9"/>
</mask>
<g mask="url(#mask0_939_1458)">
<path d="M0 59.6801V255.971H2695V0L2640.89 13.7265L2612.36 20.9582C2612.36 20.9582 2599.1 26.4983 2529.35 29.6819C2527.31 29.7738 2525.22 29.864 2523.08 29.9541C2447.85 33.0824 2442.31 33.2572 2405.82 32.5857C2404.32 32.5581 2402.98 32.5305 2401.77 32.5057L2393.95 33.5074L2384.08 33.363V33.3602C2377.65 33.8523 2334.16 46.0958 2315 47C2229.5 55 2184.92 37.3854 2184.92 37.3854C2184.92 37.3854 2116.82 31.8812 2104.46 32.6777C2092.11 33.4752 2047.82 30.346 2040.79 30.346C2033.77 30.346 1939.52 12.4646 1939.52 12.4646C1939.52 12.4646 1925.98 9.70325 1912.13 8.29408C1902.24 7.28687 1892.2 6.96953 1886.83 8.83401C1873.92 13.309 1804.92 28.0004 1804.92 28.0004C1804.92 28.0004 1771.54 43.1683 1749.75 45.5571C1727.94 47.9459 1706.84 56.1599 1684.36 61.6347C1664.72 66.4169 1642.19 68.0413 1630.23 74.2915C1628.48 75.2031 1626.97 76.2103 1625.72 77.3398C1615.87 86.2336 1593.87 94.4026 1593.87 94.4026L1488.56 102.706L1368.72 110.153L1273.07 120.695C1273.07 120.695 1188.01 123.434 1185.9 123.434C1183.79 123.434 1126.27 122.567 1126.27 122.567L1094.21 111.384L1074.82 111.309L1065.68 108.963L1031.98 104.844C1031.98 104.844 1012.6 98.2051 1011.19 98.2051C1009.79 98.2051 995.371 101.139 995.371 101.139L974.983 109.547C974.983 109.547 973.776 109.98 971.885 110.655L971.88 110.657C965.564 112.908 951.631 117.862 949.597 118.436C946.952 119.181 924.417 134.441 920.5 135C916.588 135.563 894.209 130.233 894.209 130.233C894.209 130.233 867.525 132.282 866.542 132.022C865.558 131.76 846.939 124.436 846.939 124.436L823.642 118.561L786.922 116.002L763.978 110.499L763.956 110.495L763.651 110.422L762.887 110.178L762.766 110.14H762.761L741.925 103.486L716.5 84L652.99 107.396L636.326 112.239L591.827 117.176C591.827 117.176 565.814 121.674 563.354 122.064C560.892 122.457 470.552 125.838 470.552 125.838L357.987 120.96L322.501 108.376H322.492L295.144 107.984L252.257 105.831L251.219 105.627L182.977 92.1683L158.282 86.0735L126.099 77.2028L101.453 75.7154L94.4687 68.7164L33.4451 59.1107L0 59.6801Z" fill="white"/>
<path d="M0 143.1V255.971H2695V162.444L2611.79 163.9L2549.04 158.45C2549.04 158.45 2491.42 154.37 2434.59 150.147C2378.2 145.956 2317.35 140.726 2316.39 140.646V140.643L2245.73 119.523C2245.73 119.523 2137.58 121.582 2131.84 124.216C2126.32 126.747 2029.2 129.926 2012.31 131.385C2011.63 131.443 2011.08 131.497 2010.68 131.55C1999.99 132.922 1882.23 152.088 1882.23 152.088C1882.23 152.088 1770.12 155.309 1762.74 156.483C1755.35 157.658 1647.57 158.857 1647.57 158.857L1570.14 145.581L1503.66 131.255L1381.51 112.888L1357.79 101.333L1277.64 94.4945L1195.39 89.602L1125.79 114.827L1024.55 138.297C1024.55 138.297 881.129 146.511 848.436 147.096C815.745 147.682 753.527 148.27 719.78 148.27C686.035 148.27 637.43 150.617 637.43 150.617L471.957 135.951L406.986 114.722L325.098 124.261L253.662 126.75C253.662 126.75 199.776 133.612 182.078 135.363C164.381 137.115 101.758 141.145 101.758 141.145L98.058 141.215H98.053L0 143.1Z" fill="white"/>
<path d="M2646.47 42.8604L2594.1 33.0825L2529.35 29.6818C2599.1 26.4978 2612.38 20.958 2612.38 20.958L2640.89 13.7265L2634.86 24.6741L2646.47 42.8604Z" fill="#D3D8DF"/>
<path d="M2020.76 43.4478L1912.13 8.29396C1925.98 9.70339 1939.53 12.4648 1939.53 12.4648C1939.53 12.4648 2033.78 30.346 2040.8 30.346C2047.03 30.346 2082.58 32.8077 2099.15 32.8077C2101.27 32.8077 2103.08 32.7674 2104.47 32.6779C2105.3 32.6227 2106.39 32.5981 2107.69 32.5981C2125.7 32.5981 2184.92 37.3857 2184.92 37.3857L2149.78 42.4709L2110.76 39.9272C2110.76 39.9272 2071.21 38.9271 2064.31 38.9271C2063.73 38.9271 2063.39 38.9346 2063.29 38.9503C2062.25 39.1449 2020.76 43.4478 2020.76 43.4478Z" fill="#D3D8DF"/>
<path d="M1676.28 111.309L1593.88 94.4016C1593.88 94.4016 1615.87 86.2328 1625.72 77.3397C1626.97 76.2097 1628.49 75.2028 1630.23 74.2908L1676.28 111.309Z" fill="#D3D8DF"/>
<path d="M1074.64 115.22L1062.52 110.625L1031.99 104.845L1065.68 108.963L1074.81 111.309L1094.21 111.384L1074.64 115.22Z" fill="#D3D8DF"/>
<path d="M971.884 110.655C973.776 109.98 974.986 109.548 974.986 109.548L995.371 101.139C995.371 101.139 1009.78 98.2053 1011.19 98.2053L995.725 103.683L989.744 109.158L971.884 110.655" fill="#D3D8DF"/>
<path d="M866.541 132.022L828.222 123.434L800.982 121.477L763.981 110.5L786.92 116.002L823.639 118.561L846.94 124.436C846.94 124.436 865.558 131.76 866.541 132.022" fill="#D3D8DF"/>
<path d="M673.894 120.792C672.964 120.792 636.326 112.239 636.326 112.239L652.99 107.396C652.99 107.396 674.433 120.695 673.907 120.792C673.903 120.792 673.899 120.792 673.894 120.792" fill="#EEF3F9"/>
<path d="M292.331 110.82L263.154 110.233L251.219 105.627L252.257 105.832L295.143 107.984L322.493 108.376C321.334 108.376 292.331 110.82 292.331 110.82Z" fill="#EEF3F9"/>
<path d="M101.278 98.7925L96.0049 80.5083L101.453 75.7155L126.099 77.2023L104.79 84.419L101.278 98.7925" fill="#EEF3F9"/>
<path d="M56.1051 69.1636L41.6965 65.6452L33.4453 59.1107L94.4689 68.7163L56.1051 69.1636Z" fill="#EEF3F9"/>
<path d="M2432.39 172.786L2353.83 156.483L2316.4 140.646C2317.36 140.726 2378.2 145.956 2434.6 150.146C2491.42 154.37 2549.04 158.45 2549.04 158.45L2611.78 163.9L2432.39 172.786" fill="#EEF3F9"/>
<path d="M1998.45 167.044L1970.5 154.138L1882.23 152.088C1882.23 152.088 1999.98 132.922 2010.68 131.551C2011.09 131.498 2011.63 131.443 2012.3 131.386L1998.45 167.044Z" fill="#EEF3F9"/>
<path d="M1606.14 161.471L1524.41 150.911L1419.48 147.096L1381.51 112.889L1503.66 131.255L1570.14 145.581L1647.58 158.857L1606.14 161.471Z" fill="#EEF3F9"/>
<path d="M1138.02 155.926C1134.38 155.926 1024.55 138.297 1024.55 138.297L1125.79 114.828L1095.91 133.017C1095.91 133.017 1136.51 155.017 1138.09 155.896C1138.13 155.917 1138.11 155.926 1138.02 155.926Z" fill="#EEF3F9"/>
<path d="M537.338 164.697L467.74 150.616L406.986 114.723L471.957 135.95L637.43 150.616L537.338 164.697Z" fill="#D3D8DF"/>
</g>
</svg>
