<svg width="1440" height="230" viewBox="0 0 1440 230" fill="none" xmlns="http://www.w3.org/2000/svg">
<path d="M0 158H303.5L1440 190.5V230H0V158Z" fill="#DD9933"/>
<path d="M330.261 188.377C330.263 188.225 330.267 188.074 330.267 187.923C330.267 104.615 258.561 37.0797 170.105 37.0797C81.6509 37.0797 9.94418 104.615 9.94418 187.923C9.94418 188.074 9.94895 188.225 9.95103 188.377H330.261Z" fill="url(#paint0_linear_933_29)"/>
<path d="M362 202.898V127.53C362 127.338 361.836 127.181 361.636 127.181H349.652V78.7213C349.652 78.3924 349.445 78.1239 349.197 78.1239H342.088C342.288 78.1239 342.454 77.966 342.454 77.7733V71.3827C342.454 71.19 342.288 71.0321 342.088 71.0321H335.276C335.412 71.0321 335.523 70.9497 335.523 70.846V67.3996C335.523 67.2957 335.41 67.2135 335.276 67.2135H310.183C310.05 67.2135 309.943 67.2957 309.943 67.3996V70.846C309.943 70.9497 310.05 71.0321 310.183 71.0321H304.171C303.969 71.0321 303.807 71.19 303.807 71.3827V77.7733C303.807 77.966 303.969 78.1239 304.171 78.1239H296.64C296.389 78.1239 296.187 78.3924 296.187 78.7213V175.991C288.558 170.563 279.613 166.438 269.766 164.456V119.41C269.766 119.217 269.688 119.061 269.592 119.061H256.049C255.952 119.061 255.876 119.217 255.876 119.41V163.158C240.226 163.351 226.174 168.989 215.137 177.341V117.202C215.137 116.962 214.935 116.764 214.683 116.764H211.501C211.7 116.764 211.861 116.611 211.861 116.418V110.011C211.861 109.818 211.7 109.66 211.501 109.66H203.205C203.388 109.66 203.535 109.309 203.535 108.876V100.382L179.853 89.7961C179.671 89.7961 179.523 90.1474 179.523 90.5796V108.876C179.523 109.309 179.671 109.66 179.853 109.66H176.038C175.835 109.66 175.676 109.818 175.676 110.011V116.418C175.676 116.611 175.835 116.764 176.038 116.764H162.128C161.876 116.764 161.677 116.962 161.677 117.202V187.136H158.821V181.494C158.821 181.302 158.657 181.145 158.456 181.145H146.079L141.278 68.3304C141.278 68.2353 142.562 65.2036 143.734 62.4207H148.251C148.313 62.4207 149.661 62.1664 149.717 60.9356C149.743 60.3882 149.47 60.0175 149.153 59.7668C151.969 58.5715 154.072 56.9474 155.116 55.0865H156.28C156.39 55.0865 158.72 54.6217 158.818 52.3893C158.917 50.1567 156.42 49.4842 156.28 49.4842H154.929C153.88 47.8312 151.978 46.3807 149.493 45.2714C149.914 45.1066 150.52 44.7389 150.557 43.912C150.615 42.6812 149.172 42.3059 149.09 42.3059L139.647 42.2149L139.331 26.0701H140.045C140.06 26.0701 140.375 26.0135 140.388 25.7325C140.394 25.6075 140.327 25.5213 140.253 25.464C140.91 25.1913 141.4 24.8235 141.643 24.3991H141.919C141.945 24.3991 142.488 24.2892 142.511 23.7799C142.533 23.2705 141.952 23.1175 141.919 23.1175H141.603C141.358 22.7404 140.914 22.4095 140.334 22.1563C140.432 22.1187 140.573 22.0377 140.582 21.8489C140.595 21.5682 140.258 21.4809 140.239 21.4809H138.537L138.415 20.7753L137.548 0.624827L136.671 21.4809H135.104C135.089 21.4809 134.833 21.5467 134.843 21.862C134.846 21.9777 134.891 22.0468 134.942 22.0959C134.29 22.3555 133.793 22.709 133.528 23.1175H133.041C133.013 23.1175 132.568 23.2383 132.585 23.8104C132.599 24.307 133.01 24.3991 133.041 24.3991H133.483C133.715 24.8042 134.176 25.1564 134.788 25.4251C134.716 25.478 134.643 25.5748 134.648 25.7499C134.656 26.0237 134.892 26.0701 134.91 26.0701H135.795L135.285 42.3406L127.089 42.3059C127.02 42.3059 125.919 42.5993 125.96 43.9815C125.975 44.4879 126.173 44.7893 126.393 45.0031C123.599 46.1418 121.464 47.6946 120.328 49.4842H118.228C118.11 49.4842 116.202 50.0119 116.273 52.519C116.334 54.6959 118.096 55.0865 118.228 55.0865H120.143C121.138 56.8617 123.105 58.416 125.729 59.5935C125.42 59.8254 125.097 60.2385 125.12 61.0049C125.155 62.205 126.172 62.4207 126.249 62.4207H130.986C132.138 65.0562 133.424 67.9782 133.424 68.0705L128.527 181.145H99.4991C99.1411 163.393 98.7887 146.34 98.756 146.34L75.4435 133.675C75.3751 133.675 75.3195 133.853 75.3195 134.072V187.136H72.0758L71.4377 106.243L23.9746 89.0954L23.9282 150.414H0.270596C0.1211 150.414 0 150.571 0 150.764V217.618L362 202.898Z" fill="#DD9933"/>
<path d="M119.05 52.8295H122.683C122.884 52.8295 123.048 52.9859 123.048 53.1785V53.8808C123.048 54.0748 122.884 54.2312 122.683 54.2312H119.05C118.848 54.2312 118.685 54.0748 118.685 53.8808V53.1785C118.685 52.9859 118.848 52.8295 119.05 52.8295Z" fill="#DEB976"/>
<path d="M126.806 52.8295H148.283V54.2312H126.806V52.8295Z" fill="#DEB976"/>
<path d="M152.486 52.8295H156.119C156.322 52.8295 156.484 52.9859 156.484 53.1785V53.8808C156.484 54.0748 156.322 54.2312 156.119 54.2312H152.486C152.285 54.2312 152.121 54.0748 152.121 53.8808V53.1785C152.121 52.9859 152.285 52.8295 152.486 52.8295Z" fill="#DEB976"/>
<path d="M29.8721 110.94H38.9806C39.182 110.94 39.3455 111.019 39.3455 111.115V112.879C39.3455 112.975 39.182 113.054 38.9806 113.054H29.8721C29.6705 113.054 29.5072 112.975 29.5072 112.879V111.115C29.5072 111.019 29.6705 110.94 29.8721 110.94Z" fill="#DEB976"/>
<path d="M41.5073 110.94H46.0615C46.1623 110.94 46.244 111.019 46.244 111.115V112.879C46.244 112.975 46.1623 113.054 46.0615 113.054H41.5073C41.4065 113.054 41.3248 112.975 41.3248 112.879V111.115C41.3248 111.019 41.4065 110.94 41.5073 110.94Z" fill="#DEB976"/>
<path d="M47.5311 110.94H50.2527C50.3128 110.94 50.3616 111.019 50.3616 111.115V112.879C50.3616 112.975 50.3128 113.054 50.2527 113.054H47.5311C47.471 113.054 47.4222 112.975 47.4222 112.879V111.115C47.4222 111.019 47.471 110.94 47.5311 110.94Z" fill="#DEB976"/>
<path d="M40.2994 116.179H49.4077C49.6093 116.179 49.7726 116.257 49.7726 116.354V118.118C49.7726 118.214 49.6093 118.292 49.4077 118.292H40.2994C40.0978 118.292 39.9345 118.214 39.9345 118.118V116.354C39.9345 116.257 40.0978 116.179 40.2994 116.179Z" fill="#DEB976"/>
<path d="M51.9344 116.179H56.4885C56.5893 116.179 56.671 116.257 56.671 116.354V118.118C56.671 118.214 56.5893 118.292 56.4885 118.292H51.9344C51.8336 118.292 51.752 118.214 51.752 118.118V116.354C51.752 116.257 51.8336 116.179 51.9344 116.179Z" fill="#DEB976"/>
<path d="M57.9581 116.179H60.6796C60.7399 116.179 60.7886 116.257 60.7886 116.354V118.118C60.7886 118.214 60.7399 118.292 60.6796 118.292H57.9581C57.8979 118.292 57.8491 118.214 57.8491 118.118V116.354C57.8491 116.257 57.8979 116.179 57.9581 116.179Z" fill="#DEB976"/>
<path d="M29.8721 123.575H38.9806C39.182 123.575 39.3455 123.653 39.3455 123.75V125.514C39.3455 125.61 39.182 125.688 38.9806 125.688H29.8721C29.6705 125.688 29.5072 125.61 29.5072 125.514V123.75C29.5072 123.653 29.6705 123.575 29.8721 123.575Z" fill="#DEB976"/>
<path d="M41.5073 123.575H46.0615C46.1623 123.575 46.244 123.653 46.244 123.75V125.514C46.244 125.61 46.1623 125.688 46.0615 125.688H41.5073C41.4065 125.688 41.3248 125.61 41.3248 125.514V123.75C41.3248 123.653 41.4065 123.575 41.5073 123.575Z" fill="#DEB976"/>
<path d="M47.5311 123.575H50.2527C50.3128 123.575 50.3616 123.653 50.3616 123.75V125.514C50.3616 125.61 50.3128 125.688 50.2527 125.688H47.5311C47.471 125.688 47.4222 125.61 47.4222 125.514V123.75C47.4222 123.653 47.471 123.575 47.5311 123.575Z" fill="#DEB976"/>
<path d="M34.6029 132.028H43.7114C43.9129 132.028 44.0763 132.106 44.0763 132.202V133.966C44.0763 134.063 43.9129 134.141 43.7114 134.141H34.6029C34.4013 134.141 34.238 134.063 34.238 133.966V132.202C34.238 132.106 34.4013 132.028 34.6029 132.028Z" fill="#DEB976"/>
<path d="M46.2381 132.028H50.7924C50.8932 132.028 50.9749 132.106 50.9749 132.202V133.966C50.9749 134.063 50.8932 134.141 50.7924 134.141H46.2381C46.1374 134.141 46.0557 134.063 46.0557 133.966V132.202C46.0557 132.106 46.1374 132.028 46.2381 132.028Z" fill="#DEB976"/>
<path d="M52.2619 132.028H54.9834C55.0437 132.028 55.0925 132.106 55.0925 132.202V133.966C55.0925 134.063 55.0437 134.141 54.9834 134.141H52.2619C52.2017 134.141 52.1529 134.063 52.1529 133.966V132.202C52.1529 132.106 52.2017 132.028 52.2619 132.028Z" fill="#DEB976"/>
<path d="M40.2994 139.424H49.4077C49.6093 139.424 49.7726 139.502 49.7726 139.598V141.363C49.7726 141.459 49.6093 141.538 49.4077 141.538H40.2994C40.0978 141.538 39.9345 141.459 39.9345 141.363V139.598C39.9345 139.502 40.0978 139.424 40.2994 139.424" fill="#DEB976"/>
<path d="M51.9344 139.424H56.4885C56.5893 139.424 56.671 139.502 56.671 139.598V141.363C56.671 141.459 56.5893 141.538 56.4885 141.538H51.9344C51.8336 141.538 51.752 141.459 51.752 141.363V139.598C51.752 139.502 51.8336 139.424 51.9344 139.424" fill="#DEB976"/>
<path d="M57.9581 139.424H60.6796C60.7399 139.424 60.7886 139.502 60.7886 139.598V141.363C60.7886 141.459 60.7399 141.538 60.6796 141.538H57.9581C57.8979 141.538 57.8491 141.459 57.8491 141.363V139.598C57.8491 139.502 57.8979 139.424 57.9581 139.424" fill="#DEB976"/>
<path d="M29.8721 145.456H38.9806C39.182 145.456 39.3455 145.535 39.3455 145.632V147.395C39.3455 147.492 39.182 147.57 38.9806 147.57H29.8721C29.6705 147.57 29.5072 147.492 29.5072 147.395V145.632C29.5072 145.535 29.6705 145.456 29.8721 145.456Z" fill="#DEB976"/>
<path d="M41.5073 145.456H46.0615C46.1623 145.456 46.244 145.535 46.244 145.632V147.395C46.244 147.492 46.1623 147.57 46.0615 147.57H41.5073C41.4065 147.57 41.3248 147.492 41.3248 147.395V145.632C41.3248 145.535 41.4065 145.456 41.5073 145.456Z" fill="#DEB976"/>
<path d="M47.5311 145.456H50.2527C50.3128 145.456 50.3616 145.535 50.3616 145.632V147.395C50.3616 147.492 50.3128 147.57 50.2527 147.57H47.5311C47.471 147.57 47.4222 147.492 47.4222 147.395V145.632C47.4222 145.535 47.471 145.456 47.5311 145.456Z" fill="#DEB976"/>
<path d="M3.82927 162.449H64.5222C64.7238 162.449 64.8871 162.605 64.8871 162.798V163.426C64.8871 163.619 64.7238 163.775 64.5222 163.775H3.82927C3.62768 163.775 3.46439 163.619 3.46439 163.426V162.798C3.46439 162.605 3.62768 162.449 3.82927 162.449Z" fill="#DEB976"/>
<path d="M3.82927 165.102H64.5222C64.7238 165.102 64.8871 165.258 64.8871 165.451V166.077C64.8871 166.27 64.7238 166.426 64.5222 166.426H3.82927C3.62768 166.426 3.46439 166.27 3.46439 166.077V165.451C3.46439 165.258 3.62768 165.102 3.82927 165.102Z" fill="#DEB976"/>
<path d="M3.82927 168.416H64.5222C64.7238 168.416 64.8871 168.574 64.8871 168.767V169.394C64.8871 169.588 64.7238 169.742 64.5222 169.742H3.82927C3.62768 169.742 3.46439 169.588 3.46439 169.394V168.767C3.46439 168.574 3.62768 168.416 3.82927 168.416Z" fill="#DEB976"/>
<path d="M3.7136 175.711H45.1756C45.3133 175.711 45.425 175.868 45.425 176.06V176.689C45.425 176.88 45.3133 177.038 45.1756 177.038H3.7136C3.57593 177.038 3.46439 176.88 3.46439 176.689V176.06C3.46439 175.868 3.57593 175.711 3.7136 175.711Z" fill="#DEB976"/>
<path d="M3.63186 179.027H31.4974C31.5899 179.027 31.6649 179.184 31.6649 179.376V180.003C31.6649 180.197 31.5899 180.352 31.4974 180.352H3.63186C3.53939 180.352 3.46439 180.197 3.46439 180.003V179.376C3.46439 179.184 3.53939 179.027 3.63186 179.027Z" fill="#DEB976"/>
<path d="M3.82927 183.005H64.5222C64.7238 183.005 64.8871 183.163 64.8871 183.355V183.982C64.8871 184.175 64.7238 184.331 64.5222 184.331H3.82927C3.62768 184.331 3.46439 184.175 3.46439 183.982V183.355C3.46439 183.163 3.62768 183.005 3.82927 183.005Z" fill="#DEB976"/>
<path d="M77.9162 148.412H79.563C79.7645 148.412 79.9279 148.568 79.9279 148.761V149.061C79.9279 149.253 79.7645 149.41 79.563 149.41H77.9162C77.7148 149.41 77.5513 149.253 77.5513 149.061V148.761C77.5513 148.568 77.7148 148.412 77.9162 148.412Z" fill="#DEB976"/>
<path d="M81.4811 148.412H83.1278C83.3293 148.412 83.4927 148.568 83.4927 148.761V149.061C83.4927 149.253 83.3293 149.41 83.1278 149.41H81.4811C81.2795 149.41 81.1162 149.253 81.1162 149.061V148.761C81.1162 148.568 81.2795 148.412 81.4811 148.412Z" fill="#DEB976"/>
<path d="M84.6125 148.412H86.2592C86.4607 148.412 86.6241 148.568 86.6241 148.761V149.061C86.6241 149.253 86.4607 149.41 86.2592 149.41H84.6125C84.411 149.41 84.2476 149.253 84.2476 149.061V148.761C84.2476 148.568 84.411 148.412 84.6125 148.412Z" fill="#DEB976"/>
<path d="M88.0885 148.412H89.7352C89.9368 148.412 90.1001 148.568 90.1001 148.761V149.061C90.1001 149.253 89.9368 149.41 89.7352 149.41H88.0885C87.887 149.41 87.7236 149.253 87.7236 149.061V148.761C87.7236 148.568 87.887 148.412 88.0885 148.412Z" fill="#DEB976"/>
<path d="M80.4445 150.406H82.0912C82.2927 150.406 82.4561 150.562 82.4561 150.755V151.055C82.4561 151.247 82.2927 151.404 82.0912 151.404H80.4445C80.2429 151.404 80.0796 151.247 80.0796 151.055V150.755C80.0796 150.562 80.2429 150.406 80.4445 150.406Z" fill="#DEB976"/>
<path d="M84.0096 150.406H85.6562C85.8578 150.406 86.0211 150.562 86.0211 150.755V151.055C86.0211 151.247 85.8578 151.404 85.6562 151.404H84.0096C83.808 151.404 83.6447 151.247 83.6447 151.055V150.755C83.6447 150.562 83.808 150.406 84.0096 150.406Z" fill="#DEB976"/>
<path d="M87.1408 150.406H88.7876C88.989 150.406 89.1525 150.562 89.1525 150.755V151.055C89.1525 151.247 88.989 151.404 88.7876 151.404H87.1408C86.9394 151.404 86.7759 151.247 86.7759 151.055V150.755C86.7759 150.562 86.9394 150.406 87.1408 150.406Z" fill="#DEB976"/>
<path d="M90.6168 150.406H92.2635C92.4651 150.406 92.6284 150.562 92.6284 150.755V151.055C92.6284 151.247 92.4651 151.404 92.2635 151.404H90.6168C90.4153 151.404 90.252 151.247 90.252 151.055V150.755C90.252 150.562 90.4153 150.406 90.6168 150.406Z" fill="#DEB976"/>
<path d="M78.4308 152.4H80.0774C80.279 152.4 80.4423 152.556 80.4423 152.749V153.048C80.4423 153.241 80.279 153.397 80.0774 153.397H78.4308C78.2292 153.397 78.0659 153.241 78.0659 153.048V152.749C78.0659 152.556 78.2292 152.4 78.4308 152.4Z" fill="#DEB976"/>
<path d="M81.9953 152.4H83.642C83.8436 152.4 84.0069 152.556 84.0069 152.749V153.048C84.0069 153.241 83.8436 153.397 83.642 153.397H81.9953C81.7938 153.397 81.6304 153.241 81.6304 153.048V152.749C81.6304 152.556 81.7938 152.4 81.9953 152.4Z" fill="#DEB976"/>
<path d="M85.1265 152.4H86.7734C86.9748 152.4 87.1383 152.556 87.1383 152.749V153.048C87.1383 153.241 86.9748 153.397 86.7734 153.397H85.1265C84.925 153.397 84.7617 153.241 84.7617 153.048V152.749C84.7617 152.556 84.925 152.4 85.1265 152.4Z" fill="#DEB976"/>
<path d="M88.6031 152.4H90.2497C90.4513 152.4 90.6146 152.556 90.6146 152.749V153.048C90.6146 153.241 90.4513 153.397 90.2497 153.397H88.6031C88.4015 153.397 88.2382 153.241 88.2382 153.048V152.749C88.2382 152.556 88.4015 152.4 88.6031 152.4Z" fill="#DEB976"/>
<path d="M80.6875 154.666H82.3342C82.5358 154.666 82.6991 154.822 82.6991 155.015V155.313C82.6991 155.506 82.5358 155.662 82.3342 155.662H80.6875C80.486 155.662 80.3226 155.506 80.3226 155.313V155.015C80.3226 154.822 80.486 154.666 80.6875 154.666Z" fill="#DEB976"/>
<path d="M84.2524 154.666H85.8992C86.1007 154.666 86.2641 154.822 86.2641 155.015V155.313C86.2641 155.506 86.1007 155.662 85.8992 155.662H84.2524C84.0509 155.662 83.8875 155.506 83.8875 155.313V155.015C83.8875 154.822 84.0509 154.666 84.2524 154.666Z" fill="#DEB976"/>
<path d="M87.3838 154.666H89.0306C89.232 154.666 89.3955 154.822 89.3955 155.015V155.313C89.3955 155.506 89.232 155.662 89.0306 155.662H87.3838C87.1822 155.662 87.0189 155.506 87.0189 155.313V155.015C87.0189 154.822 87.1822 154.666 87.3838 154.666Z" fill="#DEB976"/>
<path d="M90.8596 154.666H92.5065C92.708 154.666 92.8714 154.822 92.8714 155.015V155.313C92.8714 155.506 92.708 155.662 92.5065 155.662H90.8596C90.6582 155.662 90.4948 155.506 90.4948 155.313V155.015C90.4948 154.822 90.6582 154.666 90.8596 154.666Z" fill="#DEB976"/>
<path d="M83.2158 156.66H84.8626C85.0642 156.66 85.2275 156.816 85.2275 157.009V157.307C85.2275 157.5 85.0642 157.656 84.8626 157.656H83.2158C83.0144 157.656 82.8509 157.5 82.8509 157.307V157.009C82.8509 156.816 83.0144 156.66 83.2158 156.66Z" fill="#DEB976"/>
<path d="M86.7805 156.66H88.4274C88.6288 156.66 88.7923 156.816 88.7923 157.009V157.307C88.7923 157.5 88.6288 157.656 88.4274 157.656H86.7805C86.579 157.656 86.4156 157.5 86.4156 157.307V157.009C86.4156 156.816 86.579 156.66 86.7805 156.66Z" fill="#DEB976"/>
<path d="M89.9118 156.66H91.5585C91.7601 156.66 91.9234 156.816 91.9234 157.009V157.307C91.9234 157.5 91.7601 157.656 91.5585 157.656H89.9118C89.7103 157.656 89.5469 157.5 89.5469 157.307V157.009C89.5469 156.816 89.7103 156.66 89.9118 156.66Z" fill="#DEB976"/>
<path d="M93.3881 156.66H95.0349C95.2363 156.66 95.3998 156.816 95.3998 157.009V157.307C95.3998 157.5 95.2363 157.656 95.0349 157.656H93.3881C93.1865 157.656 93.0232 157.5 93.0232 157.307V157.009C93.0232 156.816 93.1865 156.66 93.3881 156.66Z" fill="#DEB976"/>
<path d="M81.2019 158.654H82.8487C83.0503 158.654 83.2136 158.809 83.2136 159.003V159.301C83.2136 159.493 83.0503 159.65 82.8487 159.65H81.2019C81.0005 159.65 80.837 159.493 80.837 159.301V159.003C80.837 158.809 81.0005 158.654 81.2019 158.654Z" fill="#DEB976"/>
<path d="M84.7666 158.654H86.4134C86.6148 158.654 86.7783 158.809 86.7783 159.003V159.301C86.7783 159.493 86.6148 159.65 86.4134 159.65H84.7666C84.565 159.65 84.4017 159.493 84.4017 159.301V159.003C84.4017 158.809 84.565 158.654 84.7666 158.654Z" fill="#DEB976"/>
<path d="M87.898 158.654H89.5446C89.7462 158.654 89.9095 158.809 89.9095 159.003V159.301C89.9095 159.493 89.7462 159.65 89.5446 159.65H87.898C87.6964 159.65 87.5331 159.493 87.5331 159.301V159.003C87.5331 158.809 87.6964 158.654 87.898 158.654Z" fill="#DEB976"/>
<path d="M91.3743 158.654H93.021C93.2225 158.654 93.3859 158.809 93.3859 159.003V159.301C93.3859 159.493 93.2225 159.65 93.021 159.65H91.3743C91.1727 159.65 91.0094 159.493 91.0094 159.301V159.003C91.0094 158.809 91.1727 158.654 91.3743 158.654Z" fill="#DEB976"/>
<path d="M77.9162 166.558H79.563C79.7645 166.558 79.9279 166.715 79.9279 166.907V167.207C79.9279 167.4 79.7645 167.556 79.563 167.556H77.9162C77.7148 167.556 77.5513 167.4 77.5513 167.207V166.907C77.5513 166.715 77.7148 166.558 77.9162 166.558Z" fill="#DEB976"/>
<path d="M81.4811 166.558H83.1278C83.3293 166.558 83.4927 166.715 83.4927 166.907V167.207C83.4927 167.4 83.3293 167.556 83.1278 167.556H81.4811C81.2795 167.556 81.1162 167.4 81.1162 167.207V166.907C81.1162 166.715 81.2795 166.558 81.4811 166.558Z" fill="#DEB976"/>
<path d="M84.6125 166.558H86.2592C86.4607 166.558 86.6241 166.715 86.6241 166.907V167.207C86.6241 167.4 86.4607 167.556 86.2592 167.556H84.6125C84.411 167.556 84.2476 167.4 84.2476 167.207V166.907C84.2476 166.715 84.411 166.558 84.6125 166.558Z" fill="#DEB976"/>
<path d="M88.0885 166.558H89.7352C89.9368 166.558 90.1001 166.715 90.1001 166.907V167.207C90.1001 167.4 89.9368 167.556 89.7352 167.556H88.0885C87.887 167.556 87.7236 167.4 87.7236 167.207V166.907C87.7236 166.715 87.887 166.558 88.0885 166.558Z" fill="#DEB976"/>
<path d="M80.4445 168.552H82.0912C82.2927 168.552 82.4561 168.708 82.4561 168.901V169.199C82.4561 169.393 82.2927 169.548 82.0912 169.548H80.4445C80.2429 169.548 80.0796 169.393 80.0796 169.199V168.901C80.0796 168.708 80.2429 168.552 80.4445 168.552Z" fill="#DEB976"/>
<path d="M84.0096 168.552H85.6562C85.8578 168.552 86.0211 168.708 86.0211 168.901V169.199C86.0211 169.393 85.8578 169.548 85.6562 169.548H84.0096C83.808 169.548 83.6447 169.393 83.6447 169.199V168.901C83.6447 168.708 83.808 168.552 84.0096 168.552Z" fill="#DEB976"/>
<path d="M87.1408 168.552H88.7876C88.989 168.552 89.1525 168.708 89.1525 168.901V169.199C89.1525 169.393 88.989 169.548 88.7876 169.548H87.1408C86.9394 169.548 86.7759 169.393 86.7759 169.199V168.901C86.7759 168.708 86.9394 168.552 87.1408 168.552Z" fill="#DEB976"/>
<path d="M90.6168 168.552H92.2635C92.4651 168.552 92.6284 168.708 92.6284 168.901V169.199C92.6284 169.393 92.4651 169.548 92.2635 169.548H90.6168C90.4153 169.548 90.252 169.393 90.252 169.199V168.901C90.252 168.708 90.4153 168.552 90.6168 168.552Z" fill="#DEB976"/>
<path d="M78.4308 170.546H80.0774C80.279 170.546 80.4423 170.703 80.4423 170.895V171.194C80.4423 171.388 80.279 171.542 80.0774 171.542H78.4308C78.2292 171.542 78.0659 171.388 78.0659 171.194V170.895C78.0659 170.703 78.2292 170.546 78.4308 170.546Z" fill="#DEB976"/>
<path d="M81.9953 170.546H83.642C83.8436 170.546 84.0069 170.703 84.0069 170.895V171.194C84.0069 171.388 83.8436 171.542 83.642 171.542H81.9953C81.7938 171.542 81.6304 171.388 81.6304 171.194V170.895C81.6304 170.703 81.7938 170.546 81.9953 170.546Z" fill="#DEB976"/>
<path d="M85.1265 170.546H86.7734C86.9748 170.546 87.1383 170.703 87.1383 170.895V171.194C87.1383 171.388 86.9748 171.542 86.7734 171.542H85.1265C84.925 171.542 84.7617 171.388 84.7617 171.194V170.895C84.7617 170.703 84.925 170.546 85.1265 170.546Z" fill="#DEB976"/>
<path d="M88.6031 170.546H90.2497C90.4513 170.546 90.6146 170.703 90.6146 170.895V171.194C90.6146 171.388 90.4513 171.542 90.2497 171.542H88.6031C88.4015 171.542 88.2382 171.388 88.2382 171.194V170.895C88.2382 170.703 88.4015 170.546 88.6031 170.546Z" fill="#DEB976"/>
<path d="M85.2629 186.558H88.3253V195.814H85.2629V186.558Z" fill="#DEB976"/>
<path d="M91.3472 192.557H94.4095V198.556H91.3472V192.557Z" fill="#DEB976"/>
<path d="M79.138 192.557H82.2005V198.556H79.138V192.557Z" fill="#DEB976"/>
<path d="M104.3 198.556H107.363V189.299H104.3V198.556Z" fill="#DEB976"/>
<path d="M110.384 192.557H113.446V186.558H110.384V192.557Z" fill="#DEB976"/>
<path d="M98.1754 192.557H101.238V186.558H98.1754V192.557Z" fill="#DEB976"/>
<path d="M85.2629 186.558H88.3253V195.814H85.2629V186.558Z" fill="#DEB976"/>
<path d="M91.3472 192.557H94.4095V198.556H91.3472V192.557Z" fill="#DEB976"/>
<path d="M79.138 192.557H82.2005V198.556H79.138V192.557Z" fill="#DEB976"/>
<path d="M104.3 198.556H107.363V189.299H104.3V198.556Z" fill="#DEB976"/>
<path d="M110.384 192.557H113.446V186.558H110.384V192.557Z" fill="#DEB976"/>
<path d="M98.1754 192.557H101.238V186.558H98.1754V192.557Z" fill="#DEB976"/>
<path d="M124.922 186.558H127.985V195.814H124.922V186.558Z" fill="#DEB976"/>
<path d="M131.006 192.557H134.068V198.556H131.006V192.557Z" fill="#DEB976"/>
<path d="M118.797 192.557H121.86V198.556H118.797V192.557Z" fill="#DEB976"/>
<path d="M143.959 198.556H147.021V189.299H143.959V198.556Z" fill="#DEB976"/>
<path d="M150.043 192.557H153.106V186.558H150.043V192.557Z" fill="#DEB976"/>
<path d="M137.834 192.557H140.897V186.558H137.834V192.557Z" fill="#DEB976"/>
<path d="M124.922 186.558H127.985V195.814H124.922V186.558Z" fill="#DEB976"/>
<path d="M131.006 192.557H134.068V198.556H131.006V192.557Z" fill="#DEB976"/>
<path d="M118.797 192.557H121.86V198.556H118.797V192.557Z" fill="#DEB976"/>
<path d="M143.959 198.556H147.021V189.299H143.959V198.556Z" fill="#DEB976"/>
<path d="M150.043 192.557H153.106V186.558H150.043V192.557Z" fill="#DEB976"/>
<path d="M137.834 192.557H140.897V186.558H137.834V192.557Z" fill="#DEB976"/>
<path d="M85.5408 198.556H88.6031V207.812H85.5408V198.556Z" fill="#DEB976"/>
<path d="M91.6253 204.554H94.6877V210.553H91.6253V204.554Z" fill="#DEB976"/>
<path d="M79.416 204.554H82.4784V210.553H79.416V204.554Z" fill="#DEB976"/>
<path d="M104.578 210.553H107.641V201.297H104.578V210.553Z" fill="#DEB976"/>
<path d="M110.662 204.554H113.725V198.556H110.662V204.554Z" fill="#DEB976"/>
<path d="M98.4534 204.554H101.516V198.556H98.4534V204.554Z" fill="#DEB976"/>
<path d="M85.5408 198.556H88.6031V207.812H85.5408V198.556Z" fill="#DEB976"/>
<path d="M91.6253 204.554H94.6877V210.553H91.6253V204.554Z" fill="#DEB976"/>
<path d="M79.416 204.554H82.4784V210.553H79.416V204.554Z" fill="#DEB976"/>
<path d="M104.578 210.553H107.641V201.297H104.578V210.553Z" fill="#DEB976"/>
<path d="M110.662 204.554H113.725V198.556H110.662V204.554Z" fill="#DEB976"/>
<path d="M98.4534 204.554H101.516V198.556H98.4534V204.554Z" fill="#DEB976"/>
<path d="M125.2 198.556H128.262V207.812H125.2V198.556Z" fill="#DEB976"/>
<path d="M131.284 204.554H134.346V210.553H131.284V204.554Z" fill="#DEB976"/>
<path d="M119.075 204.554H122.138V210.553H119.075V204.554Z" fill="#DEB976"/>
<path d="M144.237 210.553H147.3V201.297H144.237V210.553Z" fill="#DEB976"/>
<path d="M150.322 204.554H153.384V198.556H150.322V204.554Z" fill="#DEB976"/>
<path d="M138.112 204.554H141.175V198.556H138.112V204.554Z" fill="#DEB976"/>
<path d="M125.2 198.556H128.262V207.812H125.2V198.556Z" fill="#DEB976"/>
<path d="M131.284 204.554H134.346V210.553H131.284V204.554Z" fill="#DEB976"/>
<path d="M119.075 204.554H122.138V210.553H119.075V204.554Z" fill="#DEB976"/>
<path d="M144.237 210.553H147.3V201.297H144.237V210.553Z" fill="#DEB976"/>
<path d="M150.322 204.554H153.384V198.556H150.322V204.554Z" fill="#DEB976"/>
<path d="M138.112 204.554H141.175V198.556H138.112V204.554Z" fill="#DEB976"/>
<path d="M312.194 131.882H314.342V137.496H312.194V131.882Z" fill="#DEB976"/>
<path d="M316.461 135.52H318.609V139.159H316.461V135.52Z" fill="#DEB976"/>
<path d="M307.901 135.52H310.049V139.159H307.901V135.52Z" fill="#DEB976"/>
<path d="M325.544 139.159H327.691V133.545H325.544V139.159Z" fill="#DEB976"/>
<path d="M329.812 135.52H331.959V131.882H329.812V135.52Z" fill="#DEB976"/>
<path d="M321.249 135.521H323.396V131.882H321.249V135.521Z" fill="#DEB976"/>
<path d="M312.194 131.882H314.342V137.496H312.194V131.882Z" fill="#DEB976"/>
<path d="M316.461 135.52H318.609V139.159H316.461V135.52Z" fill="#DEB976"/>
<path d="M307.901 135.52H310.049V139.159H307.901V135.52Z" fill="#DEB976"/>
<path d="M325.544 139.159H327.691V133.545H325.544V139.159Z" fill="#DEB976"/>
<path d="M329.812 135.52H331.959V131.882H329.812V135.52Z" fill="#DEB976"/>
<path d="M321.249 135.521H323.396V131.882H321.249V135.521Z" fill="#DEB976"/>
<path d="M340.005 131.882H342.153V137.496H340.005V131.882Z" fill="#DEB976"/>
<path d="M344.271 135.521H346.418V139.159H344.271V135.521Z" fill="#DEB976"/>
<path d="M335.71 135.521H337.857V139.159H335.71V135.521Z" fill="#DEB976"/>
<path d="M353.354 139.159H355.502V133.545H353.354V139.159" fill="#DEB976"/>
<path d="M357.619 135.521H359.767V131.882H357.619V135.521Z" fill="#DEB976"/>
<path d="M349.059 135.521H351.207V131.882H349.059V135.521Z" fill="#DEB976"/>
<path d="M340.005 131.882H342.153V137.496H340.005V131.882Z" fill="#DEB976"/>
<path d="M344.271 135.521H346.418V139.159H344.271V135.521Z" fill="#DEB976"/>
<path d="M335.71 135.521H337.857V139.159H335.71V135.521Z" fill="#DEB976"/>
<path d="M353.354 139.159H355.502V133.545H353.354V139.159" fill="#DEB976"/>
<path d="M357.619 135.521H359.767V131.882H357.619V135.521Z" fill="#DEB976"/>
<path d="M349.059 135.521H351.207V131.882H349.059V135.521Z" fill="#DEB976"/>
<path d="M312.39 139.159H314.538V144.775H312.39V139.159" fill="#DEB976"/>
<path d="M316.656 142.798H318.803V146.437H316.656V142.798Z" fill="#DEB976"/>
<path d="M308.095 142.798H310.242V146.437H308.095V142.798Z" fill="#DEB976"/>
<path d="M325.74 146.437H327.888V140.823H325.74V146.437" fill="#DEB976"/>
<path d="M330.005 142.798H332.153V139.159H330.005V142.798Z" fill="#DEB976"/>
<path d="M321.444 142.798H323.592V139.159H321.444V142.798Z" fill="#DEB976"/>
<path d="M312.39 139.159H314.538V144.775H312.39V139.159" fill="#DEB976"/>
<path d="M316.656 142.798H318.803V146.437H316.656V142.798Z" fill="#DEB976"/>
<path d="M308.095 142.798H310.242V146.437H308.095V142.798Z" fill="#DEB976"/>
<path d="M325.74 146.437H327.888V140.823H325.74V146.437" fill="#DEB976"/>
<path d="M330.005 142.798H332.153V139.159H330.005V142.798Z" fill="#DEB976"/>
<path d="M321.444 142.798H323.592V139.159H321.444V142.798Z" fill="#DEB976"/>
<path d="M340.2 139.159H342.346V144.775H340.2V139.159Z" fill="#DEB976"/>
<path d="M344.466 142.798H346.614V146.437H344.466V142.798Z" fill="#DEB976"/>
<path d="M335.906 142.798H338.053V146.437H335.906V142.798Z" fill="#DEB976"/>
<path d="M353.549 146.437H355.698V140.823H353.549V146.437" fill="#DEB976"/>
<path d="M357.817 142.798H359.963V139.159H357.817V142.798Z" fill="#DEB976"/>
<path d="M349.253 142.798H351.4V139.159H349.253V142.798" fill="#DEB976"/>
<path d="M340.2 139.159H342.346V144.775H340.2V139.159Z" fill="#DEB976"/>
<path d="M344.466 142.798H346.614V146.437H344.466V142.798Z" fill="#DEB976"/>
<path d="M335.906 142.798H338.053V146.437H335.906V142.798Z" fill="#DEB976"/>
<path d="M353.549 146.437H355.698V140.823H353.549V146.437" fill="#DEB976"/>
<path d="M357.817 142.798H359.963V139.159H357.817V142.798Z" fill="#DEB976"/>
<path d="M349.253 142.798H351.4V139.159H349.253V142.798" fill="#DEB976"/>
<path d="M335.529 170.697H333.383V176.311H335.529V170.697Z" fill="#DEB976"/>
<path d="M331.263 174.336H329.115V177.975H331.263V174.336Z" fill="#DEB976"/>
<path d="M339.825 174.335H337.678V177.974H339.825V174.335Z" fill="#DEB976"/>
<path d="M322.18 177.974H320.034V172.359H322.18V177.974Z" fill="#DEB976"/>
<path d="M317.913 174.336H315.766V170.697H317.913V174.336Z" fill="#DEB976"/>
<path d="M326.476 174.336H324.329V170.697H326.476V174.336Z" fill="#DEB976"/>
<path d="M355.667 152.504H353.52V158.118H355.667V152.504Z" fill="#DEB976"/>
<path d="M351.4 156.142H349.253V159.782H351.4V156.142Z" fill="#DEB976"/>
<path d="M359.963 156.142H357.817V159.782H359.963V156.142Z" fill="#DEB976"/>
<path d="M342.32 159.782H340.172V154.166H342.32V159.782Z" fill="#DEB976"/>
<path d="M338.053 156.141H335.906V152.504H338.053V156.141Z" fill="#DEB976"/>
<path d="M346.614 156.141H344.466V152.504H346.614V156.141Z" fill="#DEB976"/>
<path d="M327.859 152.504H325.711V158.118H327.859V152.504Z" fill="#DEB976"/>
<path d="M323.592 156.142H321.444V159.782H323.592V156.142Z" fill="#DEB976"/>
<path d="M332.153 156.142H330.005V159.782H332.153V156.142Z" fill="#DEB976"/>
<path d="M314.51 159.782H312.362V154.166H314.51V159.782Z" fill="#DEB976"/>
<path d="M310.242 156.142H308.095V152.504H310.242V156.142Z" fill="#DEB976"/>
<path d="M318.803 156.142H316.656V152.504H318.803V156.142Z" fill="#DEB976"/>
<path d="M327.859 152.504H325.711V158.118H327.859V152.504Z" fill="#DEB976"/>
<path d="M323.592 156.142H321.444V159.782H323.592V156.142Z" fill="#DEB976"/>
<path d="M332.153 156.142H330.005V159.782H332.153V156.142Z" fill="#DEB976"/>
<path d="M314.51 159.782H312.362V154.166H314.51V159.782Z" fill="#DEB976"/>
<path d="M310.242 156.142H308.095V152.504H310.242V156.142Z" fill="#DEB976"/>
<path d="M318.803 156.142H316.656V152.504H318.803V156.142Z" fill="#DEB976"/>
<path d="M355.474 159.782H353.326V165.396H355.474V159.782Z" fill="#DEB976"/>
<path d="M351.207 163.419H349.059V167.059H351.207V163.419Z" fill="#DEB976"/>
<path d="M359.767 163.419H357.619V167.06H359.767V163.419Z" fill="#DEB976"/>
<path d="M342.125 167.059H339.977V161.444H342.125V167.059Z" fill="#DEB976"/>
<path d="M337.857 163.419H335.71V159.782H337.857V163.419Z" fill="#DEB976"/>
<path d="M346.418 163.419H344.271V159.782H346.418V163.419Z" fill="#DEB976"/>
<path d="M355.474 159.782H353.326V165.396H355.474V159.782Z" fill="#DEB976"/>
<path d="M351.207 163.419H349.059V167.059H351.207V163.419Z" fill="#DEB976"/>
<path d="M359.767 163.419H357.619V167.06H359.767V163.419Z" fill="#DEB976"/>
<path d="M342.125 167.059H339.977V161.444H342.125V167.059Z" fill="#DEB976"/>
<path d="M337.857 163.419H335.71V159.782H337.857V163.419Z" fill="#DEB976"/>
<path d="M346.418 163.419H344.271V159.782H346.418V163.419Z" fill="#DEB976"/>
<path d="M327.663 159.782H325.516V165.396H327.663V159.782Z" fill="#DEB976"/>
<path d="M323.396 163.419H321.249V167.06H323.396V163.419Z" fill="#DEB976"/>
<path d="M331.959 163.419H329.812V167.06H331.959V163.419Z" fill="#DEB976"/>
<path d="M314.314 167.059H312.166V161.444H314.314V167.059Z" fill="#DEB976"/>
<path d="M310.049 163.419H307.901V159.781H310.049V163.419Z" fill="#DEB976"/>
<path d="M318.609 163.419H316.461V159.782H318.609V163.419Z" fill="#DEB976"/>
<path d="M327.663 159.782H325.516V165.396H327.663V159.782Z" fill="#DEB976"/>
<path d="M323.396 163.419H321.249V167.06H323.396V163.419Z" fill="#DEB976"/>
<path d="M331.959 163.419H329.812V167.06H331.959V163.419Z" fill="#DEB976"/>
<path d="M314.314 167.059H312.166V161.444H314.314V167.059Z" fill="#DEB976"/>
<path d="M310.049 163.419H307.901V159.781H310.049V163.419Z" fill="#DEB976"/>
<path d="M318.609 163.419H316.461V159.782H318.609V163.419Z" fill="#DEB976"/>
<path d="M204.722 125.58H195.612C195.411 125.58 195.247 125.658 195.247 125.754V127.518C195.247 127.614 195.411 127.693 195.612 127.693H204.722C204.923 127.693 205.086 127.614 205.086 127.518V125.754C205.086 125.658 204.923 125.58 204.722 125.58Z" fill="#DEB976"/>
<path d="M193.085 125.58H188.531C188.431 125.58 188.349 125.658 188.349 125.754V127.518C188.349 127.614 188.431 127.693 188.531 127.693H193.085C193.187 127.693 193.268 127.614 193.268 127.518V125.754C193.268 125.658 193.187 125.58 193.085 125.58Z" fill="#DEB976"/>
<path d="M187.062 125.58H184.341C184.28 125.58 184.232 125.658 184.232 125.754V127.518C184.232 127.614 184.28 127.693 184.341 127.693H187.062C187.122 127.693 187.172 127.614 187.172 127.518V125.754C187.172 125.658 187.122 125.58 187.062 125.58Z" fill="#DEB976"/>
<path d="M194.294 130.818H185.185C184.984 130.818 184.82 130.896 184.82 130.993V132.757C184.82 132.853 184.984 132.931 185.185 132.931H194.294C194.496 132.931 194.659 132.853 194.659 132.757V130.993C194.659 130.896 194.496 130.818 194.294 130.818Z" fill="#DEB976"/>
<path d="M182.658 130.818H178.104C178.004 130.818 177.922 130.896 177.922 130.993V132.757C177.922 132.853 178.004 132.931 178.104 132.931H182.658C182.76 132.931 182.841 132.853 182.841 132.757V130.993C182.841 130.896 182.76 130.818 182.658 130.818Z" fill="#DEB976"/>
<path d="M176.635 130.818H173.914C173.853 130.818 173.804 130.896 173.804 130.993V132.757C173.804 132.853 173.853 132.931 173.914 132.931H176.635C176.695 132.931 176.745 132.853 176.745 132.757V130.993C176.745 130.896 176.695 130.818 176.635 130.818Z" fill="#DEB976"/>
<path d="M204.722 138.214H195.612C195.411 138.214 195.247 138.293 195.247 138.389V140.152C195.247 140.249 195.411 140.327 195.612 140.327H204.722C204.923 140.327 205.086 140.249 205.086 140.152V138.389C205.086 138.293 204.923 138.214 204.722 138.214Z" fill="#DEB976"/>
<path d="M193.085 138.214H188.531C188.431 138.214 188.349 138.293 188.349 138.389V140.152C188.349 140.249 188.431 140.327 188.531 140.327H193.085C193.187 140.327 193.268 140.249 193.268 140.152V138.389C193.268 138.293 193.187 138.214 193.085 138.214Z" fill="#DEB976"/>
<path d="M187.062 138.214H184.341C184.28 138.214 184.232 138.293 184.232 138.389V140.152C184.232 140.249 184.28 140.327 184.341 140.327H187.062C187.122 140.327 187.172 140.249 187.172 140.152V138.389C187.172 138.293 187.122 138.214 187.062 138.214Z" fill="#DEB976"/>
<path d="M199.991 146.667H190.881C190.68 146.667 190.517 146.745 190.517 146.841V148.606C190.517 148.701 190.68 148.781 190.881 148.781H199.991C200.192 148.781 200.356 148.701 200.356 148.606V146.841C200.356 146.745 200.192 146.667 199.991 146.667Z" fill="#DEB976"/>
<path d="M188.355 146.667H183.801C183.699 146.667 183.618 146.745 183.618 146.841V148.606C183.618 148.701 183.699 148.781 183.801 148.781H188.355C188.456 148.781 188.537 148.701 188.537 148.606V146.841C188.537 146.745 188.456 146.667 188.355 146.667Z" fill="#DEB976"/>
<path d="M182.331 146.667H179.61C179.549 146.667 179.5 146.745 179.5 146.841V148.606C179.5 148.701 179.549 148.781 179.61 148.781H182.331C182.392 148.781 182.44 148.701 182.44 148.606V146.841C182.44 146.745 182.392 146.667 182.331 146.667Z" fill="#DEB976"/>
<path d="M194.294 154.064H185.185C184.984 154.064 184.82 154.142 184.82 154.239V156.003C184.82 156.1 184.984 156.176 185.185 156.176H194.294C194.496 156.176 194.659 156.1 194.659 156.003V154.239C194.659 154.142 194.496 154.064 194.294 154.064Z" fill="#DEB976"/>
<path d="M182.658 154.064H178.104C178.004 154.064 177.922 154.142 177.922 154.239V156.003C177.922 156.1 178.004 156.176 178.104 156.176H182.658C182.76 156.176 182.841 156.1 182.841 156.003V154.239C182.841 154.142 182.76 154.064 182.658 154.064Z" fill="#DEB976"/>
<path d="M176.635 154.064H173.914C173.853 154.064 173.804 154.142 173.804 154.239V156.003C173.804 156.1 173.853 156.176 173.914 156.176H176.635C176.695 156.176 176.745 156.1 176.745 156.003V154.239C176.745 154.142 176.695 154.064 176.635 154.064Z" fill="#DEB976"/>
<path d="M204.722 160.096H195.612C195.411 160.096 195.247 160.174 195.247 160.27V162.035C195.247 162.131 195.411 162.21 195.612 162.21H204.722C204.923 162.21 205.086 162.131 205.086 162.035V160.27C205.086 160.174 204.923 160.096 204.722 160.096Z" fill="#DEB976"/>
<path d="M193.085 160.096H188.531C188.431 160.096 188.349 160.174 188.349 160.27V162.035C188.349 162.131 188.431 162.21 188.531 162.21H193.085C193.187 162.21 193.268 162.131 193.268 162.035V160.27C193.268 160.174 193.187 160.096 193.085 160.096Z" fill="#DEB976"/>
<path d="M187.062 160.096H184.341C184.28 160.096 184.232 160.174 184.232 160.27V162.035C184.232 162.131 184.28 162.21 184.341 162.21H187.062C187.122 162.21 187.172 162.131 187.172 162.035V160.27C187.172 160.174 187.122 160.096 187.062 160.096Z" fill="#DEB976"/>
<path d="M204.722 125.58H195.612C195.411 125.58 195.247 125.658 195.247 125.754V127.518C195.247 127.614 195.411 127.693 195.612 127.693H204.722C204.923 127.693 205.086 127.614 205.086 127.518V125.754C205.086 125.658 204.923 125.58 204.722 125.58Z" fill="#DEB976"/>
<path d="M193.085 125.58H188.531C188.431 125.58 188.349 125.658 188.349 125.754V127.518C188.349 127.614 188.431 127.693 188.531 127.693H193.085C193.187 127.693 193.268 127.614 193.268 127.518V125.754C193.268 125.658 193.187 125.58 193.085 125.58Z" fill="#DEB976"/>
<path d="M187.062 125.58H184.341C184.28 125.58 184.232 125.658 184.232 125.754V127.518C184.232 127.614 184.28 127.693 184.341 127.693H187.062C187.122 127.693 187.172 127.614 187.172 127.518V125.754C187.172 125.658 187.122 125.58 187.062 125.58Z" fill="#DEB976"/>
<path d="M194.294 130.818H185.185C184.984 130.818 184.82 130.896 184.82 130.993V132.757C184.82 132.853 184.984 132.931 185.185 132.931H194.294C194.496 132.931 194.659 132.853 194.659 132.757V130.993C194.659 130.896 194.496 130.818 194.294 130.818Z" fill="#DEB976"/>
<path d="M182.658 130.818H178.104C178.004 130.818 177.922 130.896 177.922 130.993V132.757C177.922 132.853 178.004 132.931 178.104 132.931H182.658C182.76 132.931 182.841 132.853 182.841 132.757V130.993C182.841 130.896 182.76 130.818 182.658 130.818Z" fill="#DEB976"/>
<path d="M176.635 130.818H173.914C173.853 130.818 173.804 130.896 173.804 130.993V132.757C173.804 132.853 173.853 132.931 173.914 132.931H176.635C176.695 132.931 176.745 132.853 176.745 132.757V130.993C176.745 130.896 176.695 130.818 176.635 130.818Z" fill="#DEB976"/>
<path d="M204.722 138.214H195.612C195.411 138.214 195.247 138.293 195.247 138.389V140.152C195.247 140.249 195.411 140.327 195.612 140.327H204.722C204.923 140.327 205.086 140.249 205.086 140.152V138.389C205.086 138.293 204.923 138.214 204.722 138.214Z" fill="#DEB976"/>
<path d="M193.085 138.214H188.531C188.431 138.214 188.349 138.293 188.349 138.389V140.152C188.349 140.249 188.431 140.327 188.531 140.327H193.085C193.187 140.327 193.268 140.249 193.268 140.152V138.389C193.268 138.293 193.187 138.214 193.085 138.214Z" fill="#DEB976"/>
<path d="M187.062 138.214H184.341C184.28 138.214 184.232 138.293 184.232 138.389V140.152C184.232 140.249 184.28 140.327 184.341 140.327H187.062C187.122 140.327 187.172 140.249 187.172 140.152V138.389C187.172 138.293 187.122 138.214 187.062 138.214Z" fill="#DEB976"/>
<path d="M199.991 146.667H190.881C190.68 146.667 190.517 146.745 190.517 146.841V148.606C190.517 148.701 190.68 148.781 190.881 148.781H199.991C200.192 148.781 200.356 148.701 200.356 148.606V146.841C200.356 146.745 200.192 146.667 199.991 146.667Z" fill="#DEB976"/>
<path d="M188.355 146.667H183.801C183.699 146.667 183.618 146.745 183.618 146.841V148.606C183.618 148.701 183.699 148.781 183.801 148.781H188.355C188.456 148.781 188.537 148.701 188.537 148.606V146.841C188.537 146.745 188.456 146.667 188.355 146.667Z" fill="#DEB976"/>
<path d="M182.331 146.667H179.61C179.549 146.667 179.5 146.745 179.5 146.841V148.606C179.5 148.701 179.549 148.781 179.61 148.781H182.331C182.392 148.781 182.44 148.701 182.44 148.606V146.841C182.44 146.745 182.392 146.667 182.331 146.667Z" fill="#DEB976"/>
<path d="M194.294 154.064H185.185C184.984 154.064 184.82 154.142 184.82 154.239V156.003C184.82 156.1 184.984 156.176 185.185 156.176H194.294C194.496 156.176 194.659 156.1 194.659 156.003V154.239C194.659 154.142 194.496 154.064 194.294 154.064Z" fill="#DEB976"/>
<path d="M182.658 154.064H178.104C178.004 154.064 177.922 154.142 177.922 154.239V156.003C177.922 156.1 178.004 156.176 178.104 156.176H182.658C182.76 156.176 182.841 156.1 182.841 156.003V154.239C182.841 154.142 182.76 154.064 182.658 154.064Z" fill="#DEB976"/>
<path d="M176.635 154.064H173.914C173.853 154.064 173.804 154.142 173.804 154.239V156.003C173.804 156.1 173.853 156.176 173.914 156.176H176.635C176.695 156.176 176.745 156.1 176.745 156.003V154.239C176.745 154.142 176.695 154.064 176.635 154.064Z" fill="#DEB976"/>
<path d="M204.722 160.096H195.612C195.411 160.096 195.247 160.174 195.247 160.27V162.035C195.247 162.131 195.411 162.21 195.612 162.21H204.722C204.923 162.21 205.086 162.131 205.086 162.035V160.27C205.086 160.174 204.923 160.096 204.722 160.096Z" fill="#DEB976"/>
<path d="M193.085 160.096H188.531C188.431 160.096 188.349 160.174 188.349 160.27V162.035C188.349 162.131 188.431 162.21 188.531 162.21H193.085C193.187 162.21 193.268 162.131 193.268 162.035V160.27C193.268 160.174 193.187 160.096 193.085 160.096Z" fill="#DEB976"/>
<path d="M187.062 160.096H184.341C184.28 160.096 184.232 160.174 184.232 160.27V162.035C184.232 162.131 184.28 162.21 184.341 162.21H187.062C187.122 162.21 187.172 162.131 187.172 162.035V160.27C187.172 160.174 187.122 160.096 187.062 160.096Z" fill="#DEB976"/>
<path d="M204.722 125.58H195.612C195.411 125.58 195.247 125.658 195.247 125.754V127.518C195.247 127.614 195.411 127.693 195.612 127.693H204.722C204.923 127.693 205.086 127.614 205.086 127.518V125.754C205.086 125.658 204.923 125.58 204.722 125.58Z" fill="#DEB976"/>
<path d="M193.085 125.58H188.531C188.431 125.58 188.349 125.658 188.349 125.754V127.518C188.349 127.614 188.431 127.693 188.531 127.693H193.085C193.187 127.693 193.268 127.614 193.268 127.518V125.754C193.268 125.658 193.187 125.58 193.085 125.58Z" fill="#DEB976"/>
<path d="M187.062 125.58H184.341C184.28 125.58 184.232 125.658 184.232 125.754V127.518C184.232 127.614 184.28 127.693 184.341 127.693H187.062C187.122 127.693 187.172 127.614 187.172 127.518V125.754C187.172 125.658 187.122 125.58 187.062 125.58Z" fill="#DEB976"/>
<path d="M194.294 130.818H185.185C184.984 130.818 184.82 130.896 184.82 130.993V132.757C184.82 132.853 184.984 132.931 185.185 132.931H194.294C194.496 132.931 194.659 132.853 194.659 132.757V130.993C194.659 130.896 194.496 130.818 194.294 130.818Z" fill="#DEB976"/>
<path d="M182.658 130.818H178.104C178.004 130.818 177.922 130.896 177.922 130.993V132.757C177.922 132.853 178.004 132.931 178.104 132.931H182.658C182.76 132.931 182.841 132.853 182.841 132.757V130.993C182.841 130.896 182.76 130.818 182.658 130.818Z" fill="#DEB976"/>
<path d="M176.635 130.818H173.914C173.853 130.818 173.804 130.896 173.804 130.993V132.757C173.804 132.853 173.853 132.931 173.914 132.931H176.635C176.695 132.931 176.745 132.853 176.745 132.757V130.993C176.745 130.896 176.695 130.818 176.635 130.818Z" fill="#DEB976"/>
<path d="M204.722 138.214H195.612C195.411 138.214 195.247 138.293 195.247 138.389V140.152C195.247 140.249 195.411 140.327 195.612 140.327H204.722C204.923 140.327 205.086 140.249 205.086 140.152V138.389C205.086 138.293 204.923 138.214 204.722 138.214Z" fill="#DEB976"/>
<path d="M193.085 138.214H188.531C188.431 138.214 188.349 138.293 188.349 138.389V140.152C188.349 140.249 188.431 140.327 188.531 140.327H193.085C193.187 140.327 193.268 140.249 193.268 140.152V138.389C193.268 138.293 193.187 138.214 193.085 138.214Z" fill="#DEB976"/>
<path d="M187.062 138.214H184.341C184.28 138.214 184.232 138.293 184.232 138.389V140.152C184.232 140.249 184.28 140.327 184.341 140.327H187.062C187.122 140.327 187.172 140.249 187.172 140.152V138.389C187.172 138.293 187.122 138.214 187.062 138.214Z" fill="#DEB976"/>
<path d="M199.991 146.667H190.881C190.68 146.667 190.517 146.745 190.517 146.841V148.606C190.517 148.701 190.68 148.781 190.881 148.781H199.991C200.192 148.781 200.356 148.701 200.356 148.606V146.841C200.356 146.745 200.192 146.667 199.991 146.667Z" fill="#DEB976"/>
<path d="M188.355 146.667H183.801C183.699 146.667 183.618 146.745 183.618 146.841V148.606C183.618 148.701 183.699 148.781 183.801 148.781H188.355C188.456 148.781 188.537 148.701 188.537 148.606V146.841C188.537 146.745 188.456 146.667 188.355 146.667Z" fill="#DEB976"/>
<path d="M182.331 146.667H179.61C179.549 146.667 179.5 146.745 179.5 146.841V148.606C179.5 148.701 179.549 148.781 179.61 148.781H182.331C182.392 148.781 182.44 148.701 182.44 148.606V146.841C182.44 146.745 182.392 146.667 182.331 146.667Z" fill="#DEB976"/>
<path d="M194.294 154.064H185.185C184.984 154.064 184.82 154.142 184.82 154.239V156.003C184.82 156.1 184.984 156.176 185.185 156.176H194.294C194.496 156.176 194.659 156.1 194.659 156.003V154.239C194.659 154.142 194.496 154.064 194.294 154.064Z" fill="#DEB976"/>
<path d="M182.658 154.064H178.104C178.004 154.064 177.922 154.142 177.922 154.239V156.003C177.922 156.1 178.004 156.176 178.104 156.176H182.658C182.76 156.176 182.841 156.1 182.841 156.003V154.239C182.841 154.142 182.76 154.064 182.658 154.064Z" fill="#DEB976"/>
<path d="M176.635 154.064H173.914C173.853 154.064 173.804 154.142 173.804 154.239V156.003C173.804 156.1 173.853 156.176 173.914 156.176H176.635C176.695 156.176 176.745 156.1 176.745 156.003V154.239C176.745 154.142 176.695 154.064 176.635 154.064Z" fill="#DEB976"/>
<path d="M204.722 160.096H195.612C195.411 160.096 195.247 160.174 195.247 160.27V162.035C195.247 162.131 195.411 162.21 195.612 162.21H204.722C204.923 162.21 205.086 162.131 205.086 162.035V160.27C205.086 160.174 204.923 160.096 204.722 160.096Z" fill="#DEB976"/>
<path d="M193.085 160.096H188.531C188.431 160.096 188.349 160.174 188.349 160.27V162.035C188.349 162.131 188.431 162.21 188.531 162.21H193.085C193.187 162.21 193.268 162.131 193.268 162.035V160.27C193.268 160.174 193.187 160.096 193.085 160.096Z" fill="#DEB976"/>
<path d="M187.062 160.096H184.341C184.28 160.096 184.232 160.174 184.232 160.27V162.035C184.232 162.131 184.28 162.21 184.341 162.21H187.062C187.122 162.21 187.172 162.131 187.172 162.035V160.27C187.172 160.174 187.122 160.096 187.062 160.096Z" fill="#DEB976"/>
<path d="M204.722 125.58H195.612C195.411 125.58 195.247 125.658 195.247 125.754V127.518C195.247 127.614 195.411 127.693 195.612 127.693H204.722C204.923 127.693 205.086 127.614 205.086 127.518V125.754C205.086 125.658 204.923 125.58 204.722 125.58Z" fill="#DEB976"/>
<path d="M193.085 125.58H188.531C188.431 125.58 188.349 125.658 188.349 125.754V127.518C188.349 127.614 188.431 127.693 188.531 127.693H193.085C193.187 127.693 193.268 127.614 193.268 127.518V125.754C193.268 125.658 193.187 125.58 193.085 125.58Z" fill="#DEB976"/>
<path d="M187.062 125.58H184.341C184.28 125.58 184.232 125.658 184.232 125.754V127.518C184.232 127.614 184.28 127.693 184.341 127.693H187.062C187.122 127.693 187.172 127.614 187.172 127.518V125.754C187.172 125.658 187.122 125.58 187.062 125.58Z" fill="#DEB976"/>
<path d="M194.294 130.818H185.185C184.984 130.818 184.82 130.896 184.82 130.993V132.757C184.82 132.853 184.984 132.931 185.185 132.931H194.294C194.496 132.931 194.659 132.853 194.659 132.757V130.993C194.659 130.896 194.496 130.818 194.294 130.818Z" fill="#DEB976"/>
<path d="M182.658 130.818H178.104C178.004 130.818 177.922 130.896 177.922 130.993V132.757C177.922 132.853 178.004 132.931 178.104 132.931H182.658C182.76 132.931 182.841 132.853 182.841 132.757V130.993C182.841 130.896 182.76 130.818 182.658 130.818Z" fill="#DEB976"/>
<path d="M176.635 130.818H173.914C173.853 130.818 173.804 130.896 173.804 130.993V132.757C173.804 132.853 173.853 132.931 173.914 132.931H176.635C176.695 132.931 176.745 132.853 176.745 132.757V130.993C176.745 130.896 176.695 130.818 176.635 130.818Z" fill="#DEB976"/>
<path d="M204.722 138.214H195.612C195.411 138.214 195.247 138.293 195.247 138.389V140.152C195.247 140.249 195.411 140.327 195.612 140.327H204.722C204.923 140.327 205.086 140.249 205.086 140.152V138.389C205.086 138.293 204.923 138.214 204.722 138.214Z" fill="#DEB976"/>
<path d="M193.085 138.214H188.531C188.431 138.214 188.349 138.293 188.349 138.389V140.152C188.349 140.249 188.431 140.327 188.531 140.327H193.085C193.187 140.327 193.268 140.249 193.268 140.152V138.389C193.268 138.293 193.187 138.214 193.085 138.214Z" fill="#DEB976"/>
<path d="M187.062 138.214H184.341C184.28 138.214 184.232 138.293 184.232 138.389V140.152C184.232 140.249 184.28 140.327 184.341 140.327H187.062C187.122 140.327 187.172 140.249 187.172 140.152V138.389C187.172 138.293 187.122 138.214 187.062 138.214Z" fill="#DEB976"/>
<path d="M199.991 146.667H190.881C190.68 146.667 190.517 146.745 190.517 146.841V148.606C190.517 148.701 190.68 148.781 190.881 148.781H199.991C200.192 148.781 200.356 148.701 200.356 148.606V146.841C200.356 146.745 200.192 146.667 199.991 146.667Z" fill="#DEB976"/>
<path d="M188.355 146.667H183.801C183.699 146.667 183.618 146.745 183.618 146.841V148.606C183.618 148.701 183.699 148.781 183.801 148.781H188.355C188.456 148.781 188.537 148.701 188.537 148.606V146.841C188.537 146.745 188.456 146.667 188.355 146.667Z" fill="#DEB976"/>
<path d="M182.331 146.667H179.61C179.549 146.667 179.5 146.745 179.5 146.841V148.606C179.5 148.701 179.549 148.781 179.61 148.781H182.331C182.392 148.781 182.44 148.701 182.44 148.606V146.841C182.44 146.745 182.392 146.667 182.331 146.667Z" fill="#DEB976"/>
<path d="M194.294 154.064H185.185C184.984 154.064 184.82 154.142 184.82 154.239V156.003C184.82 156.1 184.984 156.176 185.185 156.176H194.294C194.496 156.176 194.659 156.1 194.659 156.003V154.239C194.659 154.142 194.496 154.064 194.294 154.064Z" fill="#DEB976"/>
<path d="M182.658 154.064H178.104C178.004 154.064 177.922 154.142 177.922 154.239V156.003C177.922 156.1 178.004 156.176 178.104 156.176H182.658C182.76 156.176 182.841 156.1 182.841 156.003V154.239C182.841 154.142 182.76 154.064 182.658 154.064Z" fill="#DEB976"/>
<path d="M176.635 154.064H173.914C173.853 154.064 173.804 154.142 173.804 154.239V156.003C173.804 156.1 173.853 156.176 173.914 156.176H176.635C176.695 156.176 176.745 156.1 176.745 156.003V154.239C176.745 154.142 176.695 154.064 176.635 154.064Z" fill="#DEB976"/>
<path d="M204.722 160.096H195.612C195.411 160.096 195.247 160.174 195.247 160.27V162.035C195.247 162.131 195.411 162.21 195.612 162.21H204.722C204.923 162.21 205.086 162.131 205.086 162.035V160.27C205.086 160.174 204.923 160.096 204.722 160.096Z" fill="#DEB976"/>
<path d="M193.085 160.096H188.531C188.431 160.096 188.349 160.174 188.349 160.27V162.035C188.349 162.131 188.431 162.21 188.531 162.21H193.085C193.187 162.21 193.268 162.131 193.268 162.035V160.27C193.268 160.174 193.187 160.096 193.085 160.096Z" fill="#DEB976"/>
<path d="M187.062 160.096H184.341C184.28 160.096 184.232 160.174 184.232 160.27V162.035C184.232 162.131 184.28 162.21 184.341 162.21H187.062C187.122 162.21 187.172 162.131 187.172 162.035V160.27C187.172 160.174 187.122 160.096 187.062 160.096Z" fill="#DEB976"/>
<path d="M203.334 172.431H194.225C194.024 172.431 193.86 172.51 193.86 172.607V174.37C193.86 174.467 194.024 174.544 194.225 174.544H203.334C203.536 174.544 203.699 174.467 203.699 174.37V172.607C203.699 172.51 203.536 172.431 203.334 172.431Z" fill="#DEB976"/>
<path d="M191.698 172.431H187.144C187.044 172.431 186.962 172.51 186.962 172.607V174.37C186.962 174.467 187.044 174.544 187.144 174.544H191.698C191.8 174.544 191.881 174.467 191.881 174.37V172.607C191.881 172.51 191.8 172.431 191.698 172.431Z" fill="#DEB976"/>
<path d="M185.674 172.431H182.954C182.893 172.431 182.845 172.51 182.845 172.607V174.37C182.845 174.467 182.893 174.544 182.954 174.544H185.674C185.735 174.544 185.784 174.467 185.784 174.37V172.607C185.784 172.51 185.735 172.431 185.674 172.431Z" fill="#DEB976"/>
<path d="M192.907 177.67H183.798C183.597 177.67 183.433 177.748 183.433 177.844V179.608C183.433 179.705 183.597 179.783 183.798 179.783H192.907C193.108 179.783 193.272 179.705 193.272 179.608V177.844C193.272 177.748 193.108 177.67 192.907 177.67Z" fill="#DEB976"/>
<path d="M181.271 177.67H176.717C176.617 177.67 176.535 177.748 176.535 177.844V179.608C176.535 179.705 176.617 179.783 176.717 179.783H181.271C181.372 179.783 181.453 179.705 181.453 179.608V177.844C181.453 177.748 181.372 177.67 181.271 177.67Z" fill="#DEB976"/>
<path d="M175.247 177.67H172.527C172.466 177.67 172.417 177.748 172.417 177.844V179.608C172.417 179.705 172.466 179.783 172.527 179.783H175.247C175.308 179.783 175.358 179.705 175.358 179.608V177.844C175.358 177.748 175.308 177.67 175.247 177.67Z" fill="#DEB976"/>
<path d="M203.334 185.067H194.225C194.024 185.067 193.86 185.145 193.86 185.242V187.006C193.86 187.101 194.024 187.18 194.225 187.18H203.334C203.536 187.18 203.699 187.101 203.699 187.006V185.242C203.699 185.145 203.536 185.067 203.334 185.067Z" fill="#DEB976"/>
<path d="M191.698 185.067H187.144C187.044 185.067 186.962 185.145 186.962 185.242V187.006C186.962 187.101 187.044 187.18 187.144 187.18H191.698C191.8 187.18 191.881 187.101 191.881 187.006V185.242C191.881 185.145 191.8 185.067 191.698 185.067Z" fill="#DEB976"/>
<path d="M185.674 185.067H182.954C182.893 185.067 182.845 185.145 182.845 185.242V187.006C182.845 187.101 182.893 187.18 182.954 187.18H185.674C185.735 187.18 185.784 187.101 185.784 187.006V185.242C185.784 185.145 185.735 185.067 185.674 185.067Z" fill="#DEB976"/>
<path d="M198.604 193.52H189.494C189.293 193.52 189.129 193.597 189.129 193.694V195.458C189.129 195.555 189.293 195.633 189.494 195.633H198.604C198.805 195.633 198.969 195.555 198.969 195.458V193.694C198.969 193.597 198.805 193.52 198.604 193.52Z" fill="#DEB976"/>
<path d="M186.968 193.52H182.414C182.314 193.52 182.231 193.597 182.231 193.694V195.458C182.231 195.555 182.314 195.633 182.414 195.633H186.968C187.069 195.633 187.15 195.555 187.15 195.458V193.694C187.15 193.597 187.069 193.52 186.968 193.52Z" fill="#DEB976"/>
<path d="M180.944 193.52H178.223C178.162 193.52 178.113 193.597 178.113 193.694V195.458C178.113 195.555 178.162 195.633 178.223 195.633H180.944C181.005 195.633 181.054 195.555 181.054 195.458V193.694C181.054 193.597 181.005 193.52 180.944 193.52Z" fill="#DEB976"/>
<path d="M333.568 80.7678H324.459C324.258 80.7678 324.095 80.846 324.095 80.9423V82.7066C324.095 82.8031 324.258 82.8812 324.459 82.8812H333.568C333.77 82.8812 333.932 82.8031 333.932 82.7066V80.9423C333.932 80.846 333.77 80.7678 333.568 80.7678Z" fill="#DEB976"/>
<path d="M321.932 80.7681H317.377C317.276 80.7681 317.195 80.8461 317.195 80.9425V82.7067C317.195 82.8031 317.276 82.8812 317.377 82.8812H321.932C322.032 82.8812 322.113 82.8031 322.113 82.7067V80.9425C322.113 80.8461 322.032 80.7681 321.932 80.7681Z" fill="#DEB976"/>
<path d="M315.906 80.7684H313.186C313.124 80.7684 313.076 80.8467 313.076 80.9428V82.7071C313.076 82.8037 313.124 82.8816 313.186 82.8816H315.906C315.966 82.8816 316.015 82.8037 316.015 82.7071V80.9428C316.015 80.8467 315.966 80.7684 315.906 80.7684Z" fill="#DEB976"/>
<path d="M323.139 86.0067H314.032C313.831 86.0067 313.667 86.085 313.667 86.1813V87.9453C313.667 88.0418 313.831 88.1198 314.032 88.1198H323.139C323.342 88.1198 323.505 88.0418 323.505 87.9453V86.1813C323.505 86.085 323.342 86.0067 323.139 86.0067Z" fill="#DEB976"/>
<path d="M311.506 86.0073H306.951C306.849 86.0073 306.769 86.0855 306.769 86.1817V87.9459C306.769 88.0422 306.849 88.1202 306.951 88.1202H311.506C311.607 88.1202 311.687 88.0422 311.687 87.9459V86.1817C311.687 86.0855 311.607 86.0073 311.506 86.0073Z" fill="#DEB976"/>
<path d="M305.481 86.0066H302.759C302.699 86.0066 302.65 86.0847 302.65 86.1809V87.9451C302.65 88.0414 302.699 88.1196 302.759 88.1196H305.481C305.543 88.1196 305.59 88.0414 305.59 87.9451V86.1809C305.59 86.0847 305.543 86.0066 305.481 86.0066Z" fill="#DEB976"/>
<path d="M333.568 93.4024H324.459C324.258 93.4024 324.095 93.4807 324.095 93.577V95.3411C324.095 95.4374 324.258 95.5156 324.459 95.5156H333.568C333.77 95.5156 333.932 95.4374 333.932 95.3411V93.577C333.932 93.4807 333.77 93.4024 333.568 93.4024Z" fill="#DEB976"/>
<path d="M321.932 93.4028H317.377C317.276 93.4028 317.195 93.4809 317.195 93.5773V95.3414C317.195 95.4379 317.276 95.5159 317.377 95.5159H321.932C322.032 95.5159 322.113 95.4379 322.113 95.3414V93.5773C322.113 93.4809 322.032 93.4028 321.932 93.4028Z" fill="#DEB976"/>
<path d="M315.906 93.4034H313.186C313.124 93.4034 313.076 93.4815 313.076 93.5779V95.3419C313.076 95.4385 313.124 95.5166 313.186 95.5166H315.906C315.966 95.5166 316.015 95.4385 316.015 95.3419V93.5779C316.015 93.4815 315.966 93.4034 315.906 93.4034Z" fill="#DEB976"/>
<path d="M328.834 101.856H319.728C319.526 101.856 319.362 101.934 319.362 102.03V103.794C319.362 103.891 319.526 103.969 319.728 103.969H328.834C329.036 103.969 329.2 103.891 329.2 103.794V102.03C329.2 101.934 329.036 101.856 328.834 101.856Z" fill="#DEB976"/>
<path d="M317.201 101.855H312.647C312.546 101.855 312.466 101.933 312.466 102.03V103.794C312.466 103.89 312.546 103.968 312.647 103.968H317.201C317.302 103.968 317.384 103.89 317.384 103.794V102.03C317.384 101.933 317.302 101.855 317.201 101.855Z" fill="#DEB976"/>
<path d="M311.177 101.856H308.455C308.396 101.856 308.346 101.934 308.346 102.03V103.794C308.346 103.891 308.396 103.969 308.455 103.969H311.177C311.238 103.969 311.286 103.891 311.286 103.794V102.03C311.286 101.934 311.238 101.856 311.177 101.856Z" fill="#DEB976"/>
<path d="M323.139 109.252H314.032C313.831 109.252 313.667 109.33 313.667 109.426V111.19C313.667 111.287 313.831 111.365 314.032 111.365H323.139C323.342 111.365 323.505 111.287 323.505 111.19V109.426C323.505 109.33 323.342 109.252 323.139 109.252Z" fill="#DEB976"/>
<path d="M311.506 109.252H306.951C306.849 109.252 306.769 109.33 306.769 109.427V111.191C306.769 111.287 306.849 111.365 306.951 111.365H311.506C311.607 111.365 311.687 111.287 311.687 111.191V109.427C311.687 109.33 311.607 109.252 311.506 109.252Z" fill="#DEB976"/>
<path d="M305.481 109.251H302.759C302.699 109.251 302.65 109.33 302.65 109.426V111.19C302.65 111.287 302.699 111.365 302.759 111.365H305.481C305.543 111.365 305.59 111.287 305.59 111.19V109.426C305.59 109.33 305.543 109.251 305.481 109.251Z" fill="#DEB976"/>
<path d="M333.568 115.285H324.459C324.258 115.285 324.095 115.363 324.095 115.459V117.223C324.095 117.32 324.258 117.398 324.459 117.398H333.568C333.77 117.398 333.932 117.32 333.932 117.223V115.459C333.932 115.363 333.77 115.285 333.568 115.285Z" fill="#DEB976"/>
<path d="M321.932 115.285H317.377C317.276 115.285 317.195 115.363 317.195 115.459V117.223C317.195 117.32 317.276 117.398 317.377 117.398H321.932C322.032 117.398 322.113 117.32 322.113 117.223V115.459C322.113 115.363 322.032 115.285 321.932 115.285Z" fill="#DEB976"/>
<path d="M315.906 115.286H313.186C313.124 115.286 313.076 115.363 313.076 115.46V117.224C313.076 117.32 313.124 117.399 313.186 117.399H315.906C315.966 117.399 316.015 117.32 316.015 117.224V115.46C316.015 115.363 315.966 115.286 315.906 115.286Z" fill="#DEB976"/>
<path d="M333.568 80.7678H324.459C324.258 80.7678 324.095 80.846 324.095 80.9423V82.7066C324.095 82.8031 324.258 82.8812 324.459 82.8812H333.568C333.77 82.8812 333.932 82.8031 333.932 82.7066V80.9423C333.932 80.846 333.77 80.7678 333.568 80.7678Z" fill="#DEB976"/>
<path d="M321.932 80.7681H317.377C317.276 80.7681 317.195 80.8461 317.195 80.9425V82.7067C317.195 82.8031 317.276 82.8812 317.377 82.8812H321.932C322.032 82.8812 322.113 82.8031 322.113 82.7067V80.9425C322.113 80.8461 322.032 80.7681 321.932 80.7681Z" fill="#DEB976"/>
<path d="M315.906 80.7684H313.186C313.124 80.7684 313.076 80.8467 313.076 80.9428V82.7071C313.076 82.8037 313.124 82.8816 313.186 82.8816H315.906C315.966 82.8816 316.015 82.8037 316.015 82.7071V80.9428C316.015 80.8467 315.966 80.7684 315.906 80.7684Z" fill="#DEB976"/>
<path d="M323.139 86.0067H314.032C313.831 86.0067 313.667 86.085 313.667 86.1813V87.9453C313.667 88.0418 313.831 88.1198 314.032 88.1198H323.139C323.342 88.1198 323.505 88.0418 323.505 87.9453V86.1813C323.505 86.085 323.342 86.0067 323.139 86.0067Z" fill="#DEB976"/>
<path d="M311.506 86.0073H306.951C306.849 86.0073 306.769 86.0855 306.769 86.1817V87.9459C306.769 88.0422 306.849 88.1202 306.951 88.1202H311.506C311.607 88.1202 311.687 88.0422 311.687 87.9459V86.1817C311.687 86.0855 311.607 86.0073 311.506 86.0073Z" fill="#DEB976"/>
<path d="M305.481 86.0066H302.759C302.699 86.0066 302.65 86.0847 302.65 86.1809V87.9451C302.65 88.0414 302.699 88.1196 302.759 88.1196H305.481C305.543 88.1196 305.59 88.0414 305.59 87.9451V86.1809C305.59 86.0847 305.543 86.0066 305.481 86.0066Z" fill="#DEB976"/>
<path d="M333.568 93.4024H324.459C324.258 93.4024 324.095 93.4807 324.095 93.577V95.3411C324.095 95.4374 324.258 95.5156 324.459 95.5156H333.568C333.77 95.5156 333.932 95.4374 333.932 95.3411V93.577C333.932 93.4807 333.77 93.4024 333.568 93.4024Z" fill="#DEB976"/>
<path d="M321.932 93.4028H317.377C317.276 93.4028 317.195 93.4809 317.195 93.5773V95.3414C317.195 95.4379 317.276 95.5159 317.377 95.5159H321.932C322.032 95.5159 322.113 95.4379 322.113 95.3414V93.5773C322.113 93.4809 322.032 93.4028 321.932 93.4028Z" fill="#DEB976"/>
<path d="M315.906 93.4034H313.186C313.124 93.4034 313.076 93.4815 313.076 93.5779V95.3419C313.076 95.4385 313.124 95.5166 313.186 95.5166H315.906C315.966 95.5166 316.015 95.4385 316.015 95.3419V93.5779C316.015 93.4815 315.966 93.4034 315.906 93.4034Z" fill="#DEB976"/>
<path d="M328.834 101.856H319.728C319.526 101.856 319.362 101.934 319.362 102.03V103.794C319.362 103.891 319.526 103.969 319.728 103.969H328.834C329.036 103.969 329.2 103.891 329.2 103.794V102.03C329.2 101.934 329.036 101.856 328.834 101.856Z" fill="#DEB976"/>
<path d="M317.201 101.855H312.647C312.546 101.855 312.466 101.933 312.466 102.03V103.794C312.466 103.89 312.546 103.968 312.647 103.968H317.201C317.302 103.968 317.384 103.89 317.384 103.794V102.03C317.384 101.933 317.302 101.855 317.201 101.855Z" fill="#DEB976"/>
<path d="M311.177 101.856H308.455C308.396 101.856 308.346 101.934 308.346 102.03V103.794C308.346 103.891 308.396 103.969 308.455 103.969H311.177C311.238 103.969 311.286 103.891 311.286 103.794V102.03C311.286 101.934 311.238 101.856 311.177 101.856Z" fill="#DEB976"/>
<path d="M323.139 109.252H314.032C313.831 109.252 313.667 109.33 313.667 109.426V111.19C313.667 111.287 313.831 111.365 314.032 111.365H323.139C323.342 111.365 323.505 111.287 323.505 111.19V109.426C323.505 109.33 323.342 109.252 323.139 109.252Z" fill="#DEB976"/>
<path d="M311.506 109.252H306.951C306.849 109.252 306.769 109.33 306.769 109.427V111.191C306.769 111.287 306.849 111.365 306.951 111.365H311.506C311.607 111.365 311.687 111.287 311.687 111.191V109.427C311.687 109.33 311.607 109.252 311.506 109.252Z" fill="#DEB976"/>
<path d="M305.481 109.251H302.759C302.699 109.251 302.65 109.33 302.65 109.426V111.19C302.65 111.287 302.699 111.365 302.759 111.365H305.481C305.543 111.365 305.59 111.287 305.59 111.19V109.426C305.59 109.33 305.543 109.251 305.481 109.251Z" fill="#DEB976"/>
<path d="M333.568 115.285H324.459C324.258 115.285 324.095 115.363 324.095 115.459V117.223C324.095 117.32 324.258 117.398 324.459 117.398H333.568C333.77 117.398 333.932 117.32 333.932 117.223V115.459C333.932 115.363 333.77 115.285 333.568 115.285Z" fill="#DEB976"/>
<path d="M321.932 115.285H317.377C317.276 115.285 317.195 115.363 317.195 115.459V117.223C317.195 117.32 317.276 117.398 317.377 117.398H321.932C322.032 117.398 322.113 117.32 322.113 117.223V115.459C322.113 115.363 322.032 115.285 321.932 115.285Z" fill="#DEB976"/>
<path d="M315.906 115.286H313.186C313.124 115.286 313.076 115.363 313.076 115.46V117.224C313.076 117.32 313.124 117.399 313.186 117.399H315.906C315.966 117.399 316.015 117.32 316.015 117.224V115.46C316.015 115.363 315.966 115.286 315.906 115.286Z" fill="#DEB976"/>
<path d="M327.859 152.504H325.711V158.118H327.859V152.504Z" fill="#DEB976"/>
<path d="M323.592 156.142H321.444V159.782H323.592V156.142Z" fill="#DEB976"/>
<path d="M332.153 156.142H330.005V159.782H332.153V156.142Z" fill="#DEB976"/>
<path d="M314.51 159.782H312.362V154.166H314.51V159.782Z" fill="#DEB976"/>
<path d="M310.242 156.142H308.095V152.504H310.242V156.142Z" fill="#DEB976"/>
<path d="M318.803 156.142H316.656V152.504H318.803V156.142Z" fill="#DEB976"/>
<path d="M312.343 185.21H314.49V190.825H312.343V185.21Z" fill="#DEB976"/>
<path d="M316.608 188.849H318.756V192.488H316.608V188.849Z" fill="#DEB976"/>
<path d="M308.048 188.849H310.195V192.488H308.048V188.849Z" fill="#DEB976"/>
<path d="M325.692 192.488H327.84V186.874H325.692V192.488Z" fill="#DEB976"/>
<path d="M329.958 188.849H332.105V185.21H329.958V188.849" fill="#DEB976"/>
<path d="M321.397 188.849H323.545V185.21H321.397V188.849Z" fill="#DEB976"/>
<path d="M312.343 185.21H314.49V190.825H312.343V185.21Z" fill="#DEB976"/>
<path d="M316.608 188.849H318.756V192.488H316.608V188.849Z" fill="#DEB976"/>
<path d="M308.048 188.849H310.195V192.488H308.048V188.849Z" fill="#DEB976"/>
<path d="M325.692 192.488H327.84V186.874H325.692V192.488Z" fill="#DEB976"/>
<path d="M329.958 188.849H332.105V185.21H329.958V188.849" fill="#DEB976"/>
<path d="M321.397 188.849H323.545V185.21H321.397V188.849Z" fill="#DEB976"/>
<path d="M340.15 185.21H342.299V190.825H340.15V185.21Z" fill="#DEB976"/>
<path d="M344.419 188.849H346.567V192.488H344.419V188.849Z" fill="#DEB976"/>
<path d="M335.855 188.849H338.003V192.488H335.855V188.849Z" fill="#DEB976"/>
<path d="M353.502 192.487H355.649V186.874H353.502V192.487Z" fill="#DEB976"/>
<path d="M357.767 188.849H359.916V185.21H357.767V188.849Z" fill="#DEB976"/>
<path d="M349.206 188.849H351.353V185.21H349.206V188.849Z" fill="#DEB976"/>
<path d="M340.15 185.21H342.299V190.825H340.15V185.21Z" fill="#DEB976"/>
<path d="M344.419 188.849H346.567V192.488H344.419V188.849Z" fill="#DEB976"/>
<path d="M335.855 188.849H338.003V192.488H335.855V188.849Z" fill="#DEB976"/>
<path d="M353.502 192.487H355.649V186.874H353.502V192.487Z" fill="#DEB976"/>
<path d="M357.767 188.849H359.916V185.21H357.767V188.849Z" fill="#DEB976"/>
<path d="M349.206 188.849H351.353V185.21H349.206V188.849Z" fill="#DEB976"/>
<path d="M312.537 192.488H314.684V198.103H312.537V192.488Z" fill="#DEB976"/>
<path d="M316.805 196.127H318.951V199.765H316.805V196.127Z" fill="#DEB976"/>
<path d="M308.241 196.127H310.389V199.765H308.241V196.127Z" fill="#DEB976"/>
<path d="M325.886 199.765H328.033V194.15H325.886V199.765Z" fill="#DEB976"/>
<path d="M330.154 196.125H332.301V192.488H330.154V196.125Z" fill="#DEB976"/>
<path d="M321.591 196.125H323.738V192.488H321.591V196.125" fill="#DEB976"/>
<path d="M312.537 192.488H314.684V198.103H312.537V192.488Z" fill="#DEB976"/>
<path d="M316.805 196.127H318.951V199.765H316.805V196.127Z" fill="#DEB976"/>
<path d="M308.241 196.127H310.389V199.765H308.241V196.127Z" fill="#DEB976"/>
<path d="M325.886 199.765H328.033V194.15H325.886V199.765Z" fill="#DEB976"/>
<path d="M330.154 196.125H332.301V192.488H330.154V196.125Z" fill="#DEB976"/>
<path d="M321.591 196.125H323.738V192.488H321.591V196.125" fill="#DEB976"/>
<path d="M340.348 192.488H342.495V198.103H340.348V192.488Z" fill="#DEB976"/>
<path d="M344.613 196.126H346.76V199.765H344.613V196.126Z" fill="#DEB976"/>
<path d="M336.052 196.127H338.199V199.765H336.052V196.127Z" fill="#DEB976"/>
<path d="M353.697 199.765H355.845V194.15H353.697V199.765Z" fill="#DEB976"/>
<path d="M357.962 196.125H360.109V192.488H357.962V196.125Z" fill="#DEB976"/>
<path d="M349.401 196.125H351.549V192.488H349.401V196.125Z" fill="#DEB976"/>
<path d="M340.348 192.488H342.495V198.103H340.348V192.488Z" fill="#DEB976"/>
<path d="M344.613 196.126H346.76V199.765H344.613V196.126Z" fill="#DEB976"/>
<path d="M336.052 196.127H338.199V199.765H336.052V196.127Z" fill="#DEB976"/>
<path d="M353.697 199.765H355.845V194.15H353.697V199.765Z" fill="#DEB976"/>
<path d="M357.962 196.125H360.109V192.488H357.962V196.125Z" fill="#DEB976"/>
<path d="M349.401 196.125H351.549V192.488H349.401V196.125Z" fill="#DEB976"/>
<path d="M257.374 122.164H258.419V156.799H257.374V122.164Z" fill="#DEB976"/>
<path d="M258.939 122.164H259.983V156.799H258.939V122.164Z" fill="#DEB976"/>
<path d="M260.505 122.163H261.548V156.799H260.505V122.163Z" fill="#DEB976"/>
<path d="M262.591 122.163H263.634V140.796H262.591V122.163Z" fill="#DEB976"/>
<path d="M264.157 122.163H265.2V140.797H264.157V122.163Z" fill="#DEB976"/>
<path d="M265.425 54.1519L247.106 51.5942C247.106 51.5942 245.29 47.5139 241.911 45.9522C238.531 44.3918 233.587 45.3502 233.587 45.3502C233.587 45.3502 231.059 37.6189 220.051 37.849C209.04 38.0791 204.569 50.595 204.569 50.595L182.175 54.1519H265.425" fill="#FFD03F"/>
<path d="M39.6284 68.3433L59.1583 65.045C59.1583 65.045 63.0575 53.4378 72.6591 53.2243C82.2606 53.0094 84.466 60.1795 84.466 60.1795C84.466 60.1795 88.7767 59.2918 91.7242 60.7395C94.6716 62.1872 96.2558 65.9716 96.2558 65.9716L112.231 68.3433H39.6284Z" fill="#FFD03F"/>
<path d="M198.583 96.6952L233.365 97.287L225.993 95.4268C225.993 95.4268 225.546 92.462 221.89 92.2216C219.248 92.048 217.355 93.4469 217.355 93.4469C217.355 93.4469 215.932 88.5956 207.736 88.9361C198.618 89.3149 198.583 96.6952 198.583 96.6952" fill="#FFD03F"/>
<path d="M148.151 136.018C144.22 136.02 144.65 139.759 144.65 139.759L145.541 144.033L135.508 151.514L133.767 165.608L138.4 170.081L136.21 177.65L134.397 198.348L124.419 217.316L129.703 217.618L139.94 200.528L144.955 179.902L151.323 192.212L160.029 217.618L171.107 214.591L163.098 211.335L157.954 185.654L152.357 175.216L151.726 157.394L155.385 162.565L166.445 175.142L167.198 178.695L160.502 180.388L160.79 193.831L178.67 194.043L178.515 180.604L172.367 179.179L171.107 174.35L168.607 171.374L159.406 159.56L154.072 149.621L149.387 144.543L151.651 143.803L151.591 140.45C151.591 140.45 152.195 136.017 148.151 136.018" fill="#BB7B1B"/>
<path d="M330.681 145.028L336.359 150.109L341.346 155.623L342.979 168.606L343.287 170.649L350.412 171.083L351.598 182.944L333.718 183.613L336.637 171.686L339.148 170.28L338.919 158.509L332.006 152.65L329.954 160.456L335.161 177.709L330.703 180.694L326.751 194.046C326.751 194.046 330.552 198.665 331.799 202.034C333.045 205.404 332.78 212.162 332.78 212.162L334.892 214.958L332.78 215.738C332.78 215.738 330.584 217.361 328.936 217.589C327.284 217.816 326.179 216.646 326.179 216.646L329.217 215.023L330.601 212.942L320.947 194.372L324.247 180.757L322.935 183.031L315.737 191.819C315.737 191.819 317.105 198.487 315.737 201.866C314.372 205.249 309.611 215.152 309.611 215.152L307.465 214.968L306.598 212.942L304.596 212.683L303.144 209.497C303.144 209.497 302.866 208.669 302.968 208.003C303.065 207.337 303.539 206.833 303.539 206.833L306.082 209.842L308.688 210.604L311.406 189.222L315.763 180.392L311.928 177.605L322.925 160.853L321.762 156.765L320.625 152.85L315.248 160.978L311.809 161.97L309.885 150.109L309.933 146.822L311.337 149.214L312.814 148.688L311.678 152.65L313.136 156.887L317.48 150.388L320.312 146.763L326.809 144.659L327.709 142.824C327.709 142.824 324.463 142.918 324.191 142.01C323.917 141.101 323.915 138.288 323.915 138.288C323.915 138.288 322.907 134.691 323.623 133.889C324.342 133.087 327.804 133.003 327.804 133.003C327.804 133.003 330.228 131.462 331.641 132.25C333.054 133.038 333.667 133.509 333.9 135.878C334.13 138.249 332.648 138.071 333.852 139.939C335.058 141.806 336.777 142.549 336.777 142.549C336.777 142.549 334.232 143.353 333.447 143.358C332.661 143.364 330.815 142.59 330.815 142.59L330.681 145.028" fill="#BB7B1B"/>
<path d="M88.3661 201.063L52.4268 195.172L50.7247 172.216L21.2982 168.192L20.0324 162.812L14.5966 162.395L11.5365 166.857L0 165.278V212.186H38.7785C38.7785 215.187 41.5536 217.618 44.9768 217.618C48.4 217.618 51.1751 215.187 51.1751 212.186H53.688L88.6885 211.442L88.3661 201.063" fill="#BB7B1B"/>
<path d="M216.989 152.94C220.101 152.941 219.114 156.169 219.114 156.169L218.409 159.541L221.339 161.719L223.553 161.16L226.958 162.262L226.349 165.445L228.234 175.18L223.765 177.74L224.895 182.385L227.228 202.409L235.125 217.38L230.942 217.618L222.842 204.131L218.873 187.851L213.834 197.567L206.943 217.618L196.169 215.305L204.999 212.647L208.586 192.392L213.014 184.154L212.804 169.928L208.629 174.774L201.849 168.022L202.544 167.317L201.219 165.471L201.207 164.296L201.683 163.061L202.641 164.304L203.489 163.978L204.38 166.967L208.36 169.724L211.657 163.953L215.366 159.945L213.574 159.362L213.621 156.715L213.658 155.17L210.636 154.858L213.658 154.436L214.372 152.837C214.372 152.837 215.771 152.757 216.292 152.757L216.989 152.94" fill="#BB7B1B"/>
<path d="M103.494 210.418V213.073C103.953 212.628 104.46 212.685 104.981 212.922L107.449 215.426L117.747 218.708C117.992 218.862 118.186 219.027 118.333 219.205C118.662 219.6 118.535 219.935 118.535 220.44C118.535 221.022 95.6838 220.605 95.6838 220.298C95.6838 219.02 95.6838 215.877 95.6838 214.7C95.6838 214.45 95.8981 214.246 96.1602 214.246V210.418H103.494" fill="#2445AC"/>
<path d="M95.6838 219.551V220.298L118.409 221.047C118.409 221.047 118.581 220.298 118.565 220.298L95.6838 219.551" fill="#140808"/>
<path d="M107.676 215.542L106.054 216.486L105.501 216.047L107.023 215.159C107.301 215.195 107.52 215.32 107.676 215.542" fill="#140808"/>
<path d="M108.689 215.856L107.318 217.111L106.679 216.798L107.965 215.617C108.245 215.594 108.487 215.672 108.689 215.856Z" fill="#140808"/>
<path d="M109.739 216.192L108.399 217.479L107.753 217.179L109.009 215.97C109.288 215.941 109.532 216.011 109.739 216.192" fill="#140808"/>
<path d="M103.494 210.418V213.073C103.494 213.073 102.984 213.542 103.103 213.785C103.239 214.065 104.312 214.747 104.312 214.747C101.195 215.741 98.4492 215.68 96.1686 214.305V210.418H103.494Z" fill="white"/>
<path d="M103.494 212.211L96.1686 210.418H103.494V212.211Z" fill="#676A6A"/>
<path d="M95.6847 220.298L96.7739 222.534H100.241L101.939 221.747L105.214 222.534L108.566 222.254L110.49 222.534L112.007 222.254L113.502 222.835L114.682 222.534L118.022 222.835L118.559 221.047L95.6847 220.298" fill="#CFCFCF"/>
<path d="M68.6479 203.813L68.6473 206.536C69.2743 206.361 69.6886 206.645 70.0241 207.095L70.9113 210.43C72.6223 214.022 78.1645 217.386 78.5103 218.789C78.6807 219.477 78.0294 220.078 77.7729 220.52C77.4777 221.029 57.9973 209.496 58.1532 209.227C58.8014 208.11 60.3955 205.362 60.9929 204.332C61.1201 204.112 61.4108 204.036 61.6399 204.156L63.5819 200.809L68.6479 203.813Z" fill="#2445AC"/>
<path d="M58.5322 208.572L58.1533 209.227L77.7735 220.536L78.205 219.907L58.5322 208.572Z" fill="#140808"/>
<path d="M71.051 210.637L69.1544 210.709L68.8929 210.069L70.674 210C70.8988 210.161 71.0266 210.371 71.051 210.637Z" fill="#140808"/>
<path d="M71.7775 211.383L69.9415 211.843L69.5422 211.273L71.2657 210.838C71.5215 210.948 71.6938 211.128 71.7775 211.383" fill="#140808"/>
<path d="M72.5251 212.163L70.7012 212.667L70.2877 212.105L71.9999 211.63C72.2582 211.736 72.435 211.91 72.5251 212.163Z" fill="#140808"/>
<path d="M68.6469 203.678L68.6474 206.536C68.6474 206.536 67.9635 206.71 67.9444 206.978C67.9213 207.285 68.5136 208.38 68.5136 208.38C65.2834 207.802 62.914 206.474 61.618 204.211L63.5895 200.814L68.6469 203.678" fill="white"/>
<path d="M68.6474 205.731L61.6184 204.043L68.6479 203.813L68.6474 205.731Z" fill="#676A6A"/>
<path d="M58.1537 209.227L57.9715 211.688L61.0028 213.298L62.8856 213.4L65.351 215.608L68.4234 216.92L69.9636 218.059L71.4313 218.517L72.4445 219.72L73.6288 220.005L76.3956 221.818L77.7719 220.505L58.1537 209.227" fill="#CFCFCF"/>
<path d="M90.4761 124.859V160.356L69.2411 204.043H60.4344L77.8321 156.564L75.941 126.518L90.4761 124.859" fill="#1E1E26"/>
<path d="M103.046 123.2L103.046 125.809L109.95 158.895L104.625 210.673L94.5188 210.711L97.0722 160.632L90.1975 140.85L87.8522 124.842L103.046 123.2" fill="#1E1E26"/>
<path d="M76.9718 133.528L79.4427 130.098H80.1048L77.4024 133.91L76.9718 133.528Z" fill="#650B00"/>
<path d="M75.9199 126.548L76.1212 129.432L103.573 128.108L103.009 124.931L75.9199 126.548Z" fill="black"/>
<path d="M87.161 125.886L93.135 125.601L93.2908 128.583L87.3167 128.869L87.161 125.886" fill="black"/>
<path d="M77.2012 126.45L78.0434 126.382L78.3103 129.432L77.4682 129.499L77.2012 126.45" fill="#882A1F"/>
<path d="M81.9659 125.954L82.8081 125.886L83.1125 129.365L82.2705 129.432L81.9659 125.954" fill="#882A1F"/>
<path d="M97.201 124.998L98.043 124.931L98.3569 128.516L97.5148 128.583L97.201 124.998Z" fill="#882A1F"/>
<path d="M100.986 88.7975C100.986 86.1617 98.947 83.9332 96.2165 83.5847C93.6916 83.2625 90.8028 82.8938 89.2652 82.6972C88.5374 82.6045 87.7987 82.6263 87.078 82.7609C84.5266 83.2369 78.094 84.4376 74.3657 85.1335C72.5794 85.4671 71.0055 86.4669 69.9913 87.913C68.1622 90.5208 65.4016 94.4564 65.4016 94.4564H69.7638C69.7638 94.4564 68.5161 98.1325 67.5277 101.044C67.2522 101.855 67.3994 102.744 67.9235 103.434C68.4477 104.124 69.2855 104.532 70.1772 104.532H70.3339V117.755C70.3339 118.779 70.7703 119.759 71.5425 120.468C72.3146 121.178 73.3557 121.555 74.4254 121.513C82.7731 121.188 100.986 120.478 100.986 120.478V88.7975" fill="#2E2E2E"/>
<path d="M96.0262 73.6646C96.0262 70.6065 93.625 68.1289 90.663 68.1289H90.2894C87.3272 68.1289 84.9261 70.6065 84.9261 73.6646V85.2381L88.3914 87.6505L91.4462 85.5194L91.6139 81.2695H93.2646C94.7899 81.2695 96.0262 79.9938 96.0262 78.4199C96.0262 77.0269 96.0262 75.3009 96.0262 73.6646" fill="#F3D0C5"/>
<path d="M92.6775 74.6003C92.6775 74.3541 92.5385 74.1528 92.3669 74.1528C92.1954 74.1528 92.0563 74.3541 92.0563 74.6003C92.0563 74.8479 92.1954 75.0491 92.3669 75.0491C92.5385 75.0491 92.6775 74.8479 92.6775 74.6003Z" fill="black"/>
<path d="M95.245 74.7883C95.245 74.5407 95.3517 74.3409 95.4832 74.3409C95.6148 74.3409 95.7215 74.5407 95.7215 74.7883C95.7215 75.0359 95.6148 75.2358 95.4832 75.2358C95.3517 75.2358 95.245 75.0359 95.245 74.7883Z" fill="black"/>
<path d="M93.0883 72.7249V73.1752H91.6837L90.8105 73.627L91.5114 72.7249L92.9159 72.7843L93.0883 72.7249" fill="black"/>
<path d="M94.9305 72.9131V73.2534H95.8602L96.0079 73.3635L95.9535 73.0695L95.0627 72.9725L94.9305 72.9131" fill="black"/>
<path d="M91.6146 81.3462L88.7867 80.9958L91.5162 83.6151L91.6146 81.3462Z" fill="#5F330F"/>
<path d="M85.5125 74.4468L84.9326 73.4158C84.9326 73.4158 83.9064 73.4896 83.8953 74.4294C83.8857 75.2156 84.1062 75.6674 84.3266 75.8948C84.524 76.096 85.2213 75.7905 85.2213 75.7905L85.5125 74.4468" fill="#F3D0C5"/>
<path d="M84.2209 74.1844C84.2209 74.1844 84.6421 73.9498 84.8045 74.083C84.9857 74.2336 85.0409 74.8621 84.9258 75.1589C84.7872 75.5209 84.029 75.3515 84.1405 74.9229C84.1937 74.7115 84.3764 74.7419 84.4795 74.8606C84.5415 74.933 84.674 75.0793 84.7393 74.8635C84.8137 74.6159 84.822 74.3639 84.7474 74.1902C84.6879 74.057 84.2209 74.1844 84.2209 74.1844" fill="#A66F41"/>
<path d="M96.0849 69.1037C96.0849 68.2132 95.7506 67.3588 95.1556 66.729C94.5606 66.0991 93.7536 65.7458 92.9122 65.7458C91.15 65.7458 88.9647 65.7458 87.2024 65.7458C86.361 65.7458 85.554 66.0991 84.959 66.729C84.3641 67.3588 84.0297 68.2132 84.0297 69.1037C84.0297 70.236 84.0297 71.2178 84.0297 71.2178H96.0849V69.1037" fill="#882A1F"/>
<path d="M85.2622 73.5212L85.4683 74.0338L85.8152 75.5411L86.6609 75.6961L86.5043 73.5212L88.3391 72.3512L87.8633 71.8545L89.2816 71.5924L89.0656 71.2073H84.0498L82.3871 74.0338L83.758 76.5707L84.9408 77.8087V75.864C84.9408 75.864 84.6028 75.9712 84.5132 75.864C84.3648 75.6888 84.1098 75.1545 84.0498 74.8099C83.9929 74.4841 83.9514 74.0092 84.1535 73.7978C84.3555 73.5878 85.2622 73.5212 85.2622 73.5212" fill="black"/>
<path d="M89.1857 71.2178L94.5745 69.4541C98.0928 68.885 100.161 69.3165 101.27 70.8746L96.1101 71.2178H89.1857" fill="#650B00"/>
<path d="M84.0338 70.1909H85.7908V70.7556H84.0338V70.1909Z" fill="#656464"/>
<path d="M84.7438 83.6916L88.9496 84.9641L91.9666 83.6916L103.612 87.0769L103.046 111.186V123.571L75.9409 124.842L76.8487 116.659L72.093 88.2433L84.7438 83.6916" fill="#66806D"/>
<path d="M75.9408 124.842V126.518L103.046 124.842V123.2L75.9408 124.842Z" fill="#9ABAA2"/>
<path d="M83.7251 84.0581C83.9892 83.8209 84.451 83.6778 84.8794 83.6916C84.8794 83.6916 87.8183 84.6141 89.0035 84.6141C90.0562 84.6141 91.5301 83.6916 91.5301 83.6916C92.3691 83.5791 92.8996 83.8301 93.3591 84.0581C93.3591 84.0581 90.6105 86.0981 89.0035 86.0981C87.3965 86.0981 83.7251 84.0581 83.7251 84.0581" fill="#9ABAA2"/>
<path d="M81.3028 92.5304L82.6351 94.0594L81.3028 95.5884L79.9703 94.0594L81.3028 92.5304Z" fill="#9ABAA2"/>
<path d="M89.6986 92.3423L91.0309 93.8716L89.6986 95.4004L88.3661 93.8716L89.6986 92.3423Z" fill="#9ABAA2"/>
<path d="M81.8094 98.8346L83.1417 100.364L81.8094 101.893L80.4769 100.364L81.8094 98.8346Z" fill="#9ABAA2"/>
<path d="M87.5405 106.489L88.8728 108.018L87.5405 109.547L86.208 108.018L87.5405 106.489Z" fill="#9ABAA2"/>
<path d="M89.7397 98.6368L91.072 100.166L89.7397 101.695L88.4073 100.166L89.7397 98.6368Z" fill="#9ABAA2"/>
<path d="M83.5771 95.9645L84.9094 97.4936L83.5771 99.0224L82.2446 97.4936L83.5771 95.9645Z" fill="#9ABAA2"/>
<path d="M91.973 95.7765L93.3053 97.3056L91.973 98.8345L90.6405 97.3056L91.973 95.7765Z" fill="#9ABAA2"/>
<path d="M84.0842 102.269L85.4165 103.798L84.0842 105.327L82.7518 103.798L84.0842 102.269Z" fill="#9ABAA2"/>
<path d="M89.815 109.923L91.1473 111.452L89.815 112.981L88.4825 111.452L89.815 109.923Z" fill="#9ABAA2"/>
<path d="M92.0145 102.071L93.3468 103.6L92.0145 105.129L90.682 103.6L92.0145 102.071Z" fill="#9ABAA2"/>
<path d="M85.7013 92.5304L87.0337 94.0594L85.7013 95.5884L84.3689 94.0594L85.7013 92.5304Z" fill="#9ABAA2"/>
<path d="M94.0972 92.3423L95.4295 93.8716L94.0972 95.4004L92.7647 93.8716L94.0972 92.3423Z" fill="#9ABAA2"/>
<path d="M86.2083 98.8346L87.5406 100.364L86.2083 101.893L84.8759 100.364L86.2083 98.8346Z" fill="#9ABAA2"/>
<path d="M91.9391 106.489L93.2714 108.018L91.9391 109.547L90.6067 108.018L91.9391 106.489Z" fill="#9ABAA2"/>
<path d="M94.1382 98.6368L95.4705 100.166L94.1382 101.695L92.8058 100.166L94.1382 98.6368Z" fill="#9ABAA2"/>
<path d="M88.3661 95.9645L89.6984 97.4936L88.3661 99.0224L87.0336 97.4936L88.3661 95.9645Z" fill="#9ABAA2"/>
<path d="M96.7619 95.7765L98.0942 97.3056L96.7619 98.8345L95.4294 97.3056L96.7619 95.7765Z" fill="#9ABAA2"/>
<path d="M88.873 102.269L90.2053 103.798L88.873 105.327L87.5405 103.798L88.873 102.269Z" fill="#9ABAA2"/>
<path d="M94.6041 109.923L95.9364 111.452L94.6041 112.981L93.2716 111.452L94.6041 109.923Z" fill="#9ABAA2"/>
<path d="M96.8031 102.071L98.1354 103.6L96.8031 105.129L95.4706 103.6L96.8031 102.071Z" fill="#9ABAA2"/>
<path d="M119.252 82.1426L116.883 74.8432L116.573 72.7407C116.573 72.7407 116.746 72.7567 116.947 72.7769C117.318 72.8117 117.632 73.0549 117.744 73.3952C117.945 73.999 118.234 74.878 118.234 74.878L119.374 75.547L120.254 70.5137C120.254 70.5137 120.297 69.7086 120.319 69.2728C120.322 69.2018 120.357 69.1352 120.414 69.0889C120.47 69.0425 120.545 69.0208 120.619 69.0295C120.735 69.0425 120.826 69.1265 120.846 69.2351C120.913 69.5957 121.054 70.3631 121.054 70.3631L121.187 72.1065L121.34 70.7932C121.34 70.7932 121.21 69.7723 121.222 69.3741C121.224 69.3032 121.256 69.2337 121.311 69.1844C121.366 69.1352 121.44 69.1092 121.515 69.1106C121.525 69.1106 121.533 69.1106 121.54 69.112C121.67 69.1164 121.78 69.2047 121.807 69.3263C121.908 69.7752 122.14 70.8048 122.14 70.8048C122.14 70.8048 122.171 70.4949 122.201 70.2125C122.209 70.1358 122.265 70.0692 122.342 70.0446C122.419 70.0214 122.506 70.0431 122.559 70.101C122.573 70.1141 122.584 70.1271 122.594 70.1358C122.614 70.1575 122.629 70.1836 122.637 70.2111C122.734 70.521 123.335 72.428 123.335 72.428L123.676 72.3005L124.295 74.7752L122.728 83.7479L119.252 82.1426" fill="#F3D0C5"/>
<path d="M103.563 87.0451L116.033 95.6363L118.161 81.5724L123.387 82.4412C123.387 82.4412 123.91 99.5568 121.25 101.695C119.357 103.216 103.046 98.6367 103.046 98.6367L103.563 87.0451Z" fill="#9ABAA2"/>
<path d="M72.4796 88.0389C70.4385 88.0389 67.3318 92.879 66.7287 95.9193C66.2594 98.2858 62.9045 107.274 63.0348 111.863C63.1502 115.927 67.0047 116.27 68.9267 115.22C71.5126 113.806 78.3405 103.631 78.3405 103.631L74.3261 98.8851C74.3261 98.8851 75.239 92.9375 74.8834 91.159C74.6704 90.0943 73.524 88.0389 72.4796 88.0389" fill="#9ABAA2"/>
<path d="M75.0054 92.7122L69.6776 102.5L68.8234 103.365L65.1277 106.225L68.3625 104.584L64.1323 109.184L65.9952 107.709L74.2945 99.0648L75.0054 92.7122" fill="#3D5B45"/>
<path d="M103.046 96.0569L106.984 99.6766L102.991 98.6365L103.046 96.0569Z" fill="#3D5B45"/>
<path d="M116.028 95.6496L117.665 97.2371L116.221 94.4565L116.028 95.6496Z" fill="#3D5B45"/>
<path d="M80.6446 85.0374C83.0317 92.5576 82.5073 102.52 81.6072 109.699L75.2367 118.155L73.2668 116.954L78.4191 109.699C78.9488 101.876 77.9459 94.4061 75.2368 86.9059C77.1631 84.9748 78.822 85.0372 80.6446 85.0374" fill="#494949"/>
<path d="M74.3196 98.9835L78.9798 91.5534L80.2497 89.8113C80.2497 89.8113 80.3648 89.9362 80.4982 90.0809C80.7442 90.3485 80.8011 90.7312 80.6417 91.0535C80.3583 91.6272 79.9451 92.4585 79.9451 92.4585L80.3039 93.6905L82.3654 92.7316L82.2708 92.2061C82.3409 91.9495 82.5383 91.8634 82.8852 91.981C83.4138 92.1072 84.5913 92.6831 84.9527 93.2446C85.1166 93.5001 85.3287 93.7105 85.3995 93.9576L85.6211 94.7449L84.4569 96.3325L76.9235 101.882L74.3196 98.9835" fill="#F3D0C5"/>
<path d="M96.7759 85.1788L102.449 109.18C103.153 109.242 103.541 108.53 103.518 106.817V87.0204C101.577 85.3133 99.4169 84.7392 96.7759 85.1788Z" fill="#494949"/>
<path d="M90.4767 141.865L93.0382 138.722L92.2624 147.193L90.4767 141.865Z" fill="#650B00"/>
<path d="M266.141 67.5032C266.141 64.446 268.541 61.9677 271.504 61.9677H271.879C274.84 61.9677 277.241 64.446 277.241 67.5032V79.0772L273.777 81.4897L270.72 79.3586L270.554 75.1088H268.902C267.378 75.1088 266.141 73.8328 266.141 72.2586C266.141 70.8661 266.141 69.1406 266.141 67.5032" fill="#F3D0C5"/>
<path d="M269.49 68.4402C269.49 68.193 269.629 67.9925 269.8 67.9925C269.972 67.9925 270.112 68.193 270.112 68.4402C270.112 68.6875 269.972 68.8881 269.8 68.8881C269.629 68.8881 269.49 68.6875 269.49 68.4402Z" fill="black"/>
<path d="M266.923 68.6272C266.923 68.3799 266.816 68.1793 266.685 68.1793C266.554 68.1793 266.446 68.3799 266.446 68.6272C266.446 68.8746 266.554 69.0749 266.685 69.0749C266.816 69.0749 266.923 68.8746 266.923 68.6272Z" fill="black"/>
<path d="M269.08 66.5641V67.0142H270.485L271.357 67.4655L270.656 66.5641L269.251 66.624L269.08 66.5641" fill="black"/>
<path d="M267.238 66.7511V67.0918H266.309L266.161 67.2014L266.215 66.9077L267.106 66.8113L267.238 66.7511" fill="black"/>
<path d="M276.012 69.0719L276.62 68.8873V68.1856L276.879 67.446L277.274 67.2756L277.51 64.9508L274.652 65.1023L274.378 66.2176L275.742 67.446L276.012 69.0719" fill="#565D6D"/>
<path d="M269.181 65.4844L268.775 64.5341L271.351 65.6429L271.226 65.0574H273.825L273.567 64.5341L274.7 65.4844L277.448 65.8312C277.448 65.8312 278.96 63.6712 278.804 63.0118C278.648 62.3527 276.478 61.2742 276.478 61.2742C276.478 61.2742 275.179 59.6311 272.985 59.6311C271.351 59.6311 267.669 61.392 267.526 61.4784C266.732 61.9579 266.495 63.4393 266.495 63.4393L269.181 65.4844" fill="black"/>
<path d="M266.848 62.3157C265.674 62.0086 263.925 63.9122 265.526 66.108L266.219 66.5555C266.39 65.4345 266.879 64.5591 267.687 63.9289L266.848 62.3157Z" fill="black"/>
<path d="M270.555 75.1852L273.382 74.8346L270.654 77.4537L270.555 75.1852Z" fill="#5F330F"/>
<path d="M276.657 68.2853L277.236 67.2539C277.236 67.2539 278.262 67.3273 278.274 68.2675C278.282 69.054 278.062 69.5056 277.842 69.7327C277.644 69.9348 276.947 69.6283 276.947 69.6283L276.657 68.2853Z" fill="#F3D0C5"/>
<path d="M277.947 68.0242C277.947 68.0242 277.526 67.7884 277.364 67.9218C277.183 68.0722 277.127 68.7008 277.243 68.9984C277.381 69.3594 278.139 69.1905 278.028 68.7619C277.975 68.5512 277.79 68.5808 277.688 68.7001C277.627 68.7714 277.494 68.9182 277.429 68.7029C277.354 68.4553 277.347 68.203 277.42 68.0299C277.48 67.8956 277.947 68.0242 277.947 68.0242" fill="#A66F41"/>
<path d="M256.13 142.727C256.13 142.727 263.642 146.474 267.371 146.655C270.816 146.825 278.511 143.822 278.511 143.822H295.632L286.584 112L264.023 112.862L251.172 130.735L256.13 142.727" fill="#650B00"/>
<path d="M280.77 208.42V211.733L279.23 219.769C279.338 220.091 279.47 220.728 279.47 220.728C281.655 223.035 286.698 223.853 289.474 221.081C289.474 221.081 289.645 220.491 289.645 220.297C289.645 218.277 287.148 211.177 287.148 211.177C287.066 210.229 287.036 209.301 287.148 208.42H280.77Z" fill="#560900"/>
<path d="M282.612 211.677H285.802V211.972H282.612V211.677Z" fill="black"/>
<path d="M282.665 212.246H285.854V212.54H282.665V212.246" fill="black"/>
<path d="M282.721 212.812H285.91V213.106H282.721V212.812Z" fill="black"/>
<path d="M282.775 213.379H285.964V213.673H282.775V213.379Z" fill="black"/>
<path d="M279.264 219.771L279.363 219.212C279.331 219.367 283.395 223.751 289.645 220.014V220.412C286.86 222.726 281.613 222.874 279.264 219.771" fill="black"/>
<path d="M280.696 208.468L280.784 210.913L282.107 211.425L282.336 210.799C283.363 210.201 284.761 210.257 285.809 210.799L285.954 211.425L287.131 211.176V208.468H280.696" fill="#808080"/>
<path d="M280.614 208.439L287.133 209.658V208.439H280.614Z" fill="#3A3A3A"/>
<path d="M259.038 207.327V209.981L254.87 212.443L244.786 215.618C244.542 215.77 244.347 215.937 244.2 216.113C243.871 216.51 243.81 217.053 244.046 217.506C244.281 217.96 244.769 218.242 245.298 218.229C249.37 218.142 263.265 217.837 266.271 217.77C266.592 217.764 266.849 217.514 266.849 217.207C266.849 215.929 266.849 212.787 266.849 211.61C266.849 211.358 266.635 211.155 266.373 211.155V207.327H259.038" fill="#560900"/>
<path d="M266.849 216.459V217.206L244.363 217.891C244.132 217.699 243.955 217.467 243.967 217.206L266.849 216.459Z" fill="#140808"/>
<path d="M254.859 212.45L256.48 213.394L257.033 212.957L255.512 212.068C255.234 212.104 255.015 212.228 254.859 212.45Z" fill="#140808"/>
<path d="M253.843 212.766L255.214 214.021L255.852 213.707L254.567 212.527C254.288 212.505 254.046 212.58 253.843 212.766Z" fill="#140808"/>
<path d="M252.795 213.101L254.134 214.387L254.782 214.087L253.525 212.878C253.245 212.851 253.001 212.922 252.795 213.101" fill="#140808"/>
<path d="M259.04 207.327V209.981C259.04 209.981 259.549 210.451 259.43 210.693C259.295 210.973 258.223 211.655 258.223 211.655C261.339 212.65 264.084 212.589 266.365 211.213V207.327H259.04Z" fill="#808080"/>
<path d="M259.04 209.12L266.366 207.327H259.04V209.12Z" fill="#3A3A3A"/>
<path d="M272.058 112.722V157.98L279.4 208.513H289.751L284.756 157.98L282.699 112.722H272.058" fill="#140808"/>
<path d="M262.667 114.068L254.816 154.29L256.184 207.476L268.014 207.478L266.778 154.29L272.334 126.453L273.625 114.068H262.667Z" fill="#140808"/>
<path d="M260.703 81.4899L270.551 79.0776L273.337 80.0171L277.515 78.7089L287.575 81.4899L282.679 107.419L284.66 117.999L272.702 111.574L262.667 117.129L264.133 108.778V93.4491L260.703 81.4899" fill="white"/>
<path d="M277.496 78.7134L274.37 81.6442H272.957L270.526 79.0859L269.305 79.5142L272.47 82.0364V82.9625L273.261 84.0194L271.325 96.3516L274.193 101.979L276.688 97.1559L274.37 83.797L275.019 82.9625L274.752 82.0364L278.24 79.8516L277.496 78.7134Z" fill="black"/>
<path d="M273.339 80.0165L275.284 80.2891L276.573 82.3171L277.581 79.174V78.664L273.339 80.0165" fill="white"/>
<path d="M273.314 80.0059L272.176 80.6052L271.231 82.6021L270.16 80.4005V79.2001L270.591 79.0604L273.314 80.0059" fill="white"/>
<path d="M260.415 81.4898L270.15 79.1762L271.004 87.2823L274.26 95.7392L276.923 87.9934L277.559 78.612L287.656 81.4898L298.484 87.2823L309.466 73.1025L314.267 77.7774C314.267 77.7774 303.497 93.407 299.965 94.5742C296.914 95.583 286.305 89.9555 286.305 89.9555L283.544 109.286L287.656 119.806H274.26L272.756 113.145L270.15 119.806L259.671 118.849L262.906 110.606V94.5742C262.906 94.5742 261.699 102.279 259.671 105.544C256.918 109.977 246.381 121.17 246.381 121.17L240.485 116.971L252.792 102.127L260.415 81.4898" fill="black"/>
<path d="M275.885 112.375H282.755V113.001H275.885V112.375Z" fill="#4C4242"/>
<path d="M263.531 112.383H270.399V113.009H263.531V112.383Z" fill="#4C4242"/>
<path d="M274.198 99.0673C274.198 98.7714 274.449 98.5315 274.759 98.5315C275.068 98.5315 275.318 98.7714 275.318 99.0673C275.318 99.3631 275.068 99.6029 274.759 99.6029C274.449 99.6029 274.198 99.3631 274.198 99.0673Z" fill="#4C4242"/>
<path d="M274.158 101.67C274.158 101.374 274.41 101.134 274.719 101.134C275.028 101.134 275.278 101.374 275.278 101.67C275.278 101.965 275.028 102.205 274.719 102.205C274.41 102.205 274.158 101.965 274.158 101.67Z" fill="#4C4242"/>
<path d="M274.118 104.272C274.118 103.976 274.368 103.736 274.677 103.736C274.987 103.736 275.237 103.976 275.237 104.272C275.237 104.568 274.987 104.808 274.677 104.808C274.368 104.808 274.118 104.568 274.118 104.272Z" fill="#4C4242"/>
<path d="M271.881 78.9969L275.088 81.8282L277.761 113.606L273.48 145.547C276.844 148.322 283.974 146.194 289.642 146.333C294.642 146.457 298.268 149.097 300.573 147.771C300.573 147.771 291.892 123.02 289.642 113.606C287.904 106.337 287.079 91.2855 287.079 91.2855C287.079 91.2855 296.77 96.7387 300.573 94.8496C304.973 92.6627 314.177 79.6029 314.177 79.6029L307.893 74.9178L298.528 87.0019L287.771 81.1439L279.621 78.9969L277.761 77.2013L274.02 78.4908L271.881 78.9969Z" fill="#882A1F"/>
<path d="M269.87 79.603L270.706 78.9637V77.7859L268.606 78.2528L265.801 78.6261L265.067 79.4429L266.08 78.9637L266.74 79.8639L260.18 81.4278L252.741 101.966L241.112 116.087L248.651 120.596L260.779 105.672L262.868 94.9359L262.197 110.637C257.114 118.185 252.54 125.428 251.346 130.653L260.18 118.764L268.606 93.3083L269.87 79.603" fill="#882A1F"/>
<path d="M262.87 94.9351L261.633 91.8502L261.765 100.863L262.87 94.9351Z" fill="#650B00"/>
<path d="M270.705 77.786L268.326 78.3183L265.839 78.627L266.841 79.9968L269.48 83.9276L269.842 79.661L270.705 79.0137V77.786" fill="#650B00"/>
<path d="M307.887 76.5204C307.887 76.3313 308.042 76.1779 308.235 76.1779C308.426 76.1779 308.583 76.3313 308.583 76.5204C308.583 76.7097 308.426 76.863 308.235 76.863C308.042 76.863 307.887 76.7097 307.887 76.5204Z" fill="#EEA0AA"/>
<path d="M307.234 77.3027C307.234 77.1136 307.391 76.9602 307.584 76.9602C307.774 76.9602 307.931 77.1136 307.931 77.3027C307.931 77.492 307.774 77.6454 307.584 77.6454C307.391 77.6454 307.234 77.492 307.234 77.3027Z" fill="#EEA0AA"/>
<path d="M306.583 78.0862C306.583 77.8969 306.739 77.7435 306.931 77.7435C307.124 77.7435 307.28 77.8969 307.28 78.0862C307.28 78.2753 307.124 78.4287 306.931 78.4287C306.739 78.4287 306.583 78.2753 306.583 78.0862Z" fill="#EEA0AA"/>
<path d="M291.366 131.217L296.763 147.77C296.763 147.77 298.92 148.376 299.676 148.073L291.366 131.217Z" fill="#650B00"/>
<path d="M287.078 91.2805L283.861 89.8346L287.15 93.5073L287.078 91.2805Z" fill="#650B00"/>
<path d="M289.583 126.863C289.583 126.774 289.473 126.691 289.286 126.639C289.1 126.586 288.858 126.572 288.64 126.599C285.38 127 282.093 126.991 278.781 126.595C278.563 126.568 278.323 126.583 278.138 126.636C277.953 126.688 277.843 126.771 277.843 126.859C277.843 126.894 277.843 126.928 277.843 126.96C277.843 127.081 278.046 127.188 278.346 127.224C281.906 127.649 285.479 127.611 289.062 127.22C289.37 127.186 289.581 127.078 289.581 126.954C289.583 126.925 289.583 126.894 289.583 126.863" fill="#EEA0AA"/>
<path d="M309.915 73.5158L310.488 65.8927L311.001 63.8261C311.001 63.8261 311.157 63.9018 311.336 63.9897C311.667 64.1519 311.866 64.488 311.843 64.844C311.798 65.4769 311.734 66.3955 311.734 66.3955L312.541 67.4153L315.276 63.0354C315.276 63.0354 315.623 62.301 315.81 61.9021C315.84 61.837 315.898 61.7872 315.968 61.7642C316.038 61.7412 316.116 61.7473 316.183 61.7806C316.284 61.8329 316.339 61.9428 316.315 62.0514C316.239 62.4107 316.079 63.1742 316.079 63.1742L315.539 64.844L316.183 63.675C316.183 63.675 316.45 62.678 316.612 62.3125C316.641 62.2458 316.697 62.193 316.768 62.1662C316.838 62.1391 316.916 62.1403 316.986 62.1692C316.994 62.1723 317.002 62.1754 317.009 62.1785C317.128 62.228 317.197 62.3485 317.175 62.4712C317.099 62.9254 316.922 63.964 316.922 63.964C316.922 63.964 317.07 63.6864 317.204 63.4347C317.241 63.3649 317.319 63.3227 317.399 63.3272C317.481 63.3317 317.553 63.3818 317.581 63.4549C317.588 63.4721 317.594 63.4873 317.6 63.5C317.61 63.5273 317.614 63.5563 317.612 63.585C317.584 63.9072 317.417 65.8927 317.417 65.8927H317.783L317.417 68.4135L312.541 76.2224L309.915 73.5158" fill="#F3D0C5"/>
<path d="M244.868 120.064L241.88 128.244L241.007 130.197C241.007 130.197 240.869 130.097 240.707 129.981C240.41 129.767 240.273 129.403 240.36 129.057C240.516 128.44 240.745 127.546 240.745 127.546L240.132 126.409L238.315 127.748L238.52 128.244C238.506 128.509 238.33 128.632 237.967 128.584C237.423 128.563 236.148 128.228 235.674 127.748C235.46 127.53 235.207 127.365 235.086 127.137L234.703 126.409L235.505 124.628L241.705 117.731L244.868 120.064" fill="#F3D0C5"/>
<path d="M235.037 125.711L230.365 128.281L230.16 132.611H231.763V129.401L235.037 126.971L234.749 126.459L235.037 125.711Z" fill="#2E2E2E"/>
<path d="M240.235 127.374L238.891 127.316L238.319 127.743L238.542 128.283L238.923 131.823H240.235V127.374Z" fill="#2E2E2E"/>
<path d="M252.203 134.595C252.203 133.592 251.866 132.632 251.264 131.922C250.662 131.214 249.847 130.817 248.998 130.817C243.042 130.817 230.334 130.817 224.377 130.817C223.526 130.817 222.711 131.214 222.109 131.922C221.507 132.632 221.17 133.592 221.17 134.595C221.17 139.07 221.17 146.483 221.17 150.957C221.17 151.961 221.507 152.921 222.109 153.631C222.711 154.339 223.526 154.735 224.377 154.735C230.334 154.735 243.042 154.735 248.998 154.735C249.847 154.735 250.662 154.339 251.264 153.631C251.866 152.921 252.203 151.961 252.203 150.957C252.203 146.483 252.203 139.07 252.203 134.595Z" fill="#3C3C3C"/>
<path d="M221.158 134.598H246.86V135.554H221.158V134.598Z" fill="#494949"/>
<path d="M251.687 134.387C251.687 133.899 251.518 133.432 251.22 133.087C250.922 132.743 250.516 132.55 250.093 132.55C249.973 132.55 249.875 132.641 249.874 132.756C249.849 134.641 249.659 148.87 249.618 152.064C249.615 152.231 249.682 152.391 249.808 152.513C249.929 152.632 250.096 152.698 250.272 152.698C250.34 152.698 250.41 152.698 250.471 152.698C251.109 152.698 251.687 151.411 251.687 150.674C251.687 147.276 251.687 138.278 251.687 134.387" fill="#2E2E2E"/>
<path d="M221.196 135.522H246.874L250 132.746L247.193 136.23H221.196V135.522" fill="#2E2E2E"/>
<path d="M231.844 133.256H235.108V142.584H231.844V133.256Z" fill="#494949"/>
<path d="M221.271 151.783H249.798L251.673 151.086C251.673 153.287 251.265 154.124 249.431 154.769H224.027C222.596 154.408 221.457 153.473 221.271 151.783Z" fill="#2E2E2E"/>
<path d="M125 216.5L129.645 216.894L131.645 221.894L123.5 218.5L125 216.5Z" fill="#BB7B1B"/>
<path d="M233 214L231.058 216.825L227.738 220.875L235.058 217.325L233 214Z" fill="#BB7B1B"/>
<defs>
<linearGradient id="paint0_linear_933_29" x1="172.272" y1="36.9172" x2="169.975" y2="192.651" gradientUnits="userSpaceOnUse">
<stop stop-color="#FFD03F"/>
<stop offset="1" stop-color="#DD9933"/>
</linearGradient>
</defs>
</svg>
