<svg width="768" height="229" viewBox="0 0 768 229" fill="none" xmlns="http://www.w3.org/2000/svg">
<path d="M0 157H161.867L768 189.5V229H0V157Z" fill="#DD9933"/>
<path d="M330.261 187.752C330.263 187.6 330.267 187.449 330.267 187.298C330.267 103.99 258.561 36.4547 170.105 36.4547C81.6509 36.4547 9.94418 103.99 9.94418 187.298C9.94418 187.449 9.94895 187.6 9.95103 187.752H330.261Z" fill="url(#paint0_linear_964_786)"/>
<path d="M362 202.273V126.905C362 126.713 361.836 126.556 361.636 126.556H349.652V78.0963C349.652 77.7674 349.445 77.4989 349.197 77.4989H342.088C342.288 77.4989 342.454 77.341 342.454 77.1483V70.7577C342.454 70.565 342.288 70.4071 342.088 70.4071H335.276C335.412 70.4071 335.523 70.3247 335.523 70.221V66.7746C335.523 66.6707 335.41 66.5885 335.276 66.5885H310.183C310.05 66.5885 309.943 66.6707 309.943 66.7746V70.221C309.943 70.3247 310.05 70.4071 310.183 70.4071H304.171C303.969 70.4071 303.807 70.565 303.807 70.7577V77.1483C303.807 77.341 303.969 77.4989 304.171 77.4989H296.64C296.389 77.4989 296.187 77.7674 296.187 78.0963V175.366C288.558 169.938 279.613 165.813 269.766 163.831V118.785C269.766 118.592 269.688 118.436 269.592 118.436H256.049C255.952 118.436 255.876 118.592 255.876 118.785V162.533C240.226 162.726 226.174 168.364 215.137 176.716V116.577C215.137 116.337 214.935 116.139 214.683 116.139H211.501C211.7 116.139 211.861 115.986 211.861 115.793V109.386C211.861 109.193 211.7 109.035 211.501 109.035H203.205C203.388 109.035 203.535 108.684 203.535 108.251V99.7566L179.853 89.1711C179.671 89.1711 179.523 89.5224 179.523 89.9546V108.251C179.523 108.684 179.671 109.035 179.853 109.035H176.038C175.835 109.035 175.676 109.193 175.676 109.386V115.793C175.676 115.986 175.835 116.139 176.038 116.139H162.128C161.876 116.139 161.677 116.337 161.677 116.577V186.511H158.821V180.869C158.821 180.677 158.657 180.52 158.456 180.52H146.079L141.278 67.7054C141.278 67.6103 142.562 64.5786 143.734 61.7957H148.251C148.313 61.7957 149.661 61.5414 149.717 60.3106C149.743 59.7632 149.47 59.3925 149.153 59.1418C151.969 57.9465 154.072 56.3224 155.116 54.4615H156.28C156.39 54.4615 158.72 53.9967 158.818 51.7643C158.917 49.5317 156.42 48.8592 156.28 48.8592H154.929C153.88 47.2062 151.978 45.7557 149.493 44.6464C149.914 44.4816 150.52 44.1139 150.557 43.287C150.615 42.0562 149.172 41.6809 149.09 41.6809L139.647 41.5899L139.331 25.4451H140.045C140.06 25.4451 140.375 25.3885 140.388 25.1075C140.394 24.9825 140.327 24.8963 140.253 24.839C140.91 24.5663 141.4 24.1985 141.643 23.7741H141.919C141.945 23.7741 142.488 23.6642 142.511 23.1549C142.533 22.6455 141.952 22.4925 141.919 22.4925H141.603C141.358 22.1154 140.914 21.7845 140.334 21.5313C140.432 21.4937 140.573 21.4127 140.582 21.2239C140.595 20.9432 140.258 20.8559 140.239 20.8559H138.537L138.415 20.1503L137.548 -0.000173326L136.671 20.8559H135.104C135.089 20.8559 134.833 20.9217 134.843 21.237C134.846 21.3527 134.891 21.4218 134.942 21.4709C134.29 21.7305 133.793 22.084 133.528 22.4925H133.041C133.013 22.4925 132.568 22.6133 132.585 23.1854C132.599 23.682 133.01 23.7741 133.041 23.7741H133.483C133.715 24.1792 134.176 24.5314 134.788 24.8001C134.716 24.853 134.643 24.9498 134.648 25.1249C134.656 25.3987 134.892 25.4451 134.91 25.4451H135.795L135.285 41.7156L127.089 41.6809C127.02 41.6809 125.919 41.9743 125.96 43.3565C125.975 43.8629 126.173 44.1643 126.393 44.3781C123.599 45.5168 121.464 47.0696 120.328 48.8592H118.228C118.11 48.8592 116.202 49.3869 116.273 51.894C116.334 54.0709 118.096 54.4615 118.228 54.4615H120.143C121.138 56.2367 123.105 57.791 125.729 58.9685C125.42 59.2004 125.097 59.6135 125.12 60.3799C125.155 61.58 126.172 61.7957 126.249 61.7957H130.986C132.138 64.4312 133.424 67.3532 133.424 67.4455L128.527 180.52H99.4991C99.1411 162.768 98.7887 145.715 98.756 145.715L75.4435 133.05C75.3751 133.05 75.3195 133.228 75.3195 133.447V186.511H72.0758L71.4377 105.618L23.9746 88.4704L23.9282 149.789H0.270596C0.1211 149.789 0 149.946 0 150.139V216.993L362 202.273Z" fill="#DD9933"/>
<path d="M119.05 52.2045H122.683C122.884 52.2045 123.048 52.3609 123.048 52.5535V53.2558C123.048 53.4498 122.884 53.6062 122.683 53.6062H119.05C118.848 53.6062 118.685 53.4498 118.685 53.2558V52.5535C118.685 52.3609 118.848 52.2045 119.05 52.2045Z" fill="#DEB976"/>
<path d="M126.806 52.2045H148.283V53.6062H126.806V52.2045Z" fill="#DEB976"/>
<path d="M152.486 52.2045H156.119C156.322 52.2045 156.484 52.3609 156.484 52.5535V53.2558C156.484 53.4498 156.322 53.6062 156.119 53.6062H152.486C152.285 53.6062 152.121 53.4498 152.121 53.2558V52.5535C152.121 52.3609 152.285 52.2045 152.486 52.2045Z" fill="#DEB976"/>
<path d="M29.8721 110.315H38.9806C39.182 110.315 39.3455 110.394 39.3455 110.49V112.254C39.3455 112.35 39.182 112.429 38.9806 112.429H29.8721C29.6705 112.429 29.5072 112.35 29.5072 112.254V110.49C29.5072 110.394 29.6705 110.315 29.8721 110.315Z" fill="#DEB976"/>
<path d="M41.5073 110.315H46.0615C46.1623 110.315 46.244 110.394 46.244 110.49V112.254C46.244 112.35 46.1623 112.429 46.0615 112.429H41.5073C41.4065 112.429 41.3248 112.35 41.3248 112.254V110.49C41.3248 110.394 41.4065 110.315 41.5073 110.315Z" fill="#DEB976"/>
<path d="M47.5311 110.315H50.2527C50.3128 110.315 50.3616 110.394 50.3616 110.49V112.254C50.3616 112.35 50.3128 112.429 50.2527 112.429H47.5311C47.471 112.429 47.4222 112.35 47.4222 112.254V110.49C47.4222 110.394 47.471 110.315 47.5311 110.315Z" fill="#DEB976"/>
<path d="M40.2994 115.554H49.4077C49.6093 115.554 49.7726 115.632 49.7726 115.729V117.493C49.7726 117.589 49.6093 117.667 49.4077 117.667H40.2994C40.0978 117.667 39.9345 117.589 39.9345 117.493V115.729C39.9345 115.632 40.0978 115.554 40.2994 115.554Z" fill="#DEB976"/>
<path d="M51.9344 115.554H56.4885C56.5893 115.554 56.671 115.632 56.671 115.729V117.493C56.671 117.589 56.5893 117.667 56.4885 117.667H51.9344C51.8336 117.667 51.752 117.589 51.752 117.493V115.729C51.752 115.632 51.8336 115.554 51.9344 115.554Z" fill="#DEB976"/>
<path d="M57.9581 115.554H60.6796C60.7399 115.554 60.7886 115.632 60.7886 115.729V117.493C60.7886 117.589 60.7399 117.667 60.6796 117.667H57.9581C57.8979 117.667 57.8491 117.589 57.8491 117.493V115.729C57.8491 115.632 57.8979 115.554 57.9581 115.554Z" fill="#DEB976"/>
<path d="M29.8721 122.95H38.9806C39.182 122.95 39.3455 123.028 39.3455 123.125V124.889C39.3455 124.985 39.182 125.063 38.9806 125.063H29.8721C29.6705 125.063 29.5072 124.985 29.5072 124.889V123.125C29.5072 123.028 29.6705 122.95 29.8721 122.95Z" fill="#DEB976"/>
<path d="M41.5073 122.95H46.0615C46.1623 122.95 46.244 123.028 46.244 123.125V124.889C46.244 124.985 46.1623 125.063 46.0615 125.063H41.5073C41.4065 125.063 41.3248 124.985 41.3248 124.889V123.125C41.3248 123.028 41.4065 122.95 41.5073 122.95Z" fill="#DEB976"/>
<path d="M47.5311 122.95H50.2527C50.3128 122.95 50.3616 123.028 50.3616 123.125V124.889C50.3616 124.985 50.3128 125.063 50.2527 125.063H47.5311C47.471 125.063 47.4222 124.985 47.4222 124.889V123.125C47.4222 123.028 47.471 122.95 47.5311 122.95Z" fill="#DEB976"/>
<path d="M34.6029 131.403H43.7114C43.9129 131.403 44.0763 131.481 44.0763 131.577V133.341C44.0763 133.438 43.9129 133.516 43.7114 133.516H34.6029C34.4013 133.516 34.238 133.438 34.238 133.341V131.577C34.238 131.481 34.4013 131.403 34.6029 131.403Z" fill="#DEB976"/>
<path d="M46.2381 131.403H50.7924C50.8932 131.403 50.9749 131.481 50.9749 131.577V133.341C50.9749 133.438 50.8932 133.516 50.7924 133.516H46.2381C46.1374 133.516 46.0557 133.438 46.0557 133.341V131.577C46.0557 131.481 46.1374 131.403 46.2381 131.403Z" fill="#DEB976"/>
<path d="M52.2619 131.403H54.9834C55.0437 131.403 55.0925 131.481 55.0925 131.577V133.341C55.0925 133.438 55.0437 133.516 54.9834 133.516H52.2619C52.2017 133.516 52.1529 133.438 52.1529 133.341V131.577C52.1529 131.481 52.2017 131.403 52.2619 131.403Z" fill="#DEB976"/>
<path d="M40.2994 138.799H49.4077C49.6093 138.799 49.7726 138.877 49.7726 138.973V140.738C49.7726 140.834 49.6093 140.913 49.4077 140.913H40.2994C40.0978 140.913 39.9345 140.834 39.9345 140.738V138.973C39.9345 138.877 40.0978 138.799 40.2994 138.799" fill="#DEB976"/>
<path d="M51.9344 138.799H56.4885C56.5893 138.799 56.671 138.877 56.671 138.973V140.738C56.671 140.834 56.5893 140.913 56.4885 140.913H51.9344C51.8336 140.913 51.752 140.834 51.752 140.738V138.973C51.752 138.877 51.8336 138.799 51.9344 138.799" fill="#DEB976"/>
<path d="M57.9581 138.799H60.6796C60.7399 138.799 60.7886 138.877 60.7886 138.973V140.738C60.7886 140.834 60.7399 140.913 60.6796 140.913H57.9581C57.8979 140.913 57.8491 140.834 57.8491 140.738V138.973C57.8491 138.877 57.8979 138.799 57.9581 138.799" fill="#DEB976"/>
<path d="M29.8721 144.831H38.9806C39.182 144.831 39.3455 144.91 39.3455 145.007V146.77C39.3455 146.867 39.182 146.946 38.9806 146.946H29.8721C29.6705 146.946 29.5072 146.867 29.5072 146.77V145.007C29.5072 144.91 29.6705 144.831 29.8721 144.831Z" fill="#DEB976"/>
<path d="M41.5073 144.831H46.0615C46.1623 144.831 46.244 144.91 46.244 145.007V146.77C46.244 146.867 46.1623 146.946 46.0615 146.946H41.5073C41.4065 146.946 41.3248 146.867 41.3248 146.77V145.007C41.3248 144.91 41.4065 144.831 41.5073 144.831Z" fill="#DEB976"/>
<path d="M47.5311 144.831H50.2527C50.3128 144.831 50.3616 144.91 50.3616 145.007V146.77C50.3616 146.867 50.3128 146.946 50.2527 146.946H47.5311C47.471 146.946 47.4222 146.867 47.4222 146.77V145.007C47.4222 144.91 47.471 144.831 47.5311 144.831Z" fill="#DEB976"/>
<path d="M3.82927 161.824H64.5222C64.7238 161.824 64.8871 161.98 64.8871 162.173V162.801C64.8871 162.994 64.7238 163.15 64.5222 163.15H3.82927C3.62768 163.15 3.46439 162.994 3.46439 162.801V162.173C3.46439 161.98 3.62768 161.824 3.82927 161.824Z" fill="#DEB976"/>
<path d="M3.82927 164.477H64.5222C64.7238 164.477 64.8871 164.633 64.8871 164.826V165.453C64.8871 165.645 64.7238 165.802 64.5222 165.802H3.82927C3.62768 165.802 3.46439 165.645 3.46439 165.453V164.826C3.46439 164.633 3.62768 164.477 3.82927 164.477Z" fill="#DEB976"/>
<path d="M3.82927 167.791H64.5222C64.7238 167.791 64.8871 167.949 64.8871 168.142V168.769C64.8871 168.963 64.7238 169.118 64.5222 169.118H3.82927C3.62768 169.118 3.46439 168.963 3.46439 168.769V168.142C3.46439 167.949 3.62768 167.791 3.82927 167.791Z" fill="#DEB976"/>
<path d="M3.7136 175.086H45.1756C45.3133 175.086 45.425 175.243 45.425 175.435V176.064C45.425 176.255 45.3133 176.413 45.1756 176.413H3.7136C3.57593 176.413 3.46439 176.255 3.46439 176.064V175.435C3.46439 175.243 3.57593 175.086 3.7136 175.086Z" fill="#DEB976"/>
<path d="M3.63186 178.402H31.4974C31.5899 178.402 31.6649 178.559 31.6649 178.751V179.378C31.6649 179.572 31.5899 179.727 31.4974 179.727H3.63186C3.53939 179.727 3.46439 179.572 3.46439 179.378V178.751C3.46439 178.559 3.53939 178.402 3.63186 178.402Z" fill="#DEB976"/>
<path d="M3.82927 182.38H64.5222C64.7238 182.38 64.8871 182.538 64.8871 182.73V183.357C64.8871 183.55 64.7238 183.706 64.5222 183.706H3.82927C3.62768 183.706 3.46439 183.55 3.46439 183.357V182.73C3.46439 182.538 3.62768 182.38 3.82927 182.38Z" fill="#DEB976"/>
<path d="M77.9162 147.787H79.563C79.7645 147.787 79.9279 147.943 79.9279 148.136V148.436C79.9279 148.628 79.7645 148.785 79.563 148.785H77.9162C77.7148 148.785 77.5513 148.628 77.5513 148.436V148.136C77.5513 147.943 77.7148 147.787 77.9162 147.787Z" fill="#DEB976"/>
<path d="M81.4811 147.787H83.1278C83.3293 147.787 83.4927 147.943 83.4927 148.136V148.436C83.4927 148.628 83.3293 148.785 83.1278 148.785H81.4811C81.2795 148.785 81.1162 148.628 81.1162 148.436V148.136C81.1162 147.943 81.2795 147.787 81.4811 147.787Z" fill="#DEB976"/>
<path d="M84.6125 147.787H86.2592C86.4607 147.787 86.6241 147.943 86.6241 148.136V148.436C86.6241 148.628 86.4607 148.785 86.2592 148.785H84.6125C84.411 148.785 84.2476 148.628 84.2476 148.436V148.136C84.2476 147.943 84.411 147.787 84.6125 147.787Z" fill="#DEB976"/>
<path d="M88.0885 147.787H89.7352C89.9368 147.787 90.1001 147.943 90.1001 148.136V148.436C90.1001 148.628 89.9368 148.785 89.7352 148.785H88.0885C87.887 148.785 87.7236 148.628 87.7236 148.436V148.136C87.7236 147.943 87.887 147.787 88.0885 147.787Z" fill="#DEB976"/>
<path d="M80.4445 149.781H82.0912C82.2927 149.781 82.4561 149.937 82.4561 150.13V150.43C82.4561 150.622 82.2927 150.779 82.0912 150.779H80.4445C80.2429 150.779 80.0796 150.622 80.0796 150.43V150.13C80.0796 149.937 80.2429 149.781 80.4445 149.781Z" fill="#DEB976"/>
<path d="M84.0096 149.781H85.6562C85.8578 149.781 86.0211 149.937 86.0211 150.13V150.43C86.0211 150.622 85.8578 150.779 85.6562 150.779H84.0096C83.808 150.779 83.6447 150.622 83.6447 150.43V150.13C83.6447 149.937 83.808 149.781 84.0096 149.781Z" fill="#DEB976"/>
<path d="M87.1408 149.781H88.7876C88.989 149.781 89.1525 149.937 89.1525 150.13V150.43C89.1525 150.622 88.989 150.779 88.7876 150.779H87.1408C86.9394 150.779 86.7759 150.622 86.7759 150.43V150.13C86.7759 149.937 86.9394 149.781 87.1408 149.781Z" fill="#DEB976"/>
<path d="M90.6168 149.781H92.2635C92.4651 149.781 92.6284 149.937 92.6284 150.13V150.43C92.6284 150.622 92.4651 150.779 92.2635 150.779H90.6168C90.4153 150.779 90.252 150.622 90.252 150.43V150.13C90.252 149.937 90.4153 149.781 90.6168 149.781Z" fill="#DEB976"/>
<path d="M78.4308 151.775H80.0774C80.279 151.775 80.4423 151.931 80.4423 152.124V152.423C80.4423 152.616 80.279 152.772 80.0774 152.772H78.4308C78.2292 152.772 78.0659 152.616 78.0659 152.423V152.124C78.0659 151.931 78.2292 151.775 78.4308 151.775Z" fill="#DEB976"/>
<path d="M81.9953 151.775H83.642C83.8436 151.775 84.0069 151.931 84.0069 152.124V152.423C84.0069 152.616 83.8436 152.772 83.642 152.772H81.9953C81.7938 152.772 81.6304 152.616 81.6304 152.423V152.124C81.6304 151.931 81.7938 151.775 81.9953 151.775Z" fill="#DEB976"/>
<path d="M85.1265 151.775H86.7734C86.9748 151.775 87.1383 151.931 87.1383 152.124V152.423C87.1383 152.616 86.9748 152.772 86.7734 152.772H85.1265C84.925 152.772 84.7617 152.616 84.7617 152.423V152.124C84.7617 151.931 84.925 151.775 85.1265 151.775Z" fill="#DEB976"/>
<path d="M88.6031 151.775H90.2497C90.4513 151.775 90.6146 151.931 90.6146 152.124V152.423C90.6146 152.616 90.4513 152.772 90.2497 152.772H88.6031C88.4015 152.772 88.2382 152.616 88.2382 152.423V152.124C88.2382 151.931 88.4015 151.775 88.6031 151.775Z" fill="#DEB976"/>
<path d="M80.6875 154.041H82.3342C82.5358 154.041 82.6991 154.197 82.6991 154.39V154.688C82.6991 154.881 82.5358 155.037 82.3342 155.037H80.6875C80.486 155.037 80.3226 154.881 80.3226 154.688V154.39C80.3226 154.197 80.486 154.041 80.6875 154.041Z" fill="#DEB976"/>
<path d="M84.2524 154.041H85.8992C86.1007 154.041 86.2641 154.197 86.2641 154.39V154.688C86.2641 154.881 86.1007 155.037 85.8992 155.037H84.2524C84.0509 155.037 83.8875 154.881 83.8875 154.688V154.39C83.8875 154.197 84.0509 154.041 84.2524 154.041Z" fill="#DEB976"/>
<path d="M87.3838 154.041H89.0306C89.232 154.041 89.3955 154.197 89.3955 154.39V154.688C89.3955 154.881 89.232 155.037 89.0306 155.037H87.3838C87.1822 155.037 87.0189 154.881 87.0189 154.688V154.39C87.0189 154.197 87.1822 154.041 87.3838 154.041Z" fill="#DEB976"/>
<path d="M90.8596 154.041H92.5065C92.708 154.041 92.8714 154.197 92.8714 154.39V154.688C92.8714 154.881 92.708 155.037 92.5065 155.037H90.8596C90.6582 155.037 90.4948 154.881 90.4948 154.688V154.39C90.4948 154.197 90.6582 154.041 90.8596 154.041Z" fill="#DEB976"/>
<path d="M83.2158 156.035H84.8626C85.0642 156.035 85.2275 156.191 85.2275 156.384V156.682C85.2275 156.875 85.0642 157.031 84.8626 157.031H83.2158C83.0144 157.031 82.8509 156.875 82.8509 156.682V156.384C82.8509 156.191 83.0144 156.035 83.2158 156.035Z" fill="#DEB976"/>
<path d="M86.7805 156.035H88.4274C88.6288 156.035 88.7923 156.191 88.7923 156.384V156.682C88.7923 156.875 88.6288 157.031 88.4274 157.031H86.7805C86.579 157.031 86.4156 156.875 86.4156 156.682V156.384C86.4156 156.191 86.579 156.035 86.7805 156.035Z" fill="#DEB976"/>
<path d="M89.9118 156.035H91.5585C91.7601 156.035 91.9234 156.191 91.9234 156.384V156.682C91.9234 156.875 91.7601 157.031 91.5585 157.031H89.9118C89.7103 157.031 89.5469 156.875 89.5469 156.682V156.384C89.5469 156.191 89.7103 156.035 89.9118 156.035Z" fill="#DEB976"/>
<path d="M93.3881 156.035H95.0349C95.2363 156.035 95.3998 156.191 95.3998 156.384V156.682C95.3998 156.875 95.2363 157.031 95.0349 157.031H93.3881C93.1865 157.031 93.0232 156.875 93.0232 156.682V156.384C93.0232 156.191 93.1865 156.035 93.3881 156.035Z" fill="#DEB976"/>
<path d="M81.2019 158.029H82.8487C83.0503 158.029 83.2136 158.184 83.2136 158.378V158.676C83.2136 158.869 83.0503 159.025 82.8487 159.025H81.2019C81.0005 159.025 80.837 158.869 80.837 158.676V158.378C80.837 158.184 81.0005 158.029 81.2019 158.029Z" fill="#DEB976"/>
<path d="M84.7666 158.029H86.4134C86.6148 158.029 86.7783 158.184 86.7783 158.378V158.676C86.7783 158.869 86.6148 159.025 86.4134 159.025H84.7666C84.565 159.025 84.4017 158.869 84.4017 158.676V158.378C84.4017 158.184 84.565 158.029 84.7666 158.029Z" fill="#DEB976"/>
<path d="M87.898 158.029H89.5446C89.7462 158.029 89.9095 158.184 89.9095 158.378V158.676C89.9095 158.869 89.7462 159.025 89.5446 159.025H87.898C87.6964 159.025 87.5331 158.869 87.5331 158.676V158.378C87.5331 158.184 87.6964 158.029 87.898 158.029Z" fill="#DEB976"/>
<path d="M91.3743 158.029H93.021C93.2225 158.029 93.3859 158.184 93.3859 158.378V158.676C93.3859 158.869 93.2225 159.025 93.021 159.025H91.3743C91.1727 159.025 91.0094 158.869 91.0094 158.676V158.378C91.0094 158.184 91.1727 158.029 91.3743 158.029Z" fill="#DEB976"/>
<path d="M77.9162 165.933H79.563C79.7645 165.933 79.9279 166.09 79.9279 166.282V166.582C79.9279 166.775 79.7645 166.931 79.563 166.931H77.9162C77.7148 166.931 77.5513 166.775 77.5513 166.582V166.282C77.5513 166.09 77.7148 165.933 77.9162 165.933Z" fill="#DEB976"/>
<path d="M81.4811 165.933H83.1278C83.3293 165.933 83.4927 166.09 83.4927 166.282V166.582C83.4927 166.775 83.3293 166.931 83.1278 166.931H81.4811C81.2795 166.931 81.1162 166.775 81.1162 166.582V166.282C81.1162 166.09 81.2795 165.933 81.4811 165.933Z" fill="#DEB976"/>
<path d="M84.6125 165.933H86.2592C86.4607 165.933 86.6241 166.09 86.6241 166.282V166.582C86.6241 166.775 86.4607 166.931 86.2592 166.931H84.6125C84.411 166.931 84.2476 166.775 84.2476 166.582V166.282C84.2476 166.09 84.411 165.933 84.6125 165.933Z" fill="#DEB976"/>
<path d="M88.0885 165.933H89.7352C89.9368 165.933 90.1001 166.09 90.1001 166.282V166.582C90.1001 166.775 89.9368 166.931 89.7352 166.931H88.0885C87.887 166.931 87.7236 166.775 87.7236 166.582V166.282C87.7236 166.09 87.887 165.933 88.0885 165.933Z" fill="#DEB976"/>
<path d="M80.4445 167.927H82.0912C82.2927 167.927 82.4561 168.083 82.4561 168.276V168.574C82.4561 168.768 82.2927 168.923 82.0912 168.923H80.4445C80.2429 168.923 80.0796 168.768 80.0796 168.574V168.276C80.0796 168.083 80.2429 167.927 80.4445 167.927Z" fill="#DEB976"/>
<path d="M84.0096 167.927H85.6562C85.8578 167.927 86.0211 168.083 86.0211 168.276V168.574C86.0211 168.768 85.8578 168.923 85.6562 168.923H84.0096C83.808 168.923 83.6447 168.768 83.6447 168.574V168.276C83.6447 168.083 83.808 167.927 84.0096 167.927Z" fill="#DEB976"/>
<path d="M87.1408 167.927H88.7876C88.989 167.927 89.1525 168.083 89.1525 168.276V168.574C89.1525 168.768 88.989 168.923 88.7876 168.923H87.1408C86.9394 168.923 86.7759 168.768 86.7759 168.574V168.276C86.7759 168.083 86.9394 167.927 87.1408 167.927Z" fill="#DEB976"/>
<path d="M90.6168 167.927H92.2635C92.4651 167.927 92.6284 168.083 92.6284 168.276V168.574C92.6284 168.768 92.4651 168.923 92.2635 168.923H90.6168C90.4153 168.923 90.252 168.768 90.252 168.574V168.276C90.252 168.083 90.4153 167.927 90.6168 167.927Z" fill="#DEB976"/>
<path d="M78.4308 169.921H80.0774C80.279 169.921 80.4423 170.078 80.4423 170.27V170.569C80.4423 170.763 80.279 170.917 80.0774 170.917H78.4308C78.2292 170.917 78.0659 170.763 78.0659 170.569V170.27C78.0659 170.078 78.2292 169.921 78.4308 169.921Z" fill="#DEB976"/>
<path d="M81.9953 169.921H83.642C83.8436 169.921 84.0069 170.078 84.0069 170.27V170.569C84.0069 170.763 83.8436 170.917 83.642 170.917H81.9953C81.7938 170.917 81.6304 170.763 81.6304 170.569V170.27C81.6304 170.078 81.7938 169.921 81.9953 169.921Z" fill="#DEB976"/>
<path d="M85.1265 169.921H86.7734C86.9748 169.921 87.1383 170.078 87.1383 170.27V170.569C87.1383 170.763 86.9748 170.917 86.7734 170.917H85.1265C84.925 170.917 84.7617 170.763 84.7617 170.569V170.27C84.7617 170.078 84.925 169.921 85.1265 169.921Z" fill="#DEB976"/>
<path d="M88.6031 169.921H90.2497C90.4513 169.921 90.6146 170.078 90.6146 170.27V170.569C90.6146 170.763 90.4513 170.917 90.2497 170.917H88.6031C88.4015 170.917 88.2382 170.763 88.2382 170.569V170.27C88.2382 170.078 88.4015 169.921 88.6031 169.921Z" fill="#DEB976"/>
<path d="M85.2629 185.933H88.3253V195.189H85.2629V185.933Z" fill="#DEB976"/>
<path d="M91.3472 191.932H94.4095V197.931H91.3472V191.932Z" fill="#DEB976"/>
<path d="M79.138 191.932H82.2005V197.931H79.138V191.932Z" fill="#DEB976"/>
<path d="M104.3 197.931H107.363V188.674H104.3V197.931Z" fill="#DEB976"/>
<path d="M110.384 191.932H113.446V185.933H110.384V191.932Z" fill="#DEB976"/>
<path d="M98.1754 191.932H101.238V185.933H98.1754V191.932Z" fill="#DEB976"/>
<path d="M85.2629 185.933H88.3253V195.189H85.2629V185.933Z" fill="#DEB976"/>
<path d="M91.3472 191.932H94.4095V197.931H91.3472V191.932Z" fill="#DEB976"/>
<path d="M79.138 191.932H82.2005V197.931H79.138V191.932Z" fill="#DEB976"/>
<path d="M104.3 197.931H107.363V188.674H104.3V197.931Z" fill="#DEB976"/>
<path d="M110.384 191.932H113.446V185.933H110.384V191.932Z" fill="#DEB976"/>
<path d="M98.1754 191.932H101.238V185.933H98.1754V191.932Z" fill="#DEB976"/>
<path d="M124.922 185.933H127.985V195.189H124.922V185.933Z" fill="#DEB976"/>
<path d="M131.006 191.932H134.068V197.931H131.006V191.932Z" fill="#DEB976"/>
<path d="M118.797 191.932H121.86V197.931H118.797V191.932Z" fill="#DEB976"/>
<path d="M143.959 197.931H147.021V188.674H143.959V197.931Z" fill="#DEB976"/>
<path d="M150.043 191.932H153.106V185.933H150.043V191.932Z" fill="#DEB976"/>
<path d="M137.834 191.932H140.897V185.933H137.834V191.932Z" fill="#DEB976"/>
<path d="M124.922 185.933H127.985V195.189H124.922V185.933Z" fill="#DEB976"/>
<path d="M131.006 191.932H134.068V197.931H131.006V191.932Z" fill="#DEB976"/>
<path d="M118.797 191.932H121.86V197.931H118.797V191.932Z" fill="#DEB976"/>
<path d="M143.959 197.931H147.021V188.674H143.959V197.931Z" fill="#DEB976"/>
<path d="M150.043 191.932H153.106V185.933H150.043V191.932Z" fill="#DEB976"/>
<path d="M137.834 191.932H140.897V185.933H137.834V191.932Z" fill="#DEB976"/>
<path d="M85.5408 197.931H88.6031V207.187H85.5408V197.931Z" fill="#DEB976"/>
<path d="M91.6253 203.929H94.6877V209.928H91.6253V203.929Z" fill="#DEB976"/>
<path d="M79.416 203.929H82.4784V209.928H79.416V203.929Z" fill="#DEB976"/>
<path d="M104.578 209.928H107.641V200.672H104.578V209.928Z" fill="#DEB976"/>
<path d="M110.662 203.929H113.725V197.931H110.662V203.929Z" fill="#DEB976"/>
<path d="M98.4534 203.929H101.516V197.931H98.4534V203.929Z" fill="#DEB976"/>
<path d="M85.5408 197.931H88.6031V207.187H85.5408V197.931Z" fill="#DEB976"/>
<path d="M91.6253 203.929H94.6877V209.928H91.6253V203.929Z" fill="#DEB976"/>
<path d="M79.416 203.929H82.4784V209.928H79.416V203.929Z" fill="#DEB976"/>
<path d="M104.578 209.928H107.641V200.672H104.578V209.928Z" fill="#DEB976"/>
<path d="M110.662 203.929H113.725V197.931H110.662V203.929Z" fill="#DEB976"/>
<path d="M98.4534 203.929H101.516V197.931H98.4534V203.929Z" fill="#DEB976"/>
<path d="M125.2 197.931H128.262V207.187H125.2V197.931Z" fill="#DEB976"/>
<path d="M131.284 203.929H134.346V209.928H131.284V203.929Z" fill="#DEB976"/>
<path d="M119.075 203.929H122.138V209.928H119.075V203.929Z" fill="#DEB976"/>
<path d="M144.237 209.928H147.3V200.672H144.237V209.928Z" fill="#DEB976"/>
<path d="M150.322 203.929H153.384V197.931H150.322V203.929Z" fill="#DEB976"/>
<path d="M138.112 203.929H141.175V197.931H138.112V203.929Z" fill="#DEB976"/>
<path d="M125.2 197.931H128.262V207.187H125.2V197.931Z" fill="#DEB976"/>
<path d="M131.284 203.929H134.346V209.928H131.284V203.929Z" fill="#DEB976"/>
<path d="M119.075 203.929H122.138V209.928H119.075V203.929Z" fill="#DEB976"/>
<path d="M144.237 209.928H147.3V200.672H144.237V209.928Z" fill="#DEB976"/>
<path d="M150.322 203.929H153.384V197.931H150.322V203.929Z" fill="#DEB976"/>
<path d="M138.112 203.929H141.175V197.931H138.112V203.929Z" fill="#DEB976"/>
<path d="M312.194 131.257H314.342V136.871H312.194V131.257Z" fill="#DEB976"/>
<path d="M316.461 134.895H318.609V138.534H316.461V134.895Z" fill="#DEB976"/>
<path d="M307.901 134.895H310.049V138.534H307.901V134.895Z" fill="#DEB976"/>
<path d="M325.544 138.534H327.691V132.92H325.544V138.534Z" fill="#DEB976"/>
<path d="M329.812 134.895H331.959V131.257H329.812V134.895Z" fill="#DEB976"/>
<path d="M321.249 134.896H323.396V131.257H321.249V134.896Z" fill="#DEB976"/>
<path d="M312.194 131.257H314.342V136.871H312.194V131.257Z" fill="#DEB976"/>
<path d="M316.461 134.895H318.609V138.534H316.461V134.895Z" fill="#DEB976"/>
<path d="M307.901 134.895H310.049V138.534H307.901V134.895Z" fill="#DEB976"/>
<path d="M325.544 138.534H327.691V132.92H325.544V138.534Z" fill="#DEB976"/>
<path d="M329.812 134.895H331.959V131.257H329.812V134.895Z" fill="#DEB976"/>
<path d="M321.249 134.896H323.396V131.257H321.249V134.896Z" fill="#DEB976"/>
<path d="M340.005 131.257H342.153V136.871H340.005V131.257Z" fill="#DEB976"/>
<path d="M344.271 134.896H346.418V138.534H344.271V134.896Z" fill="#DEB976"/>
<path d="M335.71 134.896H337.857V138.534H335.71V134.896Z" fill="#DEB976"/>
<path d="M353.354 138.534H355.502V132.92H353.354V138.534" fill="#DEB976"/>
<path d="M357.619 134.896H359.767V131.257H357.619V134.896Z" fill="#DEB976"/>
<path d="M349.059 134.896H351.207V131.257H349.059V134.896Z" fill="#DEB976"/>
<path d="M340.005 131.257H342.153V136.871H340.005V131.257Z" fill="#DEB976"/>
<path d="M344.271 134.896H346.418V138.534H344.271V134.896Z" fill="#DEB976"/>
<path d="M335.71 134.896H337.857V138.534H335.71V134.896Z" fill="#DEB976"/>
<path d="M353.354 138.534H355.502V132.92H353.354V138.534" fill="#DEB976"/>
<path d="M357.619 134.896H359.767V131.257H357.619V134.896Z" fill="#DEB976"/>
<path d="M349.059 134.896H351.207V131.257H349.059V134.896Z" fill="#DEB976"/>
<path d="M312.39 138.534H314.538V144.15H312.39V138.534" fill="#DEB976"/>
<path d="M316.656 142.173H318.803V145.812H316.656V142.173Z" fill="#DEB976"/>
<path d="M308.095 142.173H310.242V145.812H308.095V142.173Z" fill="#DEB976"/>
<path d="M325.74 145.812H327.888V140.198H325.74V145.812" fill="#DEB976"/>
<path d="M330.005 142.173H332.153V138.534H330.005V142.173Z" fill="#DEB976"/>
<path d="M321.444 142.173H323.592V138.534H321.444V142.173Z" fill="#DEB976"/>
<path d="M312.39 138.534H314.538V144.15H312.39V138.534" fill="#DEB976"/>
<path d="M316.656 142.173H318.803V145.812H316.656V142.173Z" fill="#DEB976"/>
<path d="M308.095 142.173H310.242V145.812H308.095V142.173Z" fill="#DEB976"/>
<path d="M325.74 145.812H327.888V140.198H325.74V145.812" fill="#DEB976"/>
<path d="M330.005 142.173H332.153V138.534H330.005V142.173Z" fill="#DEB976"/>
<path d="M321.444 142.173H323.592V138.534H321.444V142.173Z" fill="#DEB976"/>
<path d="M340.2 138.534H342.346V144.15H340.2V138.534Z" fill="#DEB976"/>
<path d="M344.466 142.173H346.614V145.812H344.466V142.173Z" fill="#DEB976"/>
<path d="M335.906 142.173H338.053V145.812H335.906V142.173Z" fill="#DEB976"/>
<path d="M353.549 145.812H355.698V140.198H353.549V145.812" fill="#DEB976"/>
<path d="M357.817 142.173H359.963V138.534H357.817V142.173Z" fill="#DEB976"/>
<path d="M349.253 142.173H351.4V138.534H349.253V142.173" fill="#DEB976"/>
<path d="M340.2 138.534H342.346V144.15H340.2V138.534Z" fill="#DEB976"/>
<path d="M344.466 142.173H346.614V145.812H344.466V142.173Z" fill="#DEB976"/>
<path d="M335.906 142.173H338.053V145.812H335.906V142.173Z" fill="#DEB976"/>
<path d="M353.549 145.812H355.698V140.198H353.549V145.812" fill="#DEB976"/>
<path d="M357.817 142.173H359.963V138.534H357.817V142.173Z" fill="#DEB976"/>
<path d="M349.253 142.173H351.4V138.534H349.253V142.173" fill="#DEB976"/>
<path d="M335.529 170.072H333.383V175.686H335.529V170.072Z" fill="#DEB976"/>
<path d="M331.263 173.71H329.115V177.349H331.263V173.71Z" fill="#DEB976"/>
<path d="M339.825 173.71H337.678V177.349H339.825V173.71Z" fill="#DEB976"/>
<path d="M322.18 177.349H320.034V171.734H322.18V177.349Z" fill="#DEB976"/>
<path d="M317.913 173.711H315.766V170.072H317.913V173.711Z" fill="#DEB976"/>
<path d="M326.476 173.71H324.329V170.072H326.476V173.71Z" fill="#DEB976"/>
<path d="M355.667 151.879H353.52V157.493H355.667V151.879Z" fill="#DEB976"/>
<path d="M351.4 155.517H349.253V159.157H351.4V155.517Z" fill="#DEB976"/>
<path d="M359.963 155.516H357.817V159.157H359.963V155.516Z" fill="#DEB976"/>
<path d="M342.32 159.156H340.172V153.541H342.32V159.156Z" fill="#DEB976"/>
<path d="M338.053 155.516H335.906V151.879H338.053V155.516Z" fill="#DEB976"/>
<path d="M346.614 155.516H344.466V151.879H346.614V155.516Z" fill="#DEB976"/>
<path d="M327.859 151.879H325.711V157.493H327.859V151.879Z" fill="#DEB976"/>
<path d="M323.592 155.517H321.444V159.157H323.592V155.517Z" fill="#DEB976"/>
<path d="M332.153 155.517H330.005V159.157H332.153V155.517Z" fill="#DEB976"/>
<path d="M314.51 159.157H312.362V153.541H314.51V159.157Z" fill="#DEB976"/>
<path d="M310.242 155.517H308.095V151.879H310.242V155.517Z" fill="#DEB976"/>
<path d="M318.803 155.517H316.656V151.879H318.803V155.517Z" fill="#DEB976"/>
<path d="M327.859 151.879H325.711V157.493H327.859V151.879Z" fill="#DEB976"/>
<path d="M323.592 155.517H321.444V159.157H323.592V155.517Z" fill="#DEB976"/>
<path d="M332.153 155.517H330.005V159.157H332.153V155.517Z" fill="#DEB976"/>
<path d="M314.51 159.157H312.362V153.541H314.51V159.157Z" fill="#DEB976"/>
<path d="M310.242 155.517H308.095V151.879H310.242V155.517Z" fill="#DEB976"/>
<path d="M318.803 155.517H316.656V151.879H318.803V155.517Z" fill="#DEB976"/>
<path d="M355.474 159.157H353.326V164.771H355.474V159.157Z" fill="#DEB976"/>
<path d="M351.207 162.794H349.059V166.434H351.207V162.794Z" fill="#DEB976"/>
<path d="M359.767 162.794H357.619V166.434H359.767V162.794Z" fill="#DEB976"/>
<path d="M342.125 166.434H339.977V160.819H342.125V166.434Z" fill="#DEB976"/>
<path d="M337.857 162.794H335.71V159.157H337.857V162.794Z" fill="#DEB976"/>
<path d="M346.418 162.794H344.271V159.157H346.418V162.794Z" fill="#DEB976"/>
<path d="M355.474 159.157H353.326V164.771H355.474V159.157Z" fill="#DEB976"/>
<path d="M351.207 162.794H349.059V166.434H351.207V162.794Z" fill="#DEB976"/>
<path d="M359.767 162.794H357.619V166.434H359.767V162.794Z" fill="#DEB976"/>
<path d="M342.125 166.434H339.977V160.819H342.125V166.434Z" fill="#DEB976"/>
<path d="M337.857 162.794H335.71V159.157H337.857V162.794Z" fill="#DEB976"/>
<path d="M346.418 162.794H344.271V159.157H346.418V162.794Z" fill="#DEB976"/>
<path d="M327.663 159.157H325.516V164.771H327.663V159.157Z" fill="#DEB976"/>
<path d="M323.396 162.794H321.249V166.435H323.396V162.794Z" fill="#DEB976"/>
<path d="M331.959 162.794H329.812V166.434H331.959V162.794Z" fill="#DEB976"/>
<path d="M314.314 166.434H312.166V160.819H314.314V166.434Z" fill="#DEB976"/>
<path d="M310.049 162.794H307.901V159.156H310.049V162.794Z" fill="#DEB976"/>
<path d="M318.609 162.794H316.461V159.157H318.609V162.794Z" fill="#DEB976"/>
<path d="M327.663 159.157H325.516V164.771H327.663V159.157Z" fill="#DEB976"/>
<path d="M323.396 162.794H321.249V166.435H323.396V162.794Z" fill="#DEB976"/>
<path d="M331.959 162.794H329.812V166.434H331.959V162.794Z" fill="#DEB976"/>
<path d="M314.314 166.434H312.166V160.819H314.314V166.434Z" fill="#DEB976"/>
<path d="M310.049 162.794H307.901V159.156H310.049V162.794Z" fill="#DEB976"/>
<path d="M318.609 162.794H316.461V159.157H318.609V162.794Z" fill="#DEB976"/>
<path d="M204.722 124.955H195.612C195.411 124.955 195.247 125.033 195.247 125.129V126.893C195.247 126.989 195.411 127.068 195.612 127.068H204.722C204.923 127.068 205.086 126.989 205.086 126.893V125.129C205.086 125.033 204.923 124.955 204.722 124.955Z" fill="#DEB976"/>
<path d="M193.085 124.955H188.531C188.431 124.955 188.349 125.033 188.349 125.129V126.893C188.349 126.989 188.431 127.068 188.531 127.068H193.085C193.187 127.068 193.268 126.989 193.268 126.893V125.129C193.268 125.033 193.187 124.955 193.085 124.955Z" fill="#DEB976"/>
<path d="M187.062 124.955H184.341C184.28 124.955 184.232 125.033 184.232 125.129V126.893C184.232 126.989 184.28 127.068 184.341 127.068H187.062C187.122 127.068 187.172 126.989 187.172 126.893V125.129C187.172 125.033 187.122 124.955 187.062 124.955Z" fill="#DEB976"/>
<path d="M194.294 130.193H185.185C184.984 130.193 184.82 130.271 184.82 130.368V132.132C184.82 132.228 184.984 132.306 185.185 132.306H194.294C194.496 132.306 194.659 132.228 194.659 132.132V130.368C194.659 130.271 194.496 130.193 194.294 130.193Z" fill="#DEB976"/>
<path d="M182.658 130.193H178.104C178.004 130.193 177.922 130.271 177.922 130.368V132.132C177.922 132.228 178.004 132.306 178.104 132.306H182.658C182.76 132.306 182.841 132.228 182.841 132.132V130.368C182.841 130.271 182.76 130.193 182.658 130.193Z" fill="#DEB976"/>
<path d="M176.635 130.193H173.914C173.853 130.193 173.804 130.271 173.804 130.368V132.132C173.804 132.228 173.853 132.306 173.914 132.306H176.635C176.695 132.306 176.745 132.228 176.745 132.132V130.368C176.745 130.271 176.695 130.193 176.635 130.193Z" fill="#DEB976"/>
<path d="M204.722 137.589H195.612C195.411 137.589 195.247 137.667 195.247 137.764V139.527C195.247 139.624 195.411 139.702 195.612 139.702H204.722C204.923 139.702 205.086 139.624 205.086 139.527V137.764C205.086 137.667 204.923 137.589 204.722 137.589Z" fill="#DEB976"/>
<path d="M193.085 137.589H188.531C188.431 137.589 188.349 137.667 188.349 137.764V139.527C188.349 139.624 188.431 139.702 188.531 139.702H193.085C193.187 139.702 193.268 139.624 193.268 139.527V137.764C193.268 137.667 193.187 137.589 193.085 137.589Z" fill="#DEB976"/>
<path d="M187.062 137.589H184.341C184.28 137.589 184.232 137.667 184.232 137.764V139.527C184.232 139.624 184.28 139.702 184.341 139.702H187.062C187.122 139.702 187.172 139.624 187.172 139.527V137.764C187.172 137.667 187.122 137.589 187.062 137.589Z" fill="#DEB976"/>
<path d="M199.991 146.042H190.881C190.68 146.042 190.517 146.12 190.517 146.216V147.981C190.517 148.076 190.68 148.156 190.881 148.156H199.991C200.192 148.156 200.356 148.076 200.356 147.981V146.216C200.356 146.12 200.192 146.042 199.991 146.042Z" fill="#DEB976"/>
<path d="M188.355 146.042H183.801C183.699 146.042 183.618 146.12 183.618 146.216V147.981C183.618 148.076 183.699 148.156 183.801 148.156H188.355C188.456 148.156 188.537 148.076 188.537 147.981V146.216C188.537 146.12 188.456 146.042 188.355 146.042Z" fill="#DEB976"/>
<path d="M182.331 146.042H179.61C179.549 146.042 179.5 146.12 179.5 146.216V147.981C179.5 148.076 179.549 148.156 179.61 148.156H182.331C182.392 148.156 182.44 148.076 182.44 147.981V146.216C182.44 146.12 182.392 146.042 182.331 146.042Z" fill="#DEB976"/>
<path d="M194.294 153.439H185.185C184.984 153.439 184.82 153.517 184.82 153.614V155.378C184.82 155.475 184.984 155.551 185.185 155.551H194.294C194.496 155.551 194.659 155.475 194.659 155.378V153.614C194.659 153.517 194.496 153.439 194.294 153.439Z" fill="#DEB976"/>
<path d="M182.658 153.439H178.104C178.004 153.439 177.922 153.517 177.922 153.614V155.378C177.922 155.475 178.004 155.551 178.104 155.551H182.658C182.76 155.551 182.841 155.475 182.841 155.378V153.614C182.841 153.517 182.76 153.439 182.658 153.439Z" fill="#DEB976"/>
<path d="M176.635 153.439H173.914C173.853 153.439 173.804 153.517 173.804 153.614V155.378C173.804 155.475 173.853 155.551 173.914 155.551H176.635C176.695 155.551 176.745 155.475 176.745 155.378V153.614C176.745 153.517 176.695 153.439 176.635 153.439Z" fill="#DEB976"/>
<path d="M204.722 159.471H195.612C195.411 159.471 195.247 159.549 195.247 159.645V161.41C195.247 161.505 195.411 161.585 195.612 161.585H204.722C204.923 161.585 205.086 161.505 205.086 161.41V159.645C205.086 159.549 204.923 159.471 204.722 159.471Z" fill="#DEB976"/>
<path d="M193.085 159.471H188.531C188.431 159.471 188.349 159.549 188.349 159.645V161.41C188.349 161.505 188.431 161.585 188.531 161.585H193.085C193.187 161.585 193.268 161.505 193.268 161.41V159.645C193.268 159.549 193.187 159.471 193.085 159.471Z" fill="#DEB976"/>
<path d="M187.062 159.471H184.341C184.28 159.471 184.232 159.549 184.232 159.645V161.41C184.232 161.505 184.28 161.585 184.341 161.585H187.062C187.122 161.585 187.172 161.505 187.172 161.41V159.645C187.172 159.549 187.122 159.471 187.062 159.471Z" fill="#DEB976"/>
<path d="M204.722 124.955H195.612C195.411 124.955 195.247 125.033 195.247 125.129V126.893C195.247 126.989 195.411 127.068 195.612 127.068H204.722C204.923 127.068 205.086 126.989 205.086 126.893V125.129C205.086 125.033 204.923 124.955 204.722 124.955Z" fill="#DEB976"/>
<path d="M193.085 124.955H188.531C188.431 124.955 188.349 125.033 188.349 125.129V126.893C188.349 126.989 188.431 127.068 188.531 127.068H193.085C193.187 127.068 193.268 126.989 193.268 126.893V125.129C193.268 125.033 193.187 124.955 193.085 124.955Z" fill="#DEB976"/>
<path d="M187.062 124.955H184.341C184.28 124.955 184.232 125.033 184.232 125.129V126.893C184.232 126.989 184.28 127.068 184.341 127.068H187.062C187.122 127.068 187.172 126.989 187.172 126.893V125.129C187.172 125.033 187.122 124.955 187.062 124.955Z" fill="#DEB976"/>
<path d="M194.294 130.193H185.185C184.984 130.193 184.82 130.271 184.82 130.368V132.132C184.82 132.228 184.984 132.306 185.185 132.306H194.294C194.496 132.306 194.659 132.228 194.659 132.132V130.368C194.659 130.271 194.496 130.193 194.294 130.193Z" fill="#DEB976"/>
<path d="M182.658 130.193H178.104C178.004 130.193 177.922 130.271 177.922 130.368V132.132C177.922 132.228 178.004 132.306 178.104 132.306H182.658C182.76 132.306 182.841 132.228 182.841 132.132V130.368C182.841 130.271 182.76 130.193 182.658 130.193Z" fill="#DEB976"/>
<path d="M176.635 130.193H173.914C173.853 130.193 173.804 130.271 173.804 130.368V132.132C173.804 132.228 173.853 132.306 173.914 132.306H176.635C176.695 132.306 176.745 132.228 176.745 132.132V130.368C176.745 130.271 176.695 130.193 176.635 130.193Z" fill="#DEB976"/>
<path d="M204.722 137.589H195.612C195.411 137.589 195.247 137.667 195.247 137.764V139.527C195.247 139.624 195.411 139.702 195.612 139.702H204.722C204.923 139.702 205.086 139.624 205.086 139.527V137.764C205.086 137.667 204.923 137.589 204.722 137.589Z" fill="#DEB976"/>
<path d="M193.085 137.589H188.531C188.431 137.589 188.349 137.667 188.349 137.764V139.527C188.349 139.624 188.431 139.702 188.531 139.702H193.085C193.187 139.702 193.268 139.624 193.268 139.527V137.764C193.268 137.667 193.187 137.589 193.085 137.589Z" fill="#DEB976"/>
<path d="M187.062 137.589H184.341C184.28 137.589 184.232 137.667 184.232 137.764V139.527C184.232 139.624 184.28 139.702 184.341 139.702H187.062C187.122 139.702 187.172 139.624 187.172 139.527V137.764C187.172 137.667 187.122 137.589 187.062 137.589Z" fill="#DEB976"/>
<path d="M199.991 146.042H190.881C190.68 146.042 190.517 146.12 190.517 146.216V147.981C190.517 148.076 190.68 148.156 190.881 148.156H199.991C200.192 148.156 200.356 148.076 200.356 147.981V146.216C200.356 146.12 200.192 146.042 199.991 146.042Z" fill="#DEB976"/>
<path d="M188.355 146.042H183.801C183.699 146.042 183.618 146.12 183.618 146.216V147.981C183.618 148.076 183.699 148.156 183.801 148.156H188.355C188.456 148.156 188.537 148.076 188.537 147.981V146.216C188.537 146.12 188.456 146.042 188.355 146.042Z" fill="#DEB976"/>
<path d="M182.331 146.042H179.61C179.549 146.042 179.5 146.12 179.5 146.216V147.981C179.5 148.076 179.549 148.156 179.61 148.156H182.331C182.392 148.156 182.44 148.076 182.44 147.981V146.216C182.44 146.12 182.392 146.042 182.331 146.042Z" fill="#DEB976"/>
<path d="M194.294 153.439H185.185C184.984 153.439 184.82 153.517 184.82 153.614V155.378C184.82 155.475 184.984 155.551 185.185 155.551H194.294C194.496 155.551 194.659 155.475 194.659 155.378V153.614C194.659 153.517 194.496 153.439 194.294 153.439Z" fill="#DEB976"/>
<path d="M182.658 153.439H178.104C178.004 153.439 177.922 153.517 177.922 153.614V155.378C177.922 155.475 178.004 155.551 178.104 155.551H182.658C182.76 155.551 182.841 155.475 182.841 155.378V153.614C182.841 153.517 182.76 153.439 182.658 153.439Z" fill="#DEB976"/>
<path d="M176.635 153.439H173.914C173.853 153.439 173.804 153.517 173.804 153.614V155.378C173.804 155.475 173.853 155.551 173.914 155.551H176.635C176.695 155.551 176.745 155.475 176.745 155.378V153.614C176.745 153.517 176.695 153.439 176.635 153.439Z" fill="#DEB976"/>
<path d="M204.722 159.471H195.612C195.411 159.471 195.247 159.549 195.247 159.645V161.41C195.247 161.505 195.411 161.585 195.612 161.585H204.722C204.923 161.585 205.086 161.505 205.086 161.41V159.645C205.086 159.549 204.923 159.471 204.722 159.471Z" fill="#DEB976"/>
<path d="M193.085 159.471H188.531C188.431 159.471 188.349 159.549 188.349 159.645V161.41C188.349 161.505 188.431 161.585 188.531 161.585H193.085C193.187 161.585 193.268 161.505 193.268 161.41V159.645C193.268 159.549 193.187 159.471 193.085 159.471Z" fill="#DEB976"/>
<path d="M187.062 159.471H184.341C184.28 159.471 184.232 159.549 184.232 159.645V161.41C184.232 161.505 184.28 161.585 184.341 161.585H187.062C187.122 161.585 187.172 161.505 187.172 161.41V159.645C187.172 159.549 187.122 159.471 187.062 159.471Z" fill="#DEB976"/>
<path d="M204.722 124.955H195.612C195.411 124.955 195.247 125.033 195.247 125.129V126.893C195.247 126.989 195.411 127.068 195.612 127.068H204.722C204.923 127.068 205.086 126.989 205.086 126.893V125.129C205.086 125.033 204.923 124.955 204.722 124.955Z" fill="#DEB976"/>
<path d="M193.085 124.955H188.531C188.431 124.955 188.349 125.033 188.349 125.129V126.893C188.349 126.989 188.431 127.068 188.531 127.068H193.085C193.187 127.068 193.268 126.989 193.268 126.893V125.129C193.268 125.033 193.187 124.955 193.085 124.955Z" fill="#DEB976"/>
<path d="M187.062 124.955H184.341C184.28 124.955 184.232 125.033 184.232 125.129V126.893C184.232 126.989 184.28 127.068 184.341 127.068H187.062C187.122 127.068 187.172 126.989 187.172 126.893V125.129C187.172 125.033 187.122 124.955 187.062 124.955Z" fill="#DEB976"/>
<path d="M194.294 130.193H185.185C184.984 130.193 184.82 130.271 184.82 130.368V132.132C184.82 132.228 184.984 132.306 185.185 132.306H194.294C194.496 132.306 194.659 132.228 194.659 132.132V130.368C194.659 130.271 194.496 130.193 194.294 130.193Z" fill="#DEB976"/>
<path d="M182.658 130.193H178.104C178.004 130.193 177.922 130.271 177.922 130.368V132.132C177.922 132.228 178.004 132.306 178.104 132.306H182.658C182.76 132.306 182.841 132.228 182.841 132.132V130.368C182.841 130.271 182.76 130.193 182.658 130.193Z" fill="#DEB976"/>
<path d="M176.635 130.193H173.914C173.853 130.193 173.804 130.271 173.804 130.368V132.132C173.804 132.228 173.853 132.306 173.914 132.306H176.635C176.695 132.306 176.745 132.228 176.745 132.132V130.368C176.745 130.271 176.695 130.193 176.635 130.193Z" fill="#DEB976"/>
<path d="M204.722 137.589H195.612C195.411 137.589 195.247 137.667 195.247 137.764V139.527C195.247 139.624 195.411 139.702 195.612 139.702H204.722C204.923 139.702 205.086 139.624 205.086 139.527V137.764C205.086 137.667 204.923 137.589 204.722 137.589Z" fill="#DEB976"/>
<path d="M193.085 137.589H188.531C188.431 137.589 188.349 137.667 188.349 137.764V139.527C188.349 139.624 188.431 139.702 188.531 139.702H193.085C193.187 139.702 193.268 139.624 193.268 139.527V137.764C193.268 137.667 193.187 137.589 193.085 137.589Z" fill="#DEB976"/>
<path d="M187.062 137.589H184.341C184.28 137.589 184.232 137.667 184.232 137.764V139.527C184.232 139.624 184.28 139.702 184.341 139.702H187.062C187.122 139.702 187.172 139.624 187.172 139.527V137.764C187.172 137.667 187.122 137.589 187.062 137.589Z" fill="#DEB976"/>
<path d="M199.991 146.042H190.881C190.68 146.042 190.517 146.12 190.517 146.216V147.981C190.517 148.076 190.68 148.156 190.881 148.156H199.991C200.192 148.156 200.356 148.076 200.356 147.981V146.216C200.356 146.12 200.192 146.042 199.991 146.042Z" fill="#DEB976"/>
<path d="M188.355 146.042H183.801C183.699 146.042 183.618 146.12 183.618 146.216V147.981C183.618 148.076 183.699 148.156 183.801 148.156H188.355C188.456 148.156 188.537 148.076 188.537 147.981V146.216C188.537 146.12 188.456 146.042 188.355 146.042Z" fill="#DEB976"/>
<path d="M182.331 146.042H179.61C179.549 146.042 179.5 146.12 179.5 146.216V147.981C179.5 148.076 179.549 148.156 179.61 148.156H182.331C182.392 148.156 182.44 148.076 182.44 147.981V146.216C182.44 146.12 182.392 146.042 182.331 146.042Z" fill="#DEB976"/>
<path d="M194.294 153.439H185.185C184.984 153.439 184.82 153.517 184.82 153.614V155.378C184.82 155.475 184.984 155.551 185.185 155.551H194.294C194.496 155.551 194.659 155.475 194.659 155.378V153.614C194.659 153.517 194.496 153.439 194.294 153.439Z" fill="#DEB976"/>
<path d="M182.658 153.439H178.104C178.004 153.439 177.922 153.517 177.922 153.614V155.378C177.922 155.475 178.004 155.551 178.104 155.551H182.658C182.76 155.551 182.841 155.475 182.841 155.378V153.614C182.841 153.517 182.76 153.439 182.658 153.439Z" fill="#DEB976"/>
<path d="M176.635 153.439H173.914C173.853 153.439 173.804 153.517 173.804 153.614V155.378C173.804 155.475 173.853 155.551 173.914 155.551H176.635C176.695 155.551 176.745 155.475 176.745 155.378V153.614C176.745 153.517 176.695 153.439 176.635 153.439Z" fill="#DEB976"/>
<path d="M204.722 159.471H195.612C195.411 159.471 195.247 159.549 195.247 159.645V161.41C195.247 161.505 195.411 161.585 195.612 161.585H204.722C204.923 161.585 205.086 161.505 205.086 161.41V159.645C205.086 159.549 204.923 159.471 204.722 159.471Z" fill="#DEB976"/>
<path d="M193.085 159.471H188.531C188.431 159.471 188.349 159.549 188.349 159.645V161.41C188.349 161.505 188.431 161.585 188.531 161.585H193.085C193.187 161.585 193.268 161.505 193.268 161.41V159.645C193.268 159.549 193.187 159.471 193.085 159.471Z" fill="#DEB976"/>
<path d="M187.062 159.471H184.341C184.28 159.471 184.232 159.549 184.232 159.645V161.41C184.232 161.505 184.28 161.585 184.341 161.585H187.062C187.122 161.585 187.172 161.505 187.172 161.41V159.645C187.172 159.549 187.122 159.471 187.062 159.471Z" fill="#DEB976"/>
<path d="M204.722 124.955H195.612C195.411 124.955 195.247 125.033 195.247 125.129V126.893C195.247 126.989 195.411 127.068 195.612 127.068H204.722C204.923 127.068 205.086 126.989 205.086 126.893V125.129C205.086 125.033 204.923 124.955 204.722 124.955Z" fill="#DEB976"/>
<path d="M193.085 124.955H188.531C188.431 124.955 188.349 125.033 188.349 125.129V126.893C188.349 126.989 188.431 127.068 188.531 127.068H193.085C193.187 127.068 193.268 126.989 193.268 126.893V125.129C193.268 125.033 193.187 124.955 193.085 124.955Z" fill="#DEB976"/>
<path d="M187.062 124.955H184.341C184.28 124.955 184.232 125.033 184.232 125.129V126.893C184.232 126.989 184.28 127.068 184.341 127.068H187.062C187.122 127.068 187.172 126.989 187.172 126.893V125.129C187.172 125.033 187.122 124.955 187.062 124.955Z" fill="#DEB976"/>
<path d="M194.294 130.193H185.185C184.984 130.193 184.82 130.271 184.82 130.368V132.132C184.82 132.228 184.984 132.306 185.185 132.306H194.294C194.496 132.306 194.659 132.228 194.659 132.132V130.368C194.659 130.271 194.496 130.193 194.294 130.193Z" fill="#DEB976"/>
<path d="M182.658 130.193H178.104C178.004 130.193 177.922 130.271 177.922 130.368V132.132C177.922 132.228 178.004 132.306 178.104 132.306H182.658C182.76 132.306 182.841 132.228 182.841 132.132V130.368C182.841 130.271 182.76 130.193 182.658 130.193Z" fill="#DEB976"/>
<path d="M176.635 130.193H173.914C173.853 130.193 173.804 130.271 173.804 130.368V132.132C173.804 132.228 173.853 132.306 173.914 132.306H176.635C176.695 132.306 176.745 132.228 176.745 132.132V130.368C176.745 130.271 176.695 130.193 176.635 130.193Z" fill="#DEB976"/>
<path d="M204.722 137.589H195.612C195.411 137.589 195.247 137.667 195.247 137.764V139.527C195.247 139.624 195.411 139.702 195.612 139.702H204.722C204.923 139.702 205.086 139.624 205.086 139.527V137.764C205.086 137.667 204.923 137.589 204.722 137.589Z" fill="#DEB976"/>
<path d="M193.085 137.589H188.531C188.431 137.589 188.349 137.667 188.349 137.764V139.527C188.349 139.624 188.431 139.702 188.531 139.702H193.085C193.187 139.702 193.268 139.624 193.268 139.527V137.764C193.268 137.667 193.187 137.589 193.085 137.589Z" fill="#DEB976"/>
<path d="M187.062 137.589H184.341C184.28 137.589 184.232 137.667 184.232 137.764V139.527C184.232 139.624 184.28 139.702 184.341 139.702H187.062C187.122 139.702 187.172 139.624 187.172 139.527V137.764C187.172 137.667 187.122 137.589 187.062 137.589Z" fill="#DEB976"/>
<path d="M199.991 146.042H190.881C190.68 146.042 190.517 146.12 190.517 146.216V147.981C190.517 148.076 190.68 148.156 190.881 148.156H199.991C200.192 148.156 200.356 148.076 200.356 147.981V146.216C200.356 146.12 200.192 146.042 199.991 146.042Z" fill="#DEB976"/>
<path d="M188.355 146.042H183.801C183.699 146.042 183.618 146.12 183.618 146.216V147.981C183.618 148.076 183.699 148.156 183.801 148.156H188.355C188.456 148.156 188.537 148.076 188.537 147.981V146.216C188.537 146.12 188.456 146.042 188.355 146.042Z" fill="#DEB976"/>
<path d="M182.331 146.042H179.61C179.549 146.042 179.5 146.12 179.5 146.216V147.981C179.5 148.076 179.549 148.156 179.61 148.156H182.331C182.392 148.156 182.44 148.076 182.44 147.981V146.216C182.44 146.12 182.392 146.042 182.331 146.042Z" fill="#DEB976"/>
<path d="M194.294 153.439H185.185C184.984 153.439 184.82 153.517 184.82 153.614V155.378C184.82 155.475 184.984 155.551 185.185 155.551H194.294C194.496 155.551 194.659 155.475 194.659 155.378V153.614C194.659 153.517 194.496 153.439 194.294 153.439Z" fill="#DEB976"/>
<path d="M182.658 153.439H178.104C178.004 153.439 177.922 153.517 177.922 153.614V155.378C177.922 155.475 178.004 155.551 178.104 155.551H182.658C182.76 155.551 182.841 155.475 182.841 155.378V153.614C182.841 153.517 182.76 153.439 182.658 153.439Z" fill="#DEB976"/>
<path d="M176.635 153.439H173.914C173.853 153.439 173.804 153.517 173.804 153.614V155.378C173.804 155.475 173.853 155.551 173.914 155.551H176.635C176.695 155.551 176.745 155.475 176.745 155.378V153.614C176.745 153.517 176.695 153.439 176.635 153.439Z" fill="#DEB976"/>
<path d="M204.722 159.471H195.612C195.411 159.471 195.247 159.549 195.247 159.645V161.41C195.247 161.505 195.411 161.585 195.612 161.585H204.722C204.923 161.585 205.086 161.505 205.086 161.41V159.645C205.086 159.549 204.923 159.471 204.722 159.471Z" fill="#DEB976"/>
<path d="M193.085 159.471H188.531C188.431 159.471 188.349 159.549 188.349 159.645V161.41C188.349 161.505 188.431 161.585 188.531 161.585H193.085C193.187 161.585 193.268 161.505 193.268 161.41V159.645C193.268 159.549 193.187 159.471 193.085 159.471Z" fill="#DEB976"/>
<path d="M187.062 159.471H184.341C184.28 159.471 184.232 159.549 184.232 159.645V161.41C184.232 161.505 184.28 161.585 184.341 161.585H187.062C187.122 161.585 187.172 161.505 187.172 161.41V159.645C187.172 159.549 187.122 159.471 187.062 159.471Z" fill="#DEB976"/>
<path d="M203.334 171.806H194.225C194.024 171.806 193.86 171.885 193.86 171.982V173.745C193.86 173.842 194.024 173.919 194.225 173.919H203.334C203.536 173.919 203.699 173.842 203.699 173.745V171.982C203.699 171.885 203.536 171.806 203.334 171.806Z" fill="#DEB976"/>
<path d="M191.698 171.806H187.144C187.044 171.806 186.962 171.885 186.962 171.982V173.745C186.962 173.842 187.044 173.919 187.144 173.919H191.698C191.8 173.919 191.881 173.842 191.881 173.745V171.982C191.881 171.885 191.8 171.806 191.698 171.806Z" fill="#DEB976"/>
<path d="M185.674 171.806H182.954C182.893 171.806 182.845 171.885 182.845 171.982V173.745C182.845 173.842 182.893 173.919 182.954 173.919H185.674C185.735 173.919 185.784 173.842 185.784 173.745V171.982C185.784 171.885 185.735 171.806 185.674 171.806Z" fill="#DEB976"/>
<path d="M192.907 177.045H183.798C183.597 177.045 183.433 177.124 183.433 177.219V178.983C183.433 179.08 183.597 179.158 183.798 179.158H192.907C193.108 179.158 193.272 179.08 193.272 178.983V177.219C193.272 177.124 193.108 177.045 192.907 177.045Z" fill="#DEB976"/>
<path d="M181.271 177.045H176.717C176.617 177.045 176.535 177.124 176.535 177.219V178.983C176.535 179.08 176.617 179.158 176.717 179.158H181.271C181.372 179.158 181.453 179.08 181.453 178.983V177.219C181.453 177.124 181.372 177.045 181.271 177.045Z" fill="#DEB976"/>
<path d="M175.247 177.045H172.527C172.466 177.045 172.417 177.124 172.417 177.219V178.983C172.417 179.08 172.466 179.158 172.527 179.158H175.247C175.308 179.158 175.358 179.08 175.358 178.983V177.219C175.358 177.124 175.308 177.045 175.247 177.045Z" fill="#DEB976"/>
<path d="M203.334 184.442H194.225C194.024 184.442 193.86 184.52 193.86 184.617V186.381C193.86 186.476 194.024 186.554 194.225 186.554H203.334C203.536 186.554 203.699 186.476 203.699 186.381V184.617C203.699 184.52 203.536 184.442 203.334 184.442Z" fill="#DEB976"/>
<path d="M191.698 184.442H187.144C187.044 184.442 186.962 184.52 186.962 184.617V186.381C186.962 186.476 187.044 186.554 187.144 186.554H191.698C191.8 186.554 191.881 186.476 191.881 186.381V184.617C191.881 184.52 191.8 184.442 191.698 184.442Z" fill="#DEB976"/>
<path d="M185.674 184.442H182.954C182.893 184.442 182.845 184.52 182.845 184.617V186.381C182.845 186.476 182.893 186.554 182.954 186.554H185.674C185.735 186.554 185.784 186.476 185.784 186.381V184.617C185.784 184.52 185.735 184.442 185.674 184.442Z" fill="#DEB976"/>
<path d="M198.604 192.895H189.494C189.293 192.895 189.129 192.972 189.129 193.069V194.833C189.129 194.93 189.293 195.008 189.494 195.008H198.604C198.805 195.008 198.969 194.93 198.969 194.833V193.069C198.969 192.972 198.805 192.895 198.604 192.895Z" fill="#DEB976"/>
<path d="M186.968 192.895H182.414C182.314 192.895 182.231 192.972 182.231 193.069V194.833C182.231 194.93 182.314 195.008 182.414 195.008H186.968C187.069 195.008 187.15 194.93 187.15 194.833V193.069C187.15 192.972 187.069 192.895 186.968 192.895Z" fill="#DEB976"/>
<path d="M180.944 192.895H178.223C178.162 192.895 178.113 192.972 178.113 193.069V194.833C178.113 194.93 178.162 195.008 178.223 195.008H180.944C181.005 195.008 181.054 194.93 181.054 194.833V193.069C181.054 192.972 181.005 192.895 180.944 192.895Z" fill="#DEB976"/>
<path d="M333.568 80.1427H324.459C324.258 80.1427 324.095 80.221 324.095 80.3173V82.0816C324.095 82.178 324.258 82.2561 324.459 82.2561H333.568C333.77 82.2561 333.932 82.178 333.932 82.0816V80.3173C333.932 80.221 333.77 80.1427 333.568 80.1427Z" fill="#DEB976"/>
<path d="M321.932 80.143H317.377C317.276 80.143 317.195 80.2211 317.195 80.3175V82.0816C317.195 82.178 317.276 82.2561 317.377 82.2561H321.932C322.032 82.2561 322.113 82.178 322.113 82.0816V80.3175C322.113 80.2211 322.032 80.143 321.932 80.143Z" fill="#DEB976"/>
<path d="M315.906 80.1434H313.186C313.124 80.1434 313.076 80.2217 313.076 80.3178V82.0821C313.076 82.1787 313.124 82.2566 313.186 82.2566H315.906C315.966 82.2566 316.015 82.1787 316.015 82.0821V80.3178C316.015 80.2217 315.966 80.1434 315.906 80.1434Z" fill="#DEB976"/>
<path d="M323.139 85.3817H314.032C313.831 85.3817 313.667 85.46 313.667 85.5563V87.3203C313.667 87.4168 313.831 87.4948 314.032 87.4948H323.139C323.342 87.4948 323.505 87.4168 323.505 87.3203V85.5563C323.505 85.46 323.342 85.3817 323.139 85.3817Z" fill="#DEB976"/>
<path d="M311.506 85.3823H306.951C306.849 85.3823 306.769 85.4605 306.769 85.5567V87.3209C306.769 87.4172 306.849 87.4952 306.951 87.4952H311.506C311.607 87.4952 311.687 87.4172 311.687 87.3209V85.5567C311.687 85.4605 311.607 85.3823 311.506 85.3823Z" fill="#DEB976"/>
<path d="M305.481 85.3816H302.759C302.699 85.3816 302.65 85.4597 302.65 85.5559V87.3201C302.65 87.4164 302.699 87.4946 302.759 87.4946H305.481C305.543 87.4946 305.59 87.4164 305.59 87.3201V85.5559C305.59 85.4597 305.543 85.3816 305.481 85.3816Z" fill="#DEB976"/>
<path d="M333.568 92.7774H324.459C324.258 92.7774 324.095 92.8557 324.095 92.952V94.7161C324.095 94.8124 324.258 94.8906 324.459 94.8906H333.568C333.77 94.8906 333.932 94.8124 333.932 94.7161V92.952C333.932 92.8557 333.77 92.7774 333.568 92.7774Z" fill="#DEB976"/>
<path d="M321.932 92.7779H317.377C317.276 92.7779 317.195 92.8559 317.195 92.9524V94.7165C317.195 94.8129 317.276 94.891 317.377 94.891H321.932C322.032 94.891 322.113 94.8129 322.113 94.7165V92.9524C322.113 92.8559 322.032 92.7779 321.932 92.7779Z" fill="#DEB976"/>
<path d="M315.906 92.7784H313.186C313.124 92.7784 313.076 92.8565 313.076 92.9529V94.7169C313.076 94.8135 313.124 94.8916 313.186 94.8916H315.906C315.966 94.8916 316.015 94.8135 316.015 94.7169V92.9529C316.015 92.8565 315.966 92.7784 315.906 92.7784Z" fill="#DEB976"/>
<path d="M328.834 101.231H319.728C319.526 101.231 319.362 101.309 319.362 101.405V103.169C319.362 103.266 319.526 103.344 319.728 103.344H328.834C329.036 103.344 329.2 103.266 329.2 103.169V101.405C329.2 101.309 329.036 101.231 328.834 101.231Z" fill="#DEB976"/>
<path d="M317.201 101.23H312.647C312.546 101.23 312.466 101.308 312.466 101.405V103.169C312.466 103.265 312.546 103.343 312.647 103.343H317.201C317.302 103.343 317.384 103.265 317.384 103.169V101.405C317.384 101.308 317.302 101.23 317.201 101.23Z" fill="#DEB976"/>
<path d="M311.177 101.231H308.455C308.396 101.231 308.346 101.309 308.346 101.405V103.169C308.346 103.266 308.396 103.344 308.455 103.344H311.177C311.238 103.344 311.286 103.266 311.286 103.169V101.405C311.286 101.309 311.238 101.231 311.177 101.231Z" fill="#DEB976"/>
<path d="M323.139 108.627H314.032C313.831 108.627 313.667 108.705 313.667 108.801V110.565C313.667 110.662 313.831 110.74 314.032 110.74H323.139C323.342 110.74 323.505 110.662 323.505 110.565V108.801C323.505 108.705 323.342 108.627 323.139 108.627Z" fill="#DEB976"/>
<path d="M311.506 108.627H306.951C306.849 108.627 306.769 108.705 306.769 108.802V110.566C306.769 110.662 306.849 110.74 306.951 110.74H311.506C311.607 110.74 311.687 110.662 311.687 110.566V108.802C311.687 108.705 311.607 108.627 311.506 108.627Z" fill="#DEB976"/>
<path d="M305.481 108.627H302.759C302.699 108.627 302.65 108.705 302.65 108.801V110.565C302.65 110.662 302.699 110.74 302.759 110.74H305.481C305.543 110.74 305.59 110.662 305.59 110.565V108.801C305.59 108.705 305.543 108.627 305.481 108.627Z" fill="#DEB976"/>
<path d="M333.568 114.66H324.459C324.258 114.66 324.095 114.738 324.095 114.834V116.598C324.095 116.695 324.258 116.773 324.459 116.773H333.568C333.77 116.773 333.932 116.695 333.932 116.598V114.834C333.932 114.738 333.77 114.66 333.568 114.66Z" fill="#DEB976"/>
<path d="M321.932 114.66H317.377C317.276 114.66 317.195 114.738 317.195 114.834V116.598C317.195 116.695 317.276 116.773 317.377 116.773H321.932C322.032 116.773 322.113 116.695 322.113 116.598V114.834C322.113 114.738 322.032 114.66 321.932 114.66Z" fill="#DEB976"/>
<path d="M315.906 114.661H313.186C313.124 114.661 313.076 114.738 313.076 114.835V116.599C313.076 116.695 313.124 116.774 313.186 116.774H315.906C315.966 116.774 316.015 116.695 316.015 116.599V114.835C316.015 114.738 315.966 114.661 315.906 114.661Z" fill="#DEB976"/>
<path d="M333.568 80.1427H324.459C324.258 80.1427 324.095 80.221 324.095 80.3173V82.0816C324.095 82.178 324.258 82.2561 324.459 82.2561H333.568C333.77 82.2561 333.932 82.178 333.932 82.0816V80.3173C333.932 80.221 333.77 80.1427 333.568 80.1427Z" fill="#DEB976"/>
<path d="M321.932 80.143H317.377C317.276 80.143 317.195 80.2211 317.195 80.3175V82.0816C317.195 82.178 317.276 82.2561 317.377 82.2561H321.932C322.032 82.2561 322.113 82.178 322.113 82.0816V80.3175C322.113 80.2211 322.032 80.143 321.932 80.143Z" fill="#DEB976"/>
<path d="M315.906 80.1434H313.186C313.124 80.1434 313.076 80.2217 313.076 80.3178V82.0821C313.076 82.1787 313.124 82.2566 313.186 82.2566H315.906C315.966 82.2566 316.015 82.1787 316.015 82.0821V80.3178C316.015 80.2217 315.966 80.1434 315.906 80.1434Z" fill="#DEB976"/>
<path d="M323.139 85.3817H314.032C313.831 85.3817 313.667 85.46 313.667 85.5563V87.3203C313.667 87.4168 313.831 87.4948 314.032 87.4948H323.139C323.342 87.4948 323.505 87.4168 323.505 87.3203V85.5563C323.505 85.46 323.342 85.3817 323.139 85.3817Z" fill="#DEB976"/>
<path d="M311.506 85.3823H306.951C306.849 85.3823 306.769 85.4605 306.769 85.5567V87.3209C306.769 87.4172 306.849 87.4952 306.951 87.4952H311.506C311.607 87.4952 311.687 87.4172 311.687 87.3209V85.5567C311.687 85.4605 311.607 85.3823 311.506 85.3823Z" fill="#DEB976"/>
<path d="M305.481 85.3816H302.759C302.699 85.3816 302.65 85.4597 302.65 85.5559V87.3201C302.65 87.4164 302.699 87.4946 302.759 87.4946H305.481C305.543 87.4946 305.59 87.4164 305.59 87.3201V85.5559C305.59 85.4597 305.543 85.3816 305.481 85.3816Z" fill="#DEB976"/>
<path d="M333.568 92.7774H324.459C324.258 92.7774 324.095 92.8557 324.095 92.952V94.7161C324.095 94.8124 324.258 94.8906 324.459 94.8906H333.568C333.77 94.8906 333.932 94.8124 333.932 94.7161V92.952C333.932 92.8557 333.77 92.7774 333.568 92.7774Z" fill="#DEB976"/>
<path d="M321.932 92.7779H317.377C317.276 92.7779 317.195 92.8559 317.195 92.9524V94.7165C317.195 94.8129 317.276 94.891 317.377 94.891H321.932C322.032 94.891 322.113 94.8129 322.113 94.7165V92.9524C322.113 92.8559 322.032 92.7779 321.932 92.7779Z" fill="#DEB976"/>
<path d="M315.906 92.7784H313.186C313.124 92.7784 313.076 92.8565 313.076 92.9529V94.7169C313.076 94.8135 313.124 94.8916 313.186 94.8916H315.906C315.966 94.8916 316.015 94.8135 316.015 94.7169V92.9529C316.015 92.8565 315.966 92.7784 315.906 92.7784Z" fill="#DEB976"/>
<path d="M328.834 101.231H319.728C319.526 101.231 319.362 101.309 319.362 101.405V103.169C319.362 103.266 319.526 103.344 319.728 103.344H328.834C329.036 103.344 329.2 103.266 329.2 103.169V101.405C329.2 101.309 329.036 101.231 328.834 101.231Z" fill="#DEB976"/>
<path d="M317.201 101.23H312.647C312.546 101.23 312.466 101.308 312.466 101.405V103.169C312.466 103.265 312.546 103.343 312.647 103.343H317.201C317.302 103.343 317.384 103.265 317.384 103.169V101.405C317.384 101.308 317.302 101.23 317.201 101.23Z" fill="#DEB976"/>
<path d="M311.177 101.231H308.455C308.396 101.231 308.346 101.309 308.346 101.405V103.169C308.346 103.266 308.396 103.344 308.455 103.344H311.177C311.238 103.344 311.286 103.266 311.286 103.169V101.405C311.286 101.309 311.238 101.231 311.177 101.231Z" fill="#DEB976"/>
<path d="M323.139 108.627H314.032C313.831 108.627 313.667 108.705 313.667 108.801V110.565C313.667 110.662 313.831 110.74 314.032 110.74H323.139C323.342 110.74 323.505 110.662 323.505 110.565V108.801C323.505 108.705 323.342 108.627 323.139 108.627Z" fill="#DEB976"/>
<path d="M311.506 108.627H306.951C306.849 108.627 306.769 108.705 306.769 108.802V110.566C306.769 110.662 306.849 110.74 306.951 110.74H311.506C311.607 110.74 311.687 110.662 311.687 110.566V108.802C311.687 108.705 311.607 108.627 311.506 108.627Z" fill="#DEB976"/>
<path d="M305.481 108.627H302.759C302.699 108.627 302.65 108.705 302.65 108.801V110.565C302.65 110.662 302.699 110.74 302.759 110.74H305.481C305.543 110.74 305.59 110.662 305.59 110.565V108.801C305.59 108.705 305.543 108.627 305.481 108.627Z" fill="#DEB976"/>
<path d="M333.568 114.66H324.459C324.258 114.66 324.095 114.738 324.095 114.834V116.598C324.095 116.695 324.258 116.773 324.459 116.773H333.568C333.77 116.773 333.932 116.695 333.932 116.598V114.834C333.932 114.738 333.77 114.66 333.568 114.66Z" fill="#DEB976"/>
<path d="M321.932 114.66H317.377C317.276 114.66 317.195 114.738 317.195 114.834V116.598C317.195 116.695 317.276 116.773 317.377 116.773H321.932C322.032 116.773 322.113 116.695 322.113 116.598V114.834C322.113 114.738 322.032 114.66 321.932 114.66Z" fill="#DEB976"/>
<path d="M315.906 114.661H313.186C313.124 114.661 313.076 114.738 313.076 114.835V116.599C313.076 116.695 313.124 116.774 313.186 116.774H315.906C315.966 116.774 316.015 116.695 316.015 116.599V114.835C316.015 114.738 315.966 114.661 315.906 114.661Z" fill="#DEB976"/>
<path d="M327.859 151.879H325.711V157.493H327.859V151.879Z" fill="#DEB976"/>
<path d="M323.592 155.517H321.444V159.157H323.592V155.517Z" fill="#DEB976"/>
<path d="M332.153 155.517H330.005V159.157H332.153V155.517Z" fill="#DEB976"/>
<path d="M314.51 159.157H312.362V153.541H314.51V159.157Z" fill="#DEB976"/>
<path d="M310.242 155.517H308.095V151.879H310.242V155.517Z" fill="#DEB976"/>
<path d="M318.803 155.517H316.656V151.879H318.803V155.517Z" fill="#DEB976"/>
<path d="M312.343 184.585H314.49V190.2H312.343V184.585Z" fill="#DEB976"/>
<path d="M316.608 188.224H318.756V191.863H316.608V188.224Z" fill="#DEB976"/>
<path d="M308.048 188.224H310.195V191.863H308.048V188.224Z" fill="#DEB976"/>
<path d="M325.692 191.863H327.84V186.249H325.692V191.863Z" fill="#DEB976"/>
<path d="M329.958 188.224H332.105V184.585H329.958V188.224" fill="#DEB976"/>
<path d="M321.397 188.224H323.545V184.585H321.397V188.224Z" fill="#DEB976"/>
<path d="M312.343 184.585H314.49V190.2H312.343V184.585Z" fill="#DEB976"/>
<path d="M316.608 188.224H318.756V191.863H316.608V188.224Z" fill="#DEB976"/>
<path d="M308.048 188.224H310.195V191.863H308.048V188.224Z" fill="#DEB976"/>
<path d="M325.692 191.863H327.84V186.249H325.692V191.863Z" fill="#DEB976"/>
<path d="M329.958 188.224H332.105V184.585H329.958V188.224" fill="#DEB976"/>
<path d="M321.397 188.224H323.545V184.585H321.397V188.224Z" fill="#DEB976"/>
<path d="M340.15 184.585H342.299V190.2H340.15V184.585Z" fill="#DEB976"/>
<path d="M344.419 188.224H346.567V191.863H344.419V188.224Z" fill="#DEB976"/>
<path d="M335.855 188.224H338.003V191.863H335.855V188.224Z" fill="#DEB976"/>
<path d="M353.502 191.863H355.649V186.249H353.502V191.863Z" fill="#DEB976"/>
<path d="M357.767 188.224H359.916V184.585H357.767V188.224Z" fill="#DEB976"/>
<path d="M349.206 188.224H351.353V184.585H349.206V188.224Z" fill="#DEB976"/>
<path d="M340.15 184.585H342.299V190.2H340.15V184.585Z" fill="#DEB976"/>
<path d="M344.419 188.224H346.567V191.863H344.419V188.224Z" fill="#DEB976"/>
<path d="M335.855 188.224H338.003V191.863H335.855V188.224Z" fill="#DEB976"/>
<path d="M353.502 191.863H355.649V186.249H353.502V191.863Z" fill="#DEB976"/>
<path d="M357.767 188.224H359.916V184.585H357.767V188.224Z" fill="#DEB976"/>
<path d="M349.206 188.224H351.353V184.585H349.206V188.224Z" fill="#DEB976"/>
<path d="M312.537 191.863H314.684V197.478H312.537V191.863Z" fill="#DEB976"/>
<path d="M316.805 195.502H318.951V199.14H316.805V195.502Z" fill="#DEB976"/>
<path d="M308.241 195.502H310.389V199.14H308.241V195.502Z" fill="#DEB976"/>
<path d="M325.886 199.14H328.033V193.525H325.886V199.14Z" fill="#DEB976"/>
<path d="M330.154 195.5H332.301V191.863H330.154V195.5Z" fill="#DEB976"/>
<path d="M321.591 195.5H323.738V191.863H321.591V195.5" fill="#DEB976"/>
<path d="M312.537 191.863H314.684V197.478H312.537V191.863Z" fill="#DEB976"/>
<path d="M316.805 195.502H318.951V199.14H316.805V195.502Z" fill="#DEB976"/>
<path d="M308.241 195.502H310.389V199.14H308.241V195.502Z" fill="#DEB976"/>
<path d="M325.886 199.14H328.033V193.525H325.886V199.14Z" fill="#DEB976"/>
<path d="M330.154 195.5H332.301V191.863H330.154V195.5Z" fill="#DEB976"/>
<path d="M321.591 195.5H323.738V191.863H321.591V195.5" fill="#DEB976"/>
<path d="M340.348 191.863H342.495V197.478H340.348V191.863Z" fill="#DEB976"/>
<path d="M344.613 195.502H346.76V199.14H344.613V195.502Z" fill="#DEB976"/>
<path d="M336.052 195.502H338.199V199.14H336.052V195.502Z" fill="#DEB976"/>
<path d="M353.697 199.14H355.845V193.525H353.697V199.14Z" fill="#DEB976"/>
<path d="M357.962 195.5H360.109V191.863H357.962V195.5Z" fill="#DEB976"/>
<path d="M349.401 195.5H351.549V191.863H349.401V195.5Z" fill="#DEB976"/>
<path d="M340.348 191.863H342.495V197.478H340.348V191.863Z" fill="#DEB976"/>
<path d="M344.613 195.502H346.76V199.14H344.613V195.502Z" fill="#DEB976"/>
<path d="M336.052 195.502H338.199V199.14H336.052V195.502Z" fill="#DEB976"/>
<path d="M353.697 199.14H355.845V193.525H353.697V199.14Z" fill="#DEB976"/>
<path d="M357.962 195.5H360.109V191.863H357.962V195.5Z" fill="#DEB976"/>
<path d="M349.401 195.5H351.549V191.863H349.401V195.5Z" fill="#DEB976"/>
<path d="M257.374 121.539H258.419V156.174H257.374V121.539Z" fill="#DEB976"/>
<path d="M258.939 121.539H259.983V156.174H258.939V121.539Z" fill="#DEB976"/>
<path d="M260.505 121.538H261.548V156.174H260.505V121.538Z" fill="#DEB976"/>
<path d="M262.591 121.538H263.634V140.171H262.591V121.538Z" fill="#DEB976"/>
<path d="M264.157 121.538H265.2V140.172H264.157V121.538Z" fill="#DEB976"/>
<path d="M265.425 53.5269L247.106 50.9692C247.106 50.9692 245.29 46.8889 241.911 45.3272C238.531 43.7668 233.587 44.7252 233.587 44.7252C233.587 44.7252 231.059 36.9939 220.051 37.224C209.04 37.4541 204.569 49.97 204.569 49.97L182.175 53.5269H265.425" fill="#FFD03F"/>
<path d="M39.6284 67.7183L59.1583 64.42C59.1583 64.42 63.0575 52.8128 72.6591 52.5993C82.2606 52.3844 84.466 59.5545 84.466 59.5545C84.466 59.5545 88.7767 58.6668 91.7242 60.1145C94.6716 61.5622 96.2558 65.3466 96.2558 65.3466L112.231 67.7183H39.6284Z" fill="#FFD03F"/>
<path d="M198.583 96.0702L233.365 96.662L225.993 94.8018C225.993 94.8018 225.546 91.837 221.89 91.5965C219.248 91.4229 217.355 92.8218 217.355 92.8218C217.355 92.8218 215.932 87.9705 207.736 88.3111C198.618 88.6898 198.583 96.0702 198.583 96.0702" fill="#FFD03F"/>
<path d="M148.151 135.393C144.22 135.395 144.65 139.134 144.65 139.134L145.541 143.408L135.508 150.889L133.767 164.983L138.4 169.456L136.21 177.025L134.397 197.723L124.419 216.691L129.703 216.993L139.94 199.903L144.955 179.277L151.323 191.587L160.029 216.993L171.107 213.966L163.098 210.71L157.954 185.029L152.357 174.591L151.726 156.769L155.385 161.94L166.445 174.517L167.198 178.07L160.502 179.763L160.79 193.206L178.67 193.418L178.515 179.979L172.367 178.554L171.107 173.725L168.607 170.749L159.406 158.935L154.072 148.996L149.387 143.918L151.651 143.178L151.591 139.825C151.591 139.825 152.195 135.392 148.151 135.393" fill="#BB7B1B"/>
<path d="M330.681 144.403L336.359 149.484L341.346 154.998L342.979 167.981L343.287 170.024L350.412 170.458L351.598 182.319L333.718 182.988L336.637 171.061L339.148 169.655L338.919 157.884L332.006 152.025L329.954 159.831L335.161 177.084L330.703 180.069L326.751 193.421C326.751 193.421 330.552 198.04 331.799 201.409C333.045 204.779 332.78 211.537 332.78 211.537L334.892 214.333L332.78 215.113C332.78 215.113 330.584 216.737 328.936 216.964C327.284 217.191 326.179 216.021 326.179 216.021L329.217 214.398L330.601 212.317L320.947 193.747L324.247 180.132L322.935 182.406L315.737 191.194C315.737 191.194 317.105 197.862 315.737 201.242C314.372 204.624 309.611 214.527 309.611 214.527L307.465 214.343L306.598 212.317L304.596 212.058L303.144 208.872C303.144 208.872 302.866 208.044 302.968 207.378C303.065 206.712 303.539 206.208 303.539 206.208L306.082 209.217L308.688 209.979L311.406 188.598L315.763 179.767L311.928 176.98L322.925 160.228L321.762 156.141L320.625 152.225L315.248 160.353L311.809 161.345L309.885 149.484L309.933 146.197L311.337 148.589L312.814 148.063L311.678 152.025L313.136 156.262L317.48 149.763L320.312 146.138L326.809 144.034L327.709 142.199C327.709 142.199 324.463 142.293 324.191 141.385C323.917 140.476 323.915 137.663 323.915 137.663C323.915 137.663 322.907 134.066 323.623 133.264C324.342 132.462 327.804 132.378 327.804 132.378C327.804 132.378 330.228 130.837 331.641 131.625C333.054 132.413 333.667 132.884 333.9 135.253C334.13 137.624 332.648 137.446 333.852 139.314C335.058 141.181 336.777 141.924 336.777 141.924C336.777 141.924 334.232 142.728 333.447 142.733C332.661 142.739 330.815 141.965 330.815 141.965L330.681 144.403" fill="#BB7B1B"/>
<path d="M88.3661 200.438L52.4268 194.547L50.7247 171.591L21.2982 167.567L20.0324 162.187L14.5966 161.77L11.5365 166.232L0 164.653V211.561H38.7785C38.7785 214.562 41.5536 216.993 44.9768 216.993C48.4 216.993 51.1751 214.562 51.1751 211.561H53.688L88.6885 210.817L88.3661 200.438" fill="#BB7B1B"/>
<path d="M216.989 152.315C220.101 152.316 219.114 155.544 219.114 155.544L218.409 158.916L221.339 161.094L223.553 160.535L226.958 161.637L226.349 164.82L228.234 174.555L223.765 177.115L224.895 181.76L227.228 201.784L235.125 216.755L230.942 216.993L222.842 203.506L218.873 187.226L213.834 196.942L206.943 216.993L196.169 214.68L204.999 212.022L208.586 191.767L213.014 183.529L212.804 169.303L208.629 174.149L201.849 167.397L202.544 166.692L201.219 164.846L201.207 163.671L201.683 162.436L202.641 163.679L203.489 163.353L204.38 166.342L208.36 169.099L211.657 163.328L215.366 159.32L213.574 158.737L213.621 156.09L213.658 154.545L210.636 154.233L213.658 153.811L214.372 152.212C214.372 152.212 215.771 152.132 216.292 152.132L216.989 152.315" fill="#BB7B1B"/>
<path d="M103.494 209.793V212.448C103.953 212.003 104.46 212.06 104.981 212.297L107.449 214.801L117.747 218.083C117.992 218.237 118.186 218.402 118.333 218.58C118.662 218.975 118.535 219.31 118.535 219.815C118.535 220.397 95.6838 219.98 95.6838 219.673C95.6838 218.395 95.6838 215.252 95.6838 214.075C95.6838 213.825 95.8981 213.621 96.1602 213.621V209.793H103.494" fill="#2445AC"/>
<path d="M95.6838 218.926V219.673L118.409 220.422C118.409 220.422 118.581 219.673 118.565 219.673L95.6838 218.926" fill="#140808"/>
<path d="M107.676 214.917L106.054 215.861L105.501 215.422L107.023 214.534C107.301 214.57 107.52 214.695 107.676 214.917" fill="#140808"/>
<path d="M108.689 215.231L107.318 216.486L106.679 216.173L107.965 214.992C108.245 214.969 108.487 215.047 108.689 215.231Z" fill="#140808"/>
<path d="M109.739 215.567L108.399 216.854L107.753 216.554L109.009 215.345C109.288 215.316 109.532 215.386 109.739 215.567" fill="#140808"/>
<path d="M103.494 209.793V212.448C103.494 212.448 102.984 212.917 103.103 213.16C103.239 213.439 104.312 214.121 104.312 214.121C101.195 215.116 98.4492 215.055 96.1686 213.68V209.793H103.494Z" fill="white"/>
<path d="M103.494 211.586L96.1686 209.793H103.494V211.586Z" fill="#676A6A"/>
<path d="M95.6847 219.673L96.7739 221.909H100.241L101.939 221.122L105.214 221.909L108.566 221.629L110.49 221.909L112.007 221.629L113.502 222.21L114.682 221.909L118.022 222.21L118.559 220.422L95.6847 219.673" fill="#CFCFCF"/>
<path d="M68.6479 203.188L68.6473 205.911C69.2743 205.736 69.6886 206.02 70.0241 206.47L70.9113 209.805C72.6223 213.397 78.1645 216.761 78.5103 218.164C78.6807 218.852 78.0294 219.453 77.7729 219.895C77.4777 220.404 57.9973 208.871 58.1532 208.602C58.8014 207.485 60.3955 204.737 60.9929 203.707C61.1201 203.487 61.4108 203.411 61.6399 203.531L63.5819 200.184L68.6479 203.188Z" fill="#2445AC"/>
<path d="M58.5322 207.947L58.1533 208.602L77.7735 219.911L78.205 219.282L58.5322 207.947Z" fill="#140808"/>
<path d="M71.051 210.012L69.1544 210.084L68.8929 209.444L70.674 209.375C70.8988 209.536 71.0266 209.746 71.051 210.012Z" fill="#140808"/>
<path d="M71.7775 210.758L69.9415 211.218L69.5422 210.648L71.2657 210.213C71.5215 210.323 71.6938 210.503 71.7775 210.758" fill="#140808"/>
<path d="M72.5251 211.538L70.7012 212.042L70.2877 211.48L71.9999 211.005C72.2582 211.111 72.435 211.285 72.5251 211.538Z" fill="#140808"/>
<path d="M68.6469 203.053L68.6474 205.911C68.6474 205.911 67.9635 206.085 67.9444 206.353C67.9213 206.66 68.5136 207.755 68.5136 207.755C65.2834 207.177 62.914 205.849 61.618 203.586L63.5895 200.189L68.6469 203.053" fill="white"/>
<path d="M68.6474 205.106L61.6184 203.418L68.6479 203.188L68.6474 205.106Z" fill="#676A6A"/>
<path d="M58.1537 208.602L57.9715 211.063L61.0028 212.673L62.8856 212.775L65.351 214.983L68.4234 216.295L69.9636 217.434L71.4313 217.892L72.4445 219.095L73.6288 219.381L76.3956 221.193L77.7719 219.88L58.1537 208.602" fill="#CFCFCF"/>
<path d="M90.4761 124.234V159.731L69.2411 203.418H60.4344L77.8321 155.939L75.941 125.893L90.4761 124.234" fill="#1E1E26"/>
<path d="M103.046 122.575L103.046 125.184L109.95 158.271L104.625 210.048L94.5188 210.086L97.0722 160.007L90.1975 140.226L87.8522 124.218L103.046 122.575" fill="#1E1E26"/>
<path d="M76.9718 132.903L79.4427 129.473H80.1048L77.4024 133.285L76.9718 132.903Z" fill="#650B00"/>
<path d="M75.9199 125.923L76.1212 128.807L103.573 127.483L103.009 124.306L75.9199 125.923Z" fill="black"/>
<path d="M87.161 125.261L93.135 124.976L93.2908 127.958L87.3167 128.244L87.161 125.261" fill="black"/>
<path d="M77.2012 125.825L78.0434 125.757L78.3103 128.807L77.4682 128.874L77.2012 125.825" fill="#882A1F"/>
<path d="M81.9659 125.329L82.8081 125.261L83.1125 128.74L82.2705 128.807L81.9659 125.329" fill="#882A1F"/>
<path d="M97.201 124.373L98.043 124.306L98.3569 127.891L97.5148 127.958L97.201 124.373Z" fill="#882A1F"/>
<path d="M100.986 88.1725C100.986 85.5367 98.947 83.3082 96.2165 82.9597C93.6916 82.6375 90.8028 82.2688 89.2652 82.0722C88.5374 81.9795 87.7987 82.0013 87.078 82.1359C84.5266 82.6119 78.094 83.8126 74.3657 84.5085C72.5794 84.8421 71.0055 85.8419 69.9913 87.288C68.1622 89.8958 65.4016 93.8314 65.4016 93.8314H69.7638C69.7638 93.8314 68.5161 97.5075 67.5277 100.419C67.2522 101.23 67.3994 102.119 67.9235 102.809C68.4477 103.499 69.2855 103.907 70.1772 103.907H70.3339V117.13C70.3339 118.154 70.7703 119.134 71.5425 119.843C72.3146 120.553 73.3557 120.93 74.4254 120.888C82.7731 120.563 100.986 119.853 100.986 119.853V88.1725" fill="#2E2E2E"/>
<path d="M96.0262 73.0396C96.0262 69.9814 93.625 67.5039 90.663 67.5039H90.2894C87.3272 67.5039 84.9261 69.9814 84.9261 73.0396V84.613L88.3914 87.0254L91.4462 84.8944L91.6139 80.6445H93.2646C94.7899 80.6445 96.0262 79.3688 96.0262 77.7948C96.0262 76.4018 96.0262 74.6758 96.0262 73.0396" fill="#F3D0C5"/>
<path d="M92.6775 73.9753C92.6775 73.7292 92.5385 73.5279 92.3669 73.5279C92.1954 73.5279 92.0563 73.7292 92.0563 73.9753C92.0563 74.2229 92.1954 74.4242 92.3669 74.4242C92.5385 74.4242 92.6775 74.2229 92.6775 73.9753Z" fill="black"/>
<path d="M95.245 74.1634C95.245 73.9158 95.3517 73.716 95.4832 73.716C95.6148 73.716 95.7215 73.9158 95.7215 74.1634C95.7215 74.411 95.6148 74.6108 95.4832 74.6108C95.3517 74.6108 95.245 74.411 95.245 74.1634Z" fill="black"/>
<path d="M93.0883 72.0999V72.5502H91.6837L90.8105 73.002L91.5114 72.0999L92.9159 72.1592L93.0883 72.0999" fill="black"/>
<path d="M94.9305 72.2882V72.6285H95.8602L96.0079 72.7385L95.9535 72.4446L95.0627 72.3476L94.9305 72.2882" fill="black"/>
<path d="M91.6146 80.7212L88.7867 80.3708L91.5162 82.9901L91.6146 80.7212Z" fill="#5F330F"/>
<path d="M85.5125 73.8218L84.9326 72.7908C84.9326 72.7908 83.9064 72.8646 83.8953 73.8044C83.8857 74.5906 84.1062 75.0424 84.3266 75.2698C84.524 75.471 85.2213 75.1655 85.2213 75.1655L85.5125 73.8218" fill="#F3D0C5"/>
<path d="M84.2209 73.5594C84.2209 73.5594 84.6421 73.3248 84.8045 73.458C84.9857 73.6086 85.0409 74.2371 84.9258 74.5339C84.7872 74.8959 84.029 74.7265 84.1405 74.2979C84.1937 74.0865 84.3764 74.1169 84.4795 74.2356C84.5415 74.308 84.674 74.4543 84.7393 74.2385C84.8137 73.9909 84.822 73.7389 84.7474 73.5652C84.6879 73.432 84.2209 73.5594 84.2209 73.5594" fill="#A66F41"/>
<path d="M96.0849 68.4787C96.0849 67.5882 95.7506 66.7338 95.1556 66.104C94.5606 65.4741 93.7536 65.1208 92.9122 65.1208C91.15 65.1208 88.9647 65.1208 87.2024 65.1208C86.361 65.1208 85.554 65.4741 84.959 66.104C84.3641 66.7338 84.0297 67.5882 84.0297 68.4787C84.0297 69.611 84.0297 70.5928 84.0297 70.5928H96.0849V68.4787" fill="#882A1F"/>
<path d="M85.2622 72.8962L85.4683 73.4088L85.8152 74.9161L86.6609 75.0711L86.5043 72.8962L88.3391 71.7262L87.8633 71.2295L89.2816 70.9674L89.0656 70.5823H84.0498L82.3871 73.4088L83.758 75.9457L84.9408 77.1837V75.239C84.9408 75.239 84.6028 75.3462 84.5132 75.239C84.3648 75.0638 84.1098 74.5295 84.0498 74.1849C83.9929 73.8591 83.9514 73.3842 84.1535 73.1728C84.3555 72.9628 85.2622 72.8962 85.2622 72.8962" fill="black"/>
<path d="M89.1857 70.5928L94.5745 68.8291C98.0928 68.26 100.161 68.6915 101.27 70.2496L96.1101 70.5928H89.1857" fill="#650B00"/>
<path d="M84.0338 69.5659H85.7908V70.1306H84.0338V69.5659Z" fill="#656464"/>
<path d="M84.7438 83.0666L88.9496 84.3391L91.9666 83.0666L103.612 86.4519L103.046 110.561V122.946L75.9409 124.217L76.8487 116.034L72.093 87.6183L84.7438 83.0666" fill="#66806D"/>
<path d="M75.9408 124.217V125.893L103.046 124.217V122.575L75.9408 124.217Z" fill="#9ABAA2"/>
<path d="M83.7251 83.4331C83.9892 83.1959 84.451 83.0528 84.8794 83.0666C84.8794 83.0666 87.8183 83.9891 89.0035 83.9891C90.0562 83.9891 91.5301 83.0666 91.5301 83.0666C92.3691 82.9541 92.8996 83.2051 93.3591 83.4331C93.3591 83.4331 90.6105 85.4731 89.0035 85.4731C87.3965 85.4731 83.7251 83.4331 83.7251 83.4331" fill="#9ABAA2"/>
<path d="M81.3028 91.9054L82.6351 93.4344L81.3028 94.9634L79.9703 93.4344L81.3028 91.9054Z" fill="#9ABAA2"/>
<path d="M89.6986 91.7173L91.0309 93.2466L89.6986 94.7754L88.3661 93.2466L89.6986 91.7173Z" fill="#9ABAA2"/>
<path d="M81.8094 98.2096L83.1417 99.7389L81.8094 101.268L80.4769 99.7389L81.8094 98.2096Z" fill="#9ABAA2"/>
<path d="M87.5405 105.864L88.8728 107.393L87.5405 108.922L86.208 107.393L87.5405 105.864Z" fill="#9ABAA2"/>
<path d="M89.7397 98.0118L91.072 99.5409L89.7397 101.07L88.4073 99.5409L89.7397 98.0118Z" fill="#9ABAA2"/>
<path d="M83.5771 95.3396L84.9094 96.8687L83.5771 98.3975L82.2446 96.8687L83.5771 95.3396Z" fill="#9ABAA2"/>
<path d="M91.973 95.1516L93.3053 96.6807L91.973 98.2096L90.6405 96.6807L91.973 95.1516Z" fill="#9ABAA2"/>
<path d="M84.0842 101.644L85.4165 103.173L84.0842 104.702L82.7518 103.173L84.0842 101.644Z" fill="#9ABAA2"/>
<path d="M89.815 109.298L91.1473 110.827L89.815 112.356L88.4825 110.827L89.815 109.298Z" fill="#9ABAA2"/>
<path d="M92.0145 101.446L93.3468 102.975L92.0145 104.504L90.682 102.975L92.0145 101.446Z" fill="#9ABAA2"/>
<path d="M85.7013 91.9054L87.0337 93.4344L85.7013 94.9634L84.3689 93.4344L85.7013 91.9054Z" fill="#9ABAA2"/>
<path d="M94.0972 91.7173L95.4295 93.2466L94.0972 94.7754L92.7647 93.2466L94.0972 91.7173Z" fill="#9ABAA2"/>
<path d="M86.2083 98.2096L87.5406 99.7389L86.2083 101.268L84.8759 99.7389L86.2083 98.2096Z" fill="#9ABAA2"/>
<path d="M91.9391 105.864L93.2714 107.393L91.9391 108.922L90.6067 107.393L91.9391 105.864Z" fill="#9ABAA2"/>
<path d="M94.1382 98.0118L95.4705 99.5409L94.1382 101.07L92.8058 99.5409L94.1382 98.0118Z" fill="#9ABAA2"/>
<path d="M88.3661 95.3396L89.6984 96.8687L88.3661 98.3975L87.0336 96.8687L88.3661 95.3396Z" fill="#9ABAA2"/>
<path d="M96.7619 95.1516L98.0942 96.6807L96.7619 98.2096L95.4294 96.6807L96.7619 95.1516Z" fill="#9ABAA2"/>
<path d="M88.873 101.644L90.2053 103.173L88.873 104.702L87.5405 103.173L88.873 101.644Z" fill="#9ABAA2"/>
<path d="M94.6041 109.298L95.9364 110.827L94.6041 112.356L93.2716 110.827L94.6041 109.298Z" fill="#9ABAA2"/>
<path d="M96.8031 101.446L98.1354 102.975L96.8031 104.504L95.4706 102.975L96.8031 101.446Z" fill="#9ABAA2"/>
<path d="M119.252 81.5177L116.883 74.2183L116.573 72.1158C116.573 72.1158 116.746 72.1317 116.947 72.152C117.318 72.1868 117.632 72.43 117.744 72.7703C117.945 73.3741 118.234 74.253 118.234 74.253L119.374 74.922L120.254 69.8888C120.254 69.8888 120.297 69.0837 120.319 68.6478C120.322 68.5769 120.357 68.5103 120.414 68.4639C120.47 68.4176 120.545 68.3959 120.619 68.4046C120.735 68.4176 120.826 68.5016 120.846 68.6102C120.913 68.9707 121.054 69.7382 121.054 69.7382L121.187 71.4816L121.34 70.1682C121.34 70.1682 121.21 69.1474 121.222 68.7492C121.224 68.6782 121.256 68.6087 121.311 68.5595C121.366 68.5103 121.44 68.4842 121.515 68.4857C121.525 68.4857 121.533 68.4857 121.54 68.4871C121.67 68.4914 121.78 68.5798 121.807 68.7014C121.908 69.1503 122.14 70.1798 122.14 70.1798C122.14 70.1798 122.171 69.8699 122.201 69.5876C122.209 69.5108 122.265 69.4442 122.342 69.4196C122.419 69.3965 122.506 69.4182 122.559 69.4761C122.573 69.4891 122.584 69.5022 122.594 69.5108C122.614 69.5326 122.629 69.5586 122.637 69.5861C122.734 69.896 123.335 71.803 123.335 71.803L123.676 71.6756L124.295 74.1502L122.728 83.1229L119.252 81.5177" fill="#F3D0C5"/>
<path d="M103.563 86.4201L116.033 95.0113L118.161 80.9474L123.387 81.8162C123.387 81.8162 123.91 98.9318 121.25 101.07C119.357 102.591 103.046 98.0117 103.046 98.0117L103.563 86.4201Z" fill="#9ABAA2"/>
<path d="M72.4796 87.4139C70.4385 87.4139 67.3318 92.254 66.7287 95.2944C66.2594 97.6609 62.9045 106.649 63.0348 111.238C63.1502 115.302 67.0047 115.645 68.9267 114.595C71.5126 113.181 78.3405 103.006 78.3405 103.006L74.3261 98.2602C74.3261 98.2602 75.239 92.3125 74.8834 90.5341C74.6704 89.4694 73.524 87.4139 72.4796 87.4139" fill="#9ABAA2"/>
<path d="M75.0054 92.0872L69.6776 101.875L68.8234 102.74L65.1277 105.6L68.3625 103.959L64.1323 108.559L65.9952 107.084L74.2945 98.4398L75.0054 92.0872" fill="#3D5B45"/>
<path d="M103.046 95.4319L106.984 99.0516L102.991 98.0115L103.046 95.4319Z" fill="#3D5B45"/>
<path d="M116.028 95.0246L117.665 96.6121L116.221 93.8315L116.028 95.0246Z" fill="#3D5B45"/>
<path d="M80.6446 84.4123C83.0317 91.9325 82.5073 101.895 81.6072 109.074L75.2367 117.53L73.2668 116.328L78.4191 109.074C78.9488 101.251 77.9459 93.781 75.2368 86.2808C77.1631 84.3497 78.822 84.4122 80.6446 84.4123" fill="#494949"/>
<path d="M74.3196 98.3585L78.9798 90.9283L80.2497 89.1862C80.2497 89.1862 80.3648 89.3112 80.4982 89.4558C80.7442 89.7234 80.8011 90.1061 80.6417 90.4285C80.3583 91.0022 79.9451 91.8335 79.9451 91.8335L80.3039 93.0654L82.3654 92.1065L82.2708 91.5811C82.3409 91.3245 82.5383 91.2383 82.8852 91.3559C83.4138 91.4822 84.5913 92.058 84.9527 92.6196C85.1166 92.875 85.3287 93.0854 85.3995 93.3326L85.6211 94.1199L84.4569 95.7075L76.9235 101.257L74.3196 98.3585" fill="#F3D0C5"/>
<path d="M96.7759 84.5538L102.449 108.555C103.153 108.617 103.541 107.905 103.518 106.192V86.3954C101.577 84.6883 99.4169 84.1142 96.7759 84.5538Z" fill="#494949"/>
<path d="M90.4767 141.241L93.0382 138.097L92.2624 146.568L90.4767 141.241Z" fill="#650B00"/>
<path d="M266.141 66.8782C266.141 63.821 268.541 61.3427 271.504 61.3427H271.879C274.84 61.3427 277.241 63.821 277.241 66.8782V78.4522L273.777 80.8647L270.72 78.7336L270.554 74.4838H268.902C267.378 74.4838 266.141 73.2078 266.141 71.6336C266.141 70.2411 266.141 68.5156 266.141 66.8782" fill="#F3D0C5"/>
<path d="M269.49 67.8152C269.49 67.5679 269.629 67.3674 269.8 67.3674C269.972 67.3674 270.112 67.5679 270.112 67.8152C270.112 68.0624 269.972 68.2631 269.8 68.2631C269.629 68.2631 269.49 68.0624 269.49 67.8152Z" fill="black"/>
<path d="M266.923 68.0022C266.923 67.755 266.816 67.5544 266.685 67.5544C266.554 67.5544 266.446 67.755 266.446 68.0022C266.446 68.2497 266.554 68.45 266.685 68.45C266.816 68.45 266.923 68.2497 266.923 68.0022Z" fill="black"/>
<path d="M269.08 65.939V66.3891H270.485L271.357 66.8405L270.656 65.939L269.251 65.9989L269.08 65.939" fill="black"/>
<path d="M267.238 66.1262V66.4669H266.309L266.161 66.5764L266.215 66.2828L267.106 66.1864L267.238 66.1262" fill="black"/>
<path d="M276.012 68.4469L276.62 68.2623V67.5606L276.879 66.821L277.274 66.6506L277.51 64.3258L274.652 64.4773L274.378 65.5926L275.742 66.821L276.012 68.4469" fill="#565D6D"/>
<path d="M269.181 64.8594L268.775 63.9091L271.351 65.0179L271.226 64.4324H273.825L273.567 63.9091L274.7 64.8594L277.448 65.2062C277.448 65.2062 278.96 63.0462 278.804 62.3868C278.648 61.7277 276.478 60.6492 276.478 60.6492C276.478 60.6492 275.179 59.0061 272.985 59.0061C271.351 59.0061 267.669 60.767 267.526 60.8534C266.732 61.3329 266.495 62.8143 266.495 62.8143L269.181 64.8594" fill="black"/>
<path d="M266.848 61.6907C265.674 61.3836 263.925 63.2872 265.526 65.483L266.219 65.9305C266.39 64.8095 266.879 63.9341 267.687 63.3039L266.848 61.6907Z" fill="black"/>
<path d="M270.555 74.5602L273.382 74.2096L270.654 76.8287L270.555 74.5602Z" fill="#5F330F"/>
<path d="M276.657 67.6603L277.236 66.6289C277.236 66.6289 278.262 66.7023 278.274 67.6425C278.282 68.429 278.062 68.8806 277.842 69.1077C277.644 69.3098 276.947 69.0033 276.947 69.0033L276.657 67.6603Z" fill="#F3D0C5"/>
<path d="M277.947 67.3992C277.947 67.3992 277.526 67.1633 277.364 67.2968C277.183 67.4471 277.127 68.0757 277.243 68.3733C277.381 68.7344 278.139 68.5655 278.028 68.1368C277.975 67.9261 277.79 67.9558 277.688 68.0751C277.627 68.1464 277.494 68.2931 277.429 68.0778C277.354 67.8302 277.347 67.578 277.42 67.4048C277.48 67.2705 277.947 67.3992 277.947 67.3992" fill="#A66F41"/>
<path d="M256.13 142.102C256.13 142.102 263.642 145.849 267.371 146.03C270.816 146.2 278.511 143.197 278.511 143.197H295.632L286.584 111.375L264.023 112.237L251.172 130.11L256.13 142.102" fill="#650B00"/>
<path d="M280.77 207.795V211.108L279.23 219.145C279.338 219.466 279.47 220.103 279.47 220.103C281.655 222.41 286.698 223.228 289.474 220.456C289.474 220.456 289.645 219.866 289.645 219.672C289.645 217.652 287.148 210.552 287.148 210.552C287.066 209.604 287.036 208.676 287.148 207.795H280.77Z" fill="#560900"/>
<path d="M282.612 211.052H285.802V211.347H282.612V211.052Z" fill="black"/>
<path d="M282.665 211.621H285.854V211.915H282.665V211.621" fill="black"/>
<path d="M282.721 212.187H285.91V212.481H282.721V212.187Z" fill="black"/>
<path d="M282.775 212.754H285.964V213.048H282.775V212.754Z" fill="black"/>
<path d="M279.264 219.146L279.363 218.587C279.331 218.742 283.395 223.126 289.645 219.389V219.787C286.86 222.101 281.613 222.249 279.264 219.146" fill="black"/>
<path d="M280.696 207.843L280.784 210.288L282.107 210.8L282.336 210.174C283.363 209.576 284.761 209.632 285.809 210.174L285.954 210.8L287.131 210.551V207.843H280.696" fill="#808080"/>
<path d="M280.614 207.814L287.133 209.033V207.814H280.614Z" fill="#3A3A3A"/>
<path d="M259.038 206.702V209.356L254.87 211.818L244.786 214.993C244.542 215.145 244.347 215.312 244.2 215.488C243.871 215.885 243.81 216.428 244.046 216.881C244.281 217.335 244.769 217.617 245.298 217.604C249.37 217.517 263.265 217.211 266.271 217.145C266.592 217.139 266.849 216.889 266.849 216.582C266.849 215.304 266.849 212.162 266.849 210.985C266.849 210.733 266.635 210.53 266.373 210.53V206.702H259.038" fill="#560900"/>
<path d="M266.849 215.834V216.582L244.363 217.266C244.132 217.074 243.955 216.842 243.967 216.582L266.849 215.834Z" fill="#140808"/>
<path d="M254.859 211.825L256.48 212.769L257.033 212.332L255.512 211.443C255.234 211.479 255.015 211.603 254.859 211.825Z" fill="#140808"/>
<path d="M253.843 212.141L255.214 213.396L255.852 213.082L254.567 211.902C254.288 211.88 254.046 211.955 253.843 212.141Z" fill="#140808"/>
<path d="M252.795 212.476L254.134 213.762L254.782 213.462L253.525 212.253C253.245 212.226 253.001 212.297 252.795 212.476" fill="#140808"/>
<path d="M259.04 206.702V209.356C259.04 209.356 259.549 209.826 259.43 210.068C259.295 210.348 258.223 211.03 258.223 211.03C261.339 212.025 264.084 211.964 266.365 210.588V206.702H259.04Z" fill="#808080"/>
<path d="M259.04 208.495L266.366 206.702H259.04V208.495Z" fill="#3A3A3A"/>
<path d="M272.058 112.097V157.355L279.4 207.888H289.751L284.756 157.355L282.699 112.097H272.058" fill="#140808"/>
<path d="M262.667 113.443L254.816 153.665L256.184 206.851L268.014 206.853L266.778 153.665L272.334 125.828L273.625 113.443H262.667Z" fill="#140808"/>
<path d="M260.703 80.8649L270.551 78.4526L273.337 79.3921L277.515 78.0839L287.575 80.8649L282.679 106.794L284.66 117.374L272.702 110.949L262.667 116.504L264.133 108.153V92.8241L260.703 80.8649" fill="white"/>
<path d="M277.496 78.0884L274.37 81.0192H272.957L270.526 78.4609L269.305 78.8892L272.47 81.4114V82.3375L273.261 83.3944L271.325 95.7266L274.193 101.354L276.688 96.5309L274.37 83.172L275.019 82.3375L274.752 81.4114L278.24 79.2266L277.496 78.0884Z" fill="black"/>
<path d="M273.339 79.3915L275.284 79.6641L276.573 81.6921L277.581 78.549V78.039L273.339 79.3915" fill="white"/>
<path d="M273.314 79.3809L272.176 79.9802L271.231 81.9771L270.16 79.7755V78.5751L270.591 78.4354L273.314 79.3809" fill="white"/>
<path d="M260.415 80.8648L270.15 78.5512L271.004 86.6574L274.26 95.1142L276.923 87.3684L277.559 77.9871L287.656 80.8648L298.484 86.6574L309.466 72.4776L314.267 77.1525C314.267 77.1525 303.497 92.7821 299.965 93.9493C296.914 94.958 286.305 89.3306 286.305 89.3306L283.544 108.661L287.656 119.181H274.26L272.756 112.52L270.15 119.181L259.671 118.224L262.906 109.981V93.9493C262.906 93.9493 261.699 101.654 259.671 104.919C256.918 109.352 246.381 120.545 246.381 120.545L240.485 116.346L252.792 101.502L260.415 80.8648" fill="black"/>
<path d="M275.885 111.75H282.755V112.376H275.885V111.75Z" fill="#4C4242"/>
<path d="M263.531 111.758H270.399V112.384H263.531V111.758Z" fill="#4C4242"/>
<path d="M274.198 98.4423C274.198 98.1464 274.449 97.9065 274.759 97.9065C275.068 97.9065 275.318 98.1464 275.318 98.4423C275.318 98.7381 275.068 98.9779 274.759 98.9779C274.449 98.9779 274.198 98.7381 274.198 98.4423Z" fill="#4C4242"/>
<path d="M274.158 101.045C274.158 100.749 274.41 100.509 274.719 100.509C275.028 100.509 275.278 100.749 275.278 101.045C275.278 101.34 275.028 101.58 274.719 101.58C274.41 101.58 274.158 101.34 274.158 101.045Z" fill="#4C4242"/>
<path d="M274.118 103.647C274.118 103.351 274.368 103.111 274.677 103.111C274.987 103.111 275.237 103.351 275.237 103.647C275.237 103.943 274.987 104.183 274.677 104.183C274.368 104.183 274.118 103.943 274.118 103.647Z" fill="#4C4242"/>
<path d="M271.881 78.3719L275.088 81.2032L277.761 112.981L273.48 144.922C276.844 147.697 283.974 145.569 289.642 145.708C294.642 145.832 298.268 148.472 300.573 147.146C300.573 147.146 291.892 122.395 289.642 112.981C287.904 105.712 287.079 90.6605 287.079 90.6605C287.079 90.6605 296.77 96.1137 300.573 94.2246C304.973 92.0377 314.177 78.9779 314.177 78.9779L307.893 74.2928L298.528 86.3769L287.771 80.5189L279.621 78.3719L277.761 76.5763L274.02 77.8658L271.881 78.3719Z" fill="#882A1F"/>
<path d="M269.87 78.978L270.706 78.3387V77.1609L268.606 77.6278L265.801 78.0011L265.067 78.8179L266.08 78.3387L266.74 79.2389L260.18 80.8028L252.741 101.341L241.112 115.462L248.651 119.971L260.779 105.047L262.868 94.3109L262.197 110.012C257.114 117.56 252.54 124.803 251.346 130.028L260.18 118.139L268.606 92.6833L269.87 78.978" fill="#882A1F"/>
<path d="M262.87 94.3101L261.633 91.2252L261.765 100.238L262.87 94.3101Z" fill="#650B00"/>
<path d="M270.705 77.161L268.326 77.6932L265.839 78.002L266.841 79.3718L269.48 83.3025L269.842 79.036L270.705 78.3886V77.161" fill="#650B00"/>
<path d="M307.887 75.8954C307.887 75.7063 308.042 75.5529 308.235 75.5529C308.426 75.5529 308.583 75.7063 308.583 75.8954C308.583 76.0847 308.426 76.238 308.235 76.238C308.042 76.238 307.887 76.0847 307.887 75.8954Z" fill="#EEA0AA"/>
<path d="M307.234 76.6777C307.234 76.4886 307.391 76.3352 307.584 76.3352C307.774 76.3352 307.931 76.4886 307.931 76.6777C307.931 76.867 307.774 77.0204 307.584 77.0204C307.391 77.0204 307.234 76.867 307.234 76.6777Z" fill="#EEA0AA"/>
<path d="M306.583 77.4612C306.583 77.2719 306.739 77.1185 306.931 77.1185C307.124 77.1185 307.28 77.2719 307.28 77.4612C307.28 77.6503 307.124 77.8037 306.931 77.8037C306.739 77.8037 306.583 77.6503 306.583 77.4612Z" fill="#EEA0AA"/>
<path d="M291.366 130.592L296.763 147.145C296.763 147.145 298.92 147.751 299.676 147.448L291.366 130.592Z" fill="#650B00"/>
<path d="M287.078 90.6556L283.861 89.2096L287.15 92.8823L287.078 90.6556Z" fill="#650B00"/>
<path d="M289.583 126.238C289.583 126.149 289.473 126.066 289.286 126.014C289.1 125.961 288.858 125.947 288.64 125.974C285.38 126.375 282.093 126.366 278.781 125.97C278.563 125.943 278.323 125.958 278.138 126.011C277.953 126.063 277.843 126.146 277.843 126.234C277.843 126.269 277.843 126.303 277.843 126.335C277.843 126.456 278.046 126.563 278.346 126.599C281.906 127.024 285.479 126.986 289.062 126.595C289.37 126.561 289.581 126.453 289.581 126.329C289.583 126.3 289.583 126.269 289.583 126.238" fill="#EEA0AA"/>
<path d="M309.915 72.8908L310.488 65.2677L311.001 63.2011C311.001 63.2011 311.157 63.2768 311.336 63.3647C311.667 63.5269 311.866 63.863 311.843 64.219C311.798 64.8519 311.734 65.7705 311.734 65.7705L312.541 66.7903L315.276 62.4104C315.276 62.4104 315.623 61.676 315.81 61.2771C315.84 61.212 315.898 61.1622 315.968 61.1392C316.038 61.1162 316.116 61.1223 316.183 61.1556C316.284 61.2079 316.339 61.3178 316.315 61.4264C316.239 61.7857 316.079 62.5492 316.079 62.5492L315.539 64.219L316.183 63.05C316.183 63.05 316.45 62.053 316.612 61.6875C316.641 61.6208 316.697 61.568 316.768 61.5412C316.838 61.5141 316.916 61.5153 316.986 61.5442C316.994 61.5473 317.002 61.5504 317.009 61.5535C317.128 61.603 317.197 61.7235 317.175 61.8462C317.099 62.3004 316.922 63.339 316.922 63.339C316.922 63.339 317.07 63.0614 317.204 62.8097C317.241 62.7399 317.319 62.6977 317.399 62.7022C317.481 62.7067 317.553 62.7568 317.581 62.8299C317.588 62.8471 317.594 62.8623 317.6 62.875C317.61 62.9023 317.614 62.9313 317.612 62.96C317.584 63.2822 317.417 65.2677 317.417 65.2677H317.783L317.417 67.7885L312.541 75.5974L309.915 72.8908" fill="#F3D0C5"/>
<path d="M244.868 119.439L241.88 127.619L241.007 129.572C241.007 129.572 240.869 129.472 240.707 129.356C240.41 129.142 240.273 128.778 240.36 128.432C240.516 127.815 240.745 126.921 240.745 126.921L240.132 125.784L238.315 127.123L238.52 127.619C238.506 127.884 238.33 128.007 237.967 127.959C237.423 127.938 236.148 127.603 235.674 127.123C235.46 126.905 235.207 126.74 235.086 126.512L234.703 125.784L235.505 124.003L241.705 117.106L244.868 119.439" fill="#F3D0C5"/>
<path d="M235.037 125.086L230.365 127.656L230.16 131.986H231.763V128.776L235.037 126.346L234.749 125.834L235.037 125.086Z" fill="#2E2E2E"/>
<path d="M240.235 126.749L238.891 126.691L238.319 127.118L238.542 127.658L238.923 131.198H240.235V126.749Z" fill="#2E2E2E"/>
<path d="M252.203 133.97C252.203 132.967 251.866 132.007 251.264 131.297C250.662 130.589 249.847 130.192 248.998 130.192C243.042 130.192 230.334 130.192 224.377 130.192C223.526 130.192 222.711 130.589 222.109 131.297C221.507 132.007 221.17 132.967 221.17 133.97C221.17 138.445 221.17 145.858 221.17 150.332C221.17 151.336 221.507 152.296 222.109 153.005C222.711 153.713 223.526 154.11 224.377 154.11C230.334 154.11 243.042 154.11 248.998 154.11C249.847 154.11 250.662 153.713 251.264 153.005C251.866 152.296 252.203 151.336 252.203 150.332C252.203 145.858 252.203 138.445 252.203 133.97Z" fill="#3C3C3C"/>
<path d="M221.158 133.973H246.86V134.929H221.158V133.973Z" fill="#494949"/>
<path d="M251.687 133.762C251.687 133.274 251.518 132.807 251.22 132.462C250.922 132.118 250.516 131.925 250.093 131.925C249.973 131.925 249.875 132.016 249.874 132.131C249.849 134.016 249.659 148.245 249.618 151.439C249.615 151.606 249.682 151.766 249.808 151.888C249.929 152.007 250.096 152.073 250.272 152.073C250.34 152.073 250.41 152.073 250.471 152.073C251.109 152.073 251.687 150.786 251.687 150.049C251.687 146.651 251.687 137.653 251.687 133.762" fill="#2E2E2E"/>
<path d="M221.196 134.897H246.874L250 132.121L247.193 135.605H221.196V134.897" fill="#2E2E2E"/>
<path d="M231.844 132.631H235.108V141.959H231.844V132.631Z" fill="#494949"/>
<path d="M221.271 151.158H249.798L251.673 150.461C251.673 152.662 251.265 153.499 249.431 154.144H224.027C222.596 153.783 221.457 152.848 221.271 151.158Z" fill="#2E2E2E"/>
<path d="M125 215.875L129.645 216.269L131.645 221.269L123.5 217.875L125 215.875Z" fill="#BB7B1B"/>
<path d="M233 213.375L231.058 216.2L227.738 220.25L235.058 216.7L233 213.375Z" fill="#BB7B1B"/>
<defs>
<linearGradient id="paint0_linear_964_786" x1="172.272" y1="36.2922" x2="169.975" y2="192.026" gradientUnits="userSpaceOnUse">
<stop stop-color="#FFD03F"/>
<stop offset="1" stop-color="#DD9933"/>
</linearGradient>
</defs>
</svg>
