<svg width="1920" height="382" viewBox="0 0 1920 382" fill="none" xmlns="http://www.w3.org/2000/svg">
<path d="M0 260.706L13.3 266.406C26.7 271.706 53 283.706 80 283.406C106.7 283.706 133 271.706 160 272.006C186.7 271.706 213 283.706 240 266.406C266.7 249.706 293 203.706 320 187.006C346.7 169.706 373 181.706 400 187.006C426.7 192.706 453 192.706 480 164.406C506.7 135.706 533 79.7056 560 56.7056C586.7 33.7056 613 45.7056 640 68.0056C666.7 90.7056 693 124.706 720 119.006C746.7 113.706 773 67.7056 800 45.4056C826.7 22.7056 853 22.7056 880 62.4056C906.7 101.706 933 181.706 960 226.706C986.7 271.706 1013 283.706 1040 289.006C1066.7 294.706 1093 294.706 1120 260.706C1146.7 226.706 1173 158.706 1200 119.006C1226.7 79.7056 1253 67.7056 1280 56.7056C1306.7 45.7056 1333 33.7056 1360 51.0056C1386.7 67.7056 1413 113.706 1440 119.006C1466.7 124.706 1493 90.7056 1520 68.0056C1546.7 45.7056 1573 33.7056 1600 56.7056C1626.7 79.7056 1653 135.706 1680 170.006C1706.7 203.706 1733 215.706 1760 209.706C1786.7 203.706 1813 181.706 1840 181.406C1866.7 181.706 1893 203.706 1907 215.406L1920 226.706V328.706H1906.7C1893.3 328.706 1867 328.706 1840 328.706C1813.3 328.706 1787 328.706 1760 328.706C1733.3 328.706 1707 328.706 1680 328.706C1653.3 328.706 1627 328.706 1600 328.706C1573.3 328.706 1547 328.706 1520 328.706C1493.3 328.706 1467 328.706 1440 328.706C1413.3 328.706 1387 328.706 1360 328.706C1333.3 328.706 1307 328.706 1280 328.706C1253.3 328.706 1227 328.706 1200 328.706C1173.3 328.706 1147 328.706 1120 328.706C1093.3 328.706 1067 328.706 1040 328.706C1013.3 328.706 987 328.706 960 328.706C933.3 328.706 907 328.706 880 328.706C853.3 328.706 827 328.706 800 328.706C773.3 328.706 747 328.706 720 328.706C693.3 328.706 667 328.706 640 328.706C613.3 328.706 587 328.706 560 328.706C533.3 328.706 507 328.706 480 328.706C453.3 328.706 427 328.706 400 328.706C373.3 328.706 347 328.706 320 328.706C293.3 328.706 267 328.706 240 328.706C213.3 328.706 187 328.706 160 328.706C133.3 328.706 107 328.706 80 328.706C53.3 328.706 27 328.706 13 328.706H0V260.706Z" fill="url(#paint0_linear_921_88)"/>
<path opacity="0.9" d="M0 294.705L13.3 266.405C26.7 237.705 53 181.705 80 158.705C106.7 135.705 133 147.705 160 170.005C186.7 192.705 213 226.705 240 249.405C266.7 271.705 293 283.705 320 266.405C346.7 249.705 373 203.705 400 170.005C426.7 135.705 453 113.705 480 130.405C506.7 147.705 533 203.705 560 198.405C586.7 192.705 613 124.705 640 119.005C666.7 113.705 693 169.705 720 187.005C746.7 203.705 773 181.705 800 158.705C826.7 135.705 853 113.705 880 90.7055C906.7 67.7055 933 45.7055 960 34.0055C986.7 22.7055 1013 22.7055 1040 34.0055C1066.7 45.7055 1093 67.7055 1120 68.0055C1146.7 67.7055 1173 45.7055 1200 73.7055C1226.7 101.705 1253 181.705 1280 181.405C1306.7 181.705 1333 101.705 1360 56.7055C1386.7 11.7055 1413 -0.294549 1440 0.00545083C1466.7 -0.294549 1493 11.7055 1520 56.7055C1546.7 101.705 1573 181.705 1600 221.005C1626.7 260.705 1653 260.705 1680 255.005C1706.7 249.705 1733 237.705 1760 192.705C1786.7 147.705 1813 67.7055 1840 51.0055C1866.7 33.7055 1893 79.7055 1907 102.005L1920 124.705V328.705H1906.7C1893.3 328.705 1867 328.705 1840 328.705C1813.3 328.705 1787 328.705 1760 328.705C1733.3 328.705 1707 328.705 1680 328.705C1653.3 328.705 1627 328.705 1600 328.705C1573.3 328.705 1547 328.705 1520 328.705C1493.3 328.705 1467 328.705 1440 328.705C1413.3 328.705 1387 328.705 1360 328.705C1333.3 328.705 1307 328.705 1280 328.705C1253.3 328.705 1227 328.705 1200 328.705C1173.3 328.705 1147 328.705 1120 328.705C1093.3 328.705 1067 328.705 1040 328.705C1013.3 328.705 987 328.705 960 328.705C933.3 328.705 907 328.705 880 328.705C853.3 328.705 827 328.705 800 328.705C773.3 328.705 747 328.705 720 328.705C693.3 328.705 667 328.705 640 328.705C613.3 328.705 587 328.705 560 328.705C533.3 328.705 507 328.705 480 328.705C453.3 328.705 427 328.705 400 328.705C373.3 328.705 347 328.705 320 328.705C293.3 328.705 267 328.705 240 328.705C213.3 328.705 187 328.705 160 328.705C133.3 328.705 107 328.705 80 328.705C53.3 328.705 27 328.705 13 328.705H0V294.705Z" fill="url(#paint1_linear_921_88)"/>
<path fill-rule="evenodd" clip-rule="evenodd" d="M0 279.159V381.159H13H80H160H240H320H400H480H560H640H720H800H880H960H1040H1120H1200H1280H1360H1440H1520H1600H1680H1760H1840H1906.7H1920V75.1593L1907 69.4593C1906.54 69.2835 1906.06 69.1002 1905.57 68.9119C1891.25 63.4265 1865.81 53.6758 1840 97.8593C1830.23 114.256 1820.55 138.081 1810.9 161.809C1793.91 203.635 1777.04 245.159 1760 245.159C1745.24 245.159 1730.69 214.689 1716.18 184.28C1704.13 159.053 1692.11 133.868 1680 126.159C1658.77 112.791 1637.97 151.982 1617.07 191.365C1611.39 202.066 1605.7 212.781 1600 222.459C1573 268.159 1546.7 290.159 1520 296.159C1493 302.159 1466.7 290.159 1440 245.159C1430.21 228.84 1420.51 207.918 1410.85 187.08L1410.85 187.079C1393.87 150.459 1377.02 114.103 1360 103.459C1333.68 86.5973 1308.03 129.871 1282.03 173.741L1281.42 174.768C1280.95 175.565 1280.47 176.363 1280 177.159C1278.66 179.39 1277.32 181.624 1275.99 183.855L1275.97 183.888C1250.38 226.642 1225.37 268.423 1200 273.459C1173 279.159 1146.7 245.159 1120 199.859C1115.77 192.694 1111.55 185.276 1107.35 177.881L1107.35 177.876C1084.74 138.103 1062.51 98.9905 1040 103.459C1024.34 106.765 1008.92 131.021 993.519 155.244C982.363 172.792 971.217 190.323 960 199.859C933 222.159 906.7 200.159 880 171.459C870.392 161.388 860.872 150.595 851.391 139.847L851.391 139.846L851.391 139.846C834.23 120.391 817.198 101.081 800 86.4593C773 64.1593 746.7 52.1593 720 86.4593C709.041 100.138 698.198 121.443 687.396 142.667C671.585 173.733 655.863 204.624 640 211.159C618.302 219.999 597.056 185.569 575.691 150.945L575.69 150.944C570.47 142.485 565.243 134.014 560 126.159C533 86.1593 506.7 64.1593 480 92.1593C467.116 105.52 454.392 130.722 441.707 155.845L441.707 155.845C427.809 183.37 413.959 210.801 400 222.459C384.113 235.816 368.469 229.542 352.843 223.276C341.912 218.893 330.99 214.513 320 216.859C308.091 219.197 296.318 229.453 284.588 239.672C269.722 252.622 254.923 265.513 240 262.159C226.453 259.149 213.083 243.552 199.75 227.999C186.508 212.552 173.304 197.149 160 194.159C141.475 190.043 123.279 210.405 105.058 230.796L105.058 230.796C96.7221 240.125 88.3808 249.46 80 256.459C53 279.159 26.7 279.159 13.3 279.159H0Z" fill="url(#paint2_linear_921_88)"/>
<defs>
<linearGradient id="paint0_linear_921_88" x1="0" y1="10.5" x2="0" y2="329" gradientUnits="userSpaceOnUse">
<stop stop-color="#FFD03F"/>
<stop offset="1" stop-color="#DD9933"/>
</linearGradient>
<linearGradient id="paint1_linear_921_88" x1="0" y1="328.705" x2="0" y2="0" gradientUnits="userSpaceOnUse">
<stop stop-color="#DD9933"/>
<stop offset="1" stop-color="#FFB30B"/>
</linearGradient>
<linearGradient id="paint2_linear_921_88" x1="960" y1="142" x2="960" y2="381" gradientUnits="userSpaceOnUse">
<stop stop-color="#FFB30B"/>
<stop offset="1" stop-color="white"/>
<stop offset="1" stop-color="#DD9933" stop-opacity="0"/>
<stop offset="1" stop-color="#FFB30B" stop-opacity="0"/>
</linearGradient>
</defs>
</svg>
