<svg width="88" height="88" viewBox="0 0 88 88" fill="none" xmlns="http://www.w3.org/2000/svg">
<path d="M69.6665 23.1458V21.0069C69.6665 18.6465 67.7511 16.7292 65.3888 16.7292H37.5833V14.5902C37.5833 12.2298 35.6679 10.3125 33.3054 10.3125H22.611C20.2486 10.3125 18.3333 12.2298 18.3333 14.5902V23.1458H69.6665Z" fill="#2577FF"/>
<path d="M76.0832 23.1458H34.3749V19.9375C34.3749 16.3966 31.5019 13.5208 27.9582 13.5208H11.9167C8.37298 13.5208 5.5 16.3967 5.5 19.9375V71.2708C5.5 74.8172 8.37298 77.6875 11.9167 77.6875H76.0832C79.6268 77.6875 82.4998 74.8172 82.4998 71.2708V29.5625C82.4998 26.0217 79.6268 23.1458 76.0832 23.1458Z" fill="#FCB814"/>
<path d="M29.5625 17.9802V23.1458H34.3344C35.2443 16.0168 31.884 14.3561 28.9433 13.6202C29.3547 15.037 29.5632 16.5049 29.5625 17.9802ZM77.0682 23.2453C77.4551 24.0708 77.6875 24.982 77.6875 25.9531V67.6615C77.6875 71.2078 74.8142 74.0781 71.2707 74.0781H7.10398C6.76625 74.0781 6.4414 74.0291 6.11768 73.9788C7.14068 76.1649 9.34394 77.6875 11.9165 77.6875H76.0832C79.6267 77.6875 82.5 74.8172 82.5 71.2708V29.5625C82.5 26.3589 80.1406 23.7228 77.0682 23.2453Z" fill="#242424"/>
</svg>
