<svg width="100%" height="100%" id="svg" viewBox="0 0 1440 700" xmlns="http://www.w3.org/2000/svg" class="transition duration-300 ease-in-out delay-150"><defs><linearGradient id="gradient" x1="98%" y1="35%" x2="2%" y2="65%"><stop offset="5%" stop-color="#ffb30b66"></stop><stop offset="95%" stop-color="#dd993366"></stop></linearGradient></defs><path d="M 0,700 C 0,700 0,175 0,175 C 29.578164481435792,181.59366370059308 59.156328962871584,188.18732740118617 82,183 C 104.84367103712842,177.81267259881383 120.9528486299495,160.84435409584844 140,142 C 159.0471513700505,123.15564590415156 181.03227651733036,102.43525621542003 208,117 C 234.96772348266964,131.56474378457997 266.91804530072915,181.41462104247142 295,215 C 323.08195469927085,248.58537895752858 347.29554227975314,265.90625961469425 369,235 C 390.70445772024686,204.09374038530575 409.899785580258,124.96034049875168 431,111 C 452.100214419742,97.03965950124832 475.1053153992149,148.25237839029904 498,163 C 520.8946846007851,177.74762160970096 543.6789528228826,156.03014594005217 568,142 C 592.3210471771174,127.96985405994783 618.1788733092546,121.62703784949223 643,115 C 667.8211266907454,108.37296215050777 691.6055539400987,101.4617026619789 717,109 C 742.3944460599013,116.5382973380211 769.39891093035,138.52615150259217 794,148 C 818.60108906965,157.47384849740783 840.7988023385014,154.4336913276525 864,164 C 887.2011976614986,173.5663086723475 911.4058797156441,195.73908318679793 938,184 C 964.5941202843559,172.26091681320207 993.5776787989219,126.6099759251559 1016,118 C 1038.4223212010781,109.3900240748441 1054.2834050886677,137.8210131125785 1075,152 C 1095.7165949113323,166.1789868874215 1121.2887008464065,166.10597162453007 1148,176 C 1174.7112991535935,185.89402837546993 1202.5617915257055,205.7551003893012 1225,215 C 1247.4382084742945,224.2448996106988 1264.4641330507716,222.87362681826505 1285,213 C 1305.5358669492284,203.12637318173495 1329.5816762712082,184.75039233763854 1356,177 C 1382.4183237287918,169.24960766236146 1411.2091618643958,172.1248038311807 1440,175 C 1440,175 1440,700 1440,700 Z" stroke="none" stroke-width="0" fill="url(#gradient)" class="transition-all duration-300 ease-in-out delay-150 path-0"></path><defs><linearGradient id="gradient" x1="98%" y1="35%" x2="2%" y2="65%"><stop offset="5%" stop-color="#ffb30b88"></stop><stop offset="95%" stop-color="#dd993388"></stop></linearGradient></defs><path d="M 0,700 C 0,700 0,350 0,350 C 30.367995882539837,352.00946403179086 60.735991765079675,354.0189280635817 85,371 C 109.26400823492033,387.9810719364183 127.42402882222115,419.93375177746407 145,412 C 162.57597117777885,404.06624822253593 179.56789294603573,356.24606482656185 205,328 C 230.43210705396427,299.75393517343815 264.3043993936359,291.0819889162886 290,297 C 315.6956006063641,302.9180110837114 333.214509479421,323.4259795082838 358,333 C 382.785490520579,342.5740204917162 414.8375626886801,341.2140930505764 439,346 C 463.1624373113199,350.7859069494236 479.43523976585846,361.71764828941053 499,352 C 518.5647602341415,342.28235171058947 541.4214782478863,311.91531379178156 570,301 C 598.5785217521137,290.08468620821844 632.8788472425964,298.6210965434633 660,315 C 687.1211527574036,331.3789034565367 707.0631327817283,355.6003000343652 726,355 C 744.9368672182717,354.3996999656348 762.8686216304905,328.977703319076 790,324 C 817.1313783695095,319.022296680924 853.4623806963101,334.4888866893308 874,346 C 894.5376193036899,357.5111133106692 899.2818555842698,365.0667499236007 923,349 C 946.7181444157302,332.9332500763993 989.4101969666106,293.2441136162664 1020,287 C 1050.5898030333894,280.7558863837336 1069.077356549287,307.95679561133346 1087,339 C 1104.922643450713,370.04320438866654 1122.2803768362407,404.92870393839956 1148,409 C 1173.7196231637593,413.07129606160044 1207.8011361057502,386.32838863506817 1234,380 C 1260.1988638942498,373.67161136493183 1278.5150787407597,387.7577415213278 1298,377 C 1317.4849212592403,366.2422584786722 1338.1385489312113,330.6406452796206 1362,322 C 1385.8614510687887,313.3593547203794 1412.9307255343942,331.67967736018966 1440,350 C 1440,350 1440,700 1440,700 Z" stroke="none" stroke-width="0" fill="url(#gradient)" class="transition-all duration-300 ease-in-out delay-150 path-1"></path><defs><linearGradient id="gradient" x1="98%" y1="35%" x2="2%" y2="65%"><stop offset="5%" stop-color="#ffb30bff"></stop><stop offset="95%" stop-color="#dd9933ff"></stop></linearGradient></defs><path d="M 0,700 C 0,700 0,525 0,525 C 25.809199696395694,499.7776989012841 51.61839939279139,474.55539780256817 79,463 C 106.38160060720861,451.44460219743183 135.33560212523017,453.55610769101145 156,469 C 176.66439787476983,484.44389230898855 189.03919210628806,513.220171433386 209,519 C 228.96080789371194,524.779828566614 256.50762944961775,507.56320657544484 283,509 C 309.49237055038225,510.43679342455516 334.9302900952409,530.5270022648347 358,525 C 381.0697099047591,519.4729977351653 401.7712101694188,488.3287843652163 425,485 C 448.2287898305812,481.6712156347837 473.9848692270839,506.1578602743 500,497 C 526.0151307729161,487.8421397257 552.2893129222458,445.039774537584 581,470 C 609.7106870777542,494.960225462416 640.8578790839327,587.6830415753637 661,587 C 681.1421209160673,586.3169584246363 690.2791707420233,492.2280591609612 711,489 C 731.7208292579767,485.7719408390388 764.025437947974,573.4047217807916 792,584 C 819.974562052026,594.5952782192084 843.6190774660806,528.1530537158721 864,508 C 884.3809225339194,487.8469462841278 901.4982521877038,513.9830633557195 927,514 C 952.5017478122962,514.0169366442805 986.3879137831043,487.91469286125005 1013,502 C 1039.6120862168957,516.08530713875 1058.9500926798787,570.3581651992802 1079,585 C 1099.0499073201213,599.6418348007198 1119.8117154973806,574.6526463416293 1147,569 C 1174.1882845026194,563.3473536583707 1207.8030453305987,577.0312494342024 1237,584 C 1266.1969546694013,590.9687505657976 1290.9761031802234,591.2223559215608 1308,581 C 1325.0238968197766,570.7776440784392 1334.2925419485075,550.079326879554 1355,539 C 1375.7074580514925,527.920673120446 1407.8537290257464,526.460336560223 1440,525 C 1440,525 1440,700 1440,700 Z" stroke="none" stroke-width="0" fill="url(#gradient)" class="transition-all duration-300 ease-in-out delay-150 path-2"></path></svg>