<svg width="983" height="70" viewBox="0 0 983 70" fill="none" xmlns="http://www.w3.org/2000/svg">
<path d="M0 43.2307L6.80932 44.2547C13.6698 45.2069 27.1349 47.3626 40.9583 47.3088C54.6282 47.3626 68.0932 45.2069 81.9167 45.2607C95.5865 45.2069 109.052 47.3626 122.875 44.2547C136.545 41.2546 150.01 32.9907 163.833 29.9906C177.503 26.8826 190.968 29.0384 204.792 29.9906C218.462 31.0146 231.927 31.0146 245.75 25.9305C259.42 20.7746 272.885 10.7142 286.708 6.58228C300.378 2.45035 313.843 4.60614 327.667 8.61232C341.337 12.6904 354.802 18.7984 368.625 17.7744C382.295 16.8223 395.76 8.55842 409.583 4.55225C423.253 0.474211 436.718 0.47421 450.542 7.60628C464.212 14.6665 477.677 29.0384 491.5 37.1226C505.17 45.2069 518.635 47.3626 532.458 48.3148C546.128 49.3388 559.593 49.3388 573.417 43.2307C587.087 37.1226 600.552 24.9065 614.375 17.7744C628.045 10.7142 641.51 8.55842 655.333 6.58228C669.003 4.60614 682.468 2.45035 696.292 5.55828C709.962 8.55842 723.427 16.8223 737.25 17.7744C750.92 18.7984 764.385 12.6904 778.208 8.61232C791.878 4.60614 805.343 2.45035 819.167 6.58228C832.837 10.7142 846.302 20.7746 860.125 26.9365C873.795 32.9907 887.26 35.1465 901.083 34.0686C914.753 32.9907 928.218 29.0384 942.042 28.9845C955.712 29.0384 969.177 32.9907 976.344 35.0926L983 37.1226V55.4469H976.191C969.33 55.4469 955.865 55.4469 942.042 55.4469C928.372 55.4469 914.907 55.4469 901.083 55.4469C887.413 55.4469 873.948 55.4469 860.125 55.4469C846.455 55.4469 832.99 55.4469 819.167 55.4469C805.497 55.4469 792.032 55.4469 778.208 55.4469C764.538 55.4469 751.073 55.4469 737.25 55.4469C723.58 55.4469 710.115 55.4469 696.292 55.4469C682.622 55.4469 669.157 55.4469 655.333 55.4469C641.663 55.4469 628.198 55.4469 614.375 55.4469C600.705 55.4469 587.24 55.4469 573.417 55.4469C559.747 55.4469 546.282 55.4469 532.458 55.4469C518.788 55.4469 505.323 55.4469 491.5 55.4469C477.83 55.4469 464.365 55.4469 450.542 55.4469C436.872 55.4469 423.407 55.4469 409.583 55.4469C395.913 55.4469 382.448 55.4469 368.625 55.4469C354.955 55.4469 341.49 55.4469 327.667 55.4469C313.997 55.4469 300.532 55.4469 286.708 55.4469C273.038 55.4469 259.573 55.4469 245.75 55.4469C232.08 55.4469 218.615 55.4469 204.792 55.4469C191.122 55.4469 177.657 55.4469 163.833 55.4469C150.163 55.4469 136.698 55.4469 122.875 55.4469C109.205 55.4469 95.7401 55.4469 81.9167 55.4469C68.2468 55.4469 54.7818 55.4469 40.9583 55.4469C27.2885 55.4469 13.8234 55.4469 6.65573 55.4469H0V43.2307Z" fill="url(#paint0_linear_921_76)"/>
<path opacity="0.9" d="M0 52.9436L6.80932 47.8595C13.6698 42.7036 27.1349 32.6432 40.9583 28.5113C54.6282 24.3794 68.0932 26.5352 81.9167 30.5413C95.5865 34.6194 109.052 40.7274 122.875 44.8055C136.545 48.8117 150.01 50.9675 163.833 47.8595C177.503 44.8594 190.968 36.5955 204.792 30.5413C218.462 24.3794 231.927 20.4271 245.75 23.4272C259.42 26.5352 272.885 36.5955 286.708 35.6434C300.378 34.6194 313.843 22.4032 327.667 21.3792C341.337 20.4271 354.802 30.4874 368.625 33.5954C382.295 36.5955 395.76 32.6432 409.583 28.5113C423.253 24.3794 436.718 20.4271 450.542 16.2952C464.212 12.1632 477.677 8.21095 491.5 6.10905C505.17 4.07902 518.635 4.07902 532.458 6.10905C546.128 8.21095 559.593 12.1632 573.417 12.2171C587.087 12.1632 600.552 8.21095 614.375 13.2411C628.045 18.2713 641.51 32.6432 655.333 32.5893C669.003 32.6432 682.468 18.2713 696.292 10.1871C709.962 2.10287 723.427 -0.0529155 737.25 0.000979237C750.92 -0.0529155 764.385 2.10287 778.208 10.1871C791.878 18.2713 805.343 32.6432 819.167 39.7034C832.837 46.8355 846.302 46.8355 860.125 45.8115C873.795 44.8594 887.26 42.7036 901.083 34.6194C914.753 26.5352 928.218 12.1632 942.042 9.16309C955.712 6.05516 969.177 14.319 976.344 18.3252L983 22.4032V59.0517H976.191C969.33 59.0517 955.865 59.0517 942.042 59.0517C928.372 59.0517 914.907 59.0517 901.083 59.0517C887.413 59.0517 873.948 59.0517 860.125 59.0517C846.455 59.0517 832.99 59.0517 819.167 59.0517C805.497 59.0517 792.032 59.0517 778.208 59.0517C764.538 59.0517 751.073 59.0517 737.25 59.0517C723.58 59.0517 710.115 59.0517 696.292 59.0517C682.622 59.0517 669.157 59.0517 655.333 59.0517C641.663 59.0517 628.198 59.0517 614.375 59.0517C600.705 59.0517 587.24 59.0517 573.417 59.0517C559.747 59.0517 546.282 59.0517 532.458 59.0517C518.788 59.0517 505.323 59.0517 491.5 59.0517C477.83 59.0517 464.365 59.0517 450.542 59.0517C436.872 59.0517 423.407 59.0517 409.583 59.0517C395.913 59.0517 382.448 59.0517 368.625 59.0517C354.955 59.0517 341.49 59.0517 327.667 59.0517C313.997 59.0517 300.532 59.0517 286.708 59.0517C273.038 59.0517 259.573 59.0517 245.75 59.0517C232.08 59.0517 218.615 59.0517 204.792 59.0517C191.122 59.0517 177.657 59.0517 163.833 59.0517C150.163 59.0517 136.698 59.0517 122.875 59.0517C109.205 59.0517 95.7401 59.0517 81.9167 59.0517C68.2468 59.0517 54.7818 59.0517 40.9583 59.0517C27.2885 59.0517 13.8234 59.0517 6.65573 59.0517H0V52.9436Z" fill="url(#paint1_linear_921_76)"/>
<path fill-rule="evenodd" clip-rule="evenodd" d="M0 50.8693V69.1935H6.65573H40.9583H81.9167H122.875H163.833H204.792H245.75H286.708H327.667H368.625H409.583H450.542H491.5H532.458H573.417H614.375H655.333H696.292H737.25H778.208H819.167H860.125H901.083H942.042H976.191H983V14.2209L976.344 13.1969C976.106 13.1653 975.862 13.1324 975.61 13.0986C968.283 12.1131 955.258 10.3614 942.042 18.2989C937.038 21.2446 932.082 25.5248 927.145 29.7875C918.444 37.3015 909.805 44.7612 901.083 44.7612C893.528 44.7612 886.08 39.2873 878.647 33.8244C872.48 29.2923 866.323 24.7678 860.125 23.383C849.255 20.9815 838.607 28.0221 827.906 35.0972C824.999 37.0196 822.087 38.9445 819.167 40.6832C805.343 48.8932 791.878 52.8455 778.208 53.9234C764.385 55.0012 750.92 52.8455 737.25 44.7612C732.237 41.8294 727.271 38.0706 722.325 34.3272C713.633 27.7484 705.004 21.2171 696.292 19.305C682.818 16.2757 669.685 24.0497 656.371 31.9309C656.025 32.1356 655.679 32.3404 655.333 32.5451C654.655 32.9417 653.978 33.3387 653.301 33.7352L653.269 33.754C640.167 41.4347 627.364 48.9406 614.375 49.8453C600.552 50.8693 587.086 44.7612 573.417 36.6231C571.249 35.3356 569.09 34.0026 566.938 32.6738C555.365 25.5287 543.984 18.5021 532.458 19.305C524.442 19.8988 516.546 24.2564 508.661 28.6081C502.949 31.7606 497.243 34.91 491.5 36.6231C477.677 40.6293 464.212 36.677 450.542 31.5211C445.622 29.7118 440.748 27.7729 435.894 25.8419C427.109 22.3468 418.388 18.8777 409.583 16.2509C395.76 12.2447 382.295 10.089 368.625 16.2509C363.014 18.7082 357.463 22.5357 351.932 26.3485C343.837 31.9296 335.788 37.4791 327.667 38.6532C316.558 40.2413 305.68 34.0558 294.742 27.8358C292.069 26.3159 289.393 24.7941 286.708 23.383C272.885 16.197 259.42 12.2447 245.75 17.2749C239.154 19.6752 232.639 24.2027 226.145 28.7159C219.029 33.6608 211.939 38.5887 204.792 40.6832C196.658 43.0827 188.648 41.9557 180.648 40.83C175.052 40.0425 169.46 39.2557 163.833 39.6772C157.736 40.0971 151.709 41.9395 145.703 43.7754C138.092 46.1018 130.515 48.4178 122.875 47.8153C115.939 47.2745 109.094 44.4725 102.268 41.6783C95.4884 38.9034 88.728 36.1362 81.9167 35.5991C72.4322 34.8596 63.1165 38.5177 53.7876 42.1809C49.5197 43.8568 45.2491 45.5338 40.9583 46.7913C27.1349 50.8693 13.6698 50.8693 6.80932 50.8693H0Z" fill="url(#paint2_linear_921_76)"/>
<defs>
<linearGradient id="paint0_linear_921_76" x1="0" y1="55.4469" x2="0" y2="1.79648" gradientUnits="userSpaceOnUse">
<stop stop-color="#FFD03F"/>
<stop offset="1" stop-color="#F36A3E"/>
</linearGradient>
<linearGradient id="paint1_linear_921_76" x1="0" y1="59.0517" x2="0" y2="0" gradientUnits="userSpaceOnUse">
<stop stop-color="#F36A3E"/>
<stop offset="1" stop-color="#FFB30B"/>
</linearGradient>
<linearGradient id="paint2_linear_921_76" x1="491.5" y1="17.2463" x2="491.5" y2="69.1649" gradientUnits="userSpaceOnUse">
<stop stop-color="#FF8F27"/>
<stop offset="1" stop-color="white"/>
<stop offset="1" stop-color="#FF8F27" stop-opacity="0"/>
</linearGradient>
</defs>
</svg>
