<svg width="266" height="283" viewBox="0 0 266 283" fill="none" xmlns="http://www.w3.org/2000/svg">
<g filter="url(#filter0_d_1610_61)">
<path d="M12 85.97V192.984C12 204.381 18.457 214.793 28.6656 219.858L118.226 264.297C126.597 268.45 136.424 268.466 144.807 264.341L235.247 219.833C245.503 214.786 252 204.348 252 192.916V85.9021C252 74.5059 245.543 64.0938 235.334 59.0284L145.774 14.5893C137.403 10.4361 127.576 10.4201 119.193 14.5458L28.7535 59.0529C18.4967 64.1005 12 74.5385 12 85.97Z" fill="#8E5601"/>
<path d="M12 85.97V192.984C12 204.381 18.457 214.793 28.6656 219.858L118.226 264.297C126.597 268.45 136.424 268.466 144.807 264.341L235.247 219.833C245.503 214.786 252 204.348 252 192.916V85.9021C252 74.5059 245.543 64.0938 235.334 59.0284L145.774 14.5893C137.403 10.4361 127.576 10.4201 119.193 14.5458L28.7535 59.0529C18.4967 64.1005 12 74.5385 12 85.97Z" stroke="white" stroke-width="10"/>
</g>
<defs>
<filter id="filter0_d_1610_61" x="0" y="0.462891" width="266" height="281.961" filterUnits="userSpaceOnUse" color-interpolation-filters="sRGB">
<feFlood flood-opacity="0" result="BackgroundImageFix"/>
<feColorMatrix in="SourceAlpha" type="matrix" values="0 0 0 0 0 0 0 0 0 0 0 0 0 0 0 0 0 0 127 0" result="hardAlpha"/>
<feOffset dx="1" dy="2"/>
<feGaussianBlur stdDeviation="4"/>
<feComposite in2="hardAlpha" operator="out"/>
<feColorMatrix type="matrix" values="0 0 0 0 0 0 0 0 0 0 0 0 0 0 0 0 0 0 0.15 0"/>
<feBlend mode="normal" in2="BackgroundImageFix" result="effect1_dropShadow_1610_61"/>
<feBlend mode="normal" in="SourceGraphic" in2="effect1_dropShadow_1610_61" result="shape"/>
</filter>
</defs>
</svg>
